<?xml version="1.0" standalone="no"?>
<!DOCTYPE svg PUBLIC "-//W3C//DTD SVG 1.1//EN" "http://www.w3.org/Graphics/SVG/1.1/DTD/svg11.dtd" >
<svg>
<metadata>
Created by FontForge 20090622 at Mon May 11 02:46:34 2015
 By deploy user
Copyright (c) 1981, 1982, 1983, 1989 and 1993, Linotype Library GmbH or its affiliated Linotype-Hell companies. All rights reserved.

The digitally encoded machine readable software for producing the Typefaces licensed to you is now the property of Heidelberger Druckmaschinen AG and its licensors, and may not be reproduced, used, displayed, modified, disclosed or transferred without the express written approval of Heidelberger Druckmaschinen AG.

Copyright (c) 1988, 1990, 1993 Adobe Systems Incorporated. All Rights Reserved.
</metadata>
<defs>
<font id="HelveticaNeue-Bold" horiz-adv-x="611" >
  <font-face 
    font-family="Helvetica Neue"
    font-weight="700"
    font-stretch="normal"
    units-per-em="1000"
    panose-1="2 0 8 3 0 0 0 9 0 4"
    ascent="800"
    descent="-200"
    x-height="517"
    cap-height="714"
    bbox="-1018 -481 1437 1141"
    underline-thickness="50"
    underline-position="-75"
    unicode-range="U+0008-U+FFA7"
  />
<missing-glyph horiz-adv-x="500" 
d="M391 607h-280v-512h280v512zM482 698v-695h-465v695h465z" />
    <glyph glyph-name="fi" unicode="fi" 
d="M85 422v-422h142v422h98v95h-98v31q0 32 12.5 45.5t41.5 13.5q27 0 52 -3v106q-18 1 -37 2.5t-38 1.5q-87 0 -130 -44t-43 -113v-40h-85v-95h85zM411 517v-517h142v517h-142zM553 597v117h-142v-117h142z" />
    <glyph glyph-name="fl" unicode="fl" 
d="M85 422v-422h142v422h98v95h-98v31q0 32 12.5 45.5t41.5 13.5q27 0 52 -3v106q-18 1 -37 2.5t-38 1.5q-87 0 -130 -44t-43 -113v-40h-85v-95h85zM411 714v-714h142v714h-142z" />
    <glyph glyph-name=".notdef" horiz-adv-x="500" 
d="M391 607h-280v-512h280v512zM482 698v-695h-465v695h465z" />
    <glyph glyph-name=".null" horiz-adv-x="0" 
 />
    <glyph glyph-name=".null" horiz-adv-x="0" 
 />
    <glyph glyph-name="nonmarkingreturn" unicode="&#x9;" horiz-adv-x="278" 
 />
    <glyph glyph-name="controlHT" horiz-adv-x="0" 
 />
    <glyph glyph-name="space" unicode="&#xa;" horiz-adv-x="278" 
 />
    <glyph glyph-name="space" unicode=" " horiz-adv-x="278" 
 />
    <glyph glyph-name="controlGS" unicode="&#xd;" horiz-adv-x="278" 
 />
    <glyph glyph-name="controlBS" horiz-adv-x="0" 
 />
    <glyph glyph-name="exclam" unicode="!" horiz-adv-x="278" 
d="M61 154v-154h157v154h-157zM213 522v192h-148v-192l38 -308h71z" />
    <glyph glyph-name="quotedbl" unicode="&#x22;" horiz-adv-x="463" 
d="M85 714v-321h107v321h-107zM271 714v-321h107v321h-107z" />
    <glyph glyph-name="numbersign" unicode="#" horiz-adv-x="556" 
d="M243 412h96l-17 -124h-97zM116 198l-28 -198h97l28 198h96l-27 -198h97l27 198h87v90h-74l17 124h87v90h-74l27 198h-97l-27 -198h-97l28 198h-97l-28 -198h-95v-90h83l-18 -124h-95v-90h83z" />
    <glyph glyph-name="dollar" unicode="$" horiz-adv-x="556" 
d="M141 232h-141q10 -118 73 -179t175 -69v-85h59v85q75 5 123 30t76.5 57t39.5 65.5t11 55.5q0 25 -3.5 57t-22.5 64t-59 61.5t-114 49.5q-14 4 -26 7l-25 6v177q34 0 58 -28t25 -68h142q-3 52 -22 90t-49 63.5t-69.5 40t-84.5 19.5v77h-59v-77q-45 -3 -87 -17.5t-74 -41
t-51.5 -65.5t-19.5 -90q0 -50 17 -83.5t45.5 -56t64.5 -36t73 -23.5q10 -2 18.5 -4.5t13.5 -4.5v-209q-46 9 -77 42t-30 90zM307 100v192q59 -16 83.5 -35.5t24.5 -58.5q0 -24 -10 -41.5t-25.5 -29.5t-35 -18.5t-37.5 -8.5zM248 614v-163q-48 11 -69 29t-21 51
q0 21 7.5 36.5t20.5 26t29 15.5t33 5z" />
    <glyph glyph-name="percent" unicode="%" horiz-adv-x="1000" 
d="M693 182q0 17 1.5 38t8.5 39t20.5 30t37.5 12q22 0 34.5 -13.5t18.5 -32t7.5 -39t1.5 -35.5q0 -16 -1.5 -36.5t-8 -39t-20 -31.5t-36.5 -13q-24 0 -37 13t-19 31.5t-7 39.5t-1 37zM591 183q0 -41 8.5 -77t28 -62.5t51 -41.5t77.5 -15q44 0 76 14.5t52.5 40.5t30.5 61
t10 76t-8 77t-27.5 62.5t-50.5 42t-78 15.5q-44 0 -76 -15t-53 -41t-31 -61t-10 -76zM668 722l-414 -743h87l412 743h-85zM177 514q0 17 1.5 39t8.5 41t20.5 32t37.5 13q22 0 34.5 -14t18.5 -34t7.5 -41.5t1.5 -36.5q0 -16 -1.5 -35.5t-8 -37t-20 -29.5t-36.5 -12
q-24 0 -37 12t-19 29.5t-7 37.5t-1 36zM75 516q0 -41 8.5 -76.5t28 -61t51 -40t77.5 -14.5q44 0 76 14t52.5 39t30.5 59.5t10 75.5t-8 78t-27.5 64.5t-50.5 43.5t-78 16q-44 0 -76 -15.5t-53 -42.5t-31 -63t-10 -77z" />
    <glyph glyph-name="ampersand" unicode="&#x26;" horiz-adv-x="685" 
d="M464 71l58 -71h174l-145 169q30 38 47 83t22 93h-123q-3 -22 -9 -43.5t-17 -41.5l-92 113q54 29 90.5 72t36.5 106q0 42 -15.5 74t-42 53.5t-62 32.5t-76.5 11q-36 0 -69.5 -11.5t-59.5 -33t-41.5 -51.5t-15.5 -67q0 -47 19.5 -82t48.5 -70q-31 -15 -60 -35t-51.5 -45.5
t-35.5 -57t-13 -69.5q0 -51 18 -90.5t49 -67t73.5 -41.5t90.5 -14q61 0 109.5 21t91.5 63zM267 315l122 -149q-25 -28 -53.5 -45.5t-66.5 -17.5q-20 0 -38.5 7.5t-32.5 20t-22.5 30t-8.5 36.5q0 22 8.5 40t22.5 33t32 26t37 19zM382 559q0 -39 -21.5 -61t-51.5 -41l-38 49
q-18 24 -18 58q0 28 19 45.5t45 17.5t45.5 -20t19.5 -48z" />
    <glyph glyph-name="quotesingle" unicode="'" horiz-adv-x="278" 
d="M86 714v-321h107v321h-107z" />
    <glyph glyph-name="parenleft" unicode="(" horiz-adv-x="296" 
d="M303 731h-119q-33 -48 -57.5 -105t-41 -118t-25 -122.5t-8.5 -117.5q0 -118 34.5 -232t97.5 -217h118q-57 109 -82.5 224t-25.5 235q0 118 26 232.5t83 220.5z" />
    <glyph glyph-name="parenright" unicode=")" horiz-adv-x="296" 
d="M-6 -181h118q33 47 58 104t41.5 117.5t24.5 122t8 117.5q0 118 -34.5 233t-97.5 218h-117q55 -109 81 -225t26 -236q0 -118 -26.5 -231.5t-81.5 -219.5z" />
    <glyph glyph-name="asterisk" unicode="*" horiz-adv-x="407" 
d="M242 589v125h-80v-125l-113 44l-27 -77l116 -39l-74 -98l67 -49l70 103l74 -103l66 49l-74 98l118 39l-27 77z" />
    <glyph glyph-name="plus" unicode="+" horiz-adv-x="600" 
d="M354 306v199h-107v-199h-199v-107h199v-199h107v199h199v107h-199z" />
    <glyph glyph-name="comma" unicode="," horiz-adv-x="278" 
d="M61 154v-154h72q1 -16 -4 -31.5t-15 -28t-23.5 -21.5t-28.5 -12v-72q32 5 60.5 18.5t49.5 34.5t33.5 49.5t12.5 62.5v154h-157z" />
    <glyph glyph-name="hyphen" unicode="-" horiz-adv-x="407" 
d="M53 334v-122h301v122h-301z" />
    <glyph glyph-name="period" unicode="." horiz-adv-x="278" 
d="M60 154v-154h157v154h-157z" />
    <glyph glyph-name="slash" unicode="/" horiz-adv-x="371" 
d="M268 731l-278 -747h113l279 747h-114z" />
    <glyph glyph-name="zero" unicode="0" horiz-adv-x="556" 
d="M163 353q0 18 0.5 43.5t3.5 52.5t10 53.5t19.5 47.5t32 34t48.5 13t49 -13t33 -34t19.5 -47.5t10 -53.5t4 -52.5t0.5 -43.5q0 -30 -2 -72.5t-12.5 -82t-34 -67.5t-67.5 -28q-43 0 -66 28t-33.5 67.5t-12.5 82t-2 72.5zM21 353q0 -105 20.5 -175.5t55.5 -112.5t81.5 -60
t98.5 -18q53 0 99.5 18t82 60t56 112.5t20.5 175.5q0 102 -20.5 171.5t-56 111.5t-82 60t-99.5 18q-52 0 -98.5 -18t-81.5 -60t-55.5 -111.5t-20.5 -171.5z" />
    <glyph glyph-name="one" unicode="1" horiz-adv-x="556" 
d="M392 0v700h-113q-6 -40 -25 -67t-46.5 -43.5t-62 -23t-71.5 -5.5v-107h176v-454h142z" />
    <glyph glyph-name="two" unicode="2" horiz-adv-x="556" 
d="M37 431h136q0 28 5.5 56.5t18.5 52t34.5 38t52.5 14.5q46 0 75.5 -28.5t29.5 -79.5q0 -32 -14.5 -57t-36 -45t-47.5 -36l-49 -33l-86 -61q-40 -30 -70 -65.5t-47.5 -80.5t-17.5 -106h514v122h-331q26 36 60 63t70 51l71 47q36 24 64 53.5t45 67.5t17 91q0 51 -19.5 92
t-52.5 69t-76.5 43t-91.5 15q-63 0 -111.5 -21.5t-80.5 -60t-48 -90t-14 -111.5z" />
    <glyph glyph-name="three" unicode="3" horiz-adv-x="556" 
d="M228 417v-100q26 0 54.5 -1.5t52.5 -11t39.5 -30.5t15.5 -61q0 -51 -33 -80.5t-81 -29.5q-31 0 -53.5 11t-37.5 29.5t-23 44t-9 53.5h-135q-1 -61 17.5 -108t52.5 -79.5t82.5 -49.5t107.5 -17q51 0 98 15t83 44t57.5 72t21.5 98q0 60 -33 103t-91 56v2q49 14 73.5 53
t24.5 90q0 47 -21 83t-54.5 61t-75.5 37.5t-84 12.5q-54 0 -98 -17.5t-75.5 -49.5t-49 -76.5t-19.5 -98.5h135q-1 54 26.5 89.5t81.5 35.5q39 0 69 -24t30 -69q0 -30 -14.5 -48t-37 -27.5t-48.5 -11.5t-49 0z" />
    <glyph glyph-name="four" unicode="4" horiz-adv-x="556" 
d="M312 522v-243h-184l181 243h3zM312 162v-162h135v162h93v117h-93v421h-127l-304 -408v-130h296z" />
    <glyph glyph-name="five" unicode="5" horiz-adv-x="556" 
d="M500 583v117h-391l-69 -387h128q21 29 45 42.5t62 13.5q29 0 51 -10t38 -28t24 -42t8 -51q0 -26 -8.5 -50.5t-24 -43t-38 -30t-50.5 -11.5q-48 0 -79 28.5t-36 76.5h-142q1 -55 22.5 -96.5t57.5 -69.5t82.5 -41.5t97.5 -13.5q53 -1 100 17.5t82.5 52.5t56.5 80.5
t21 100.5q0 49 -14.5 92.5t-42 75.5t-67.5 51t-92 19q-42 0 -75 -12.5t-62 -41.5l-2 2l28 159h289z" />
    <glyph glyph-name="six" unicode="6" horiz-adv-x="556" 
d="M286 363q27 0 47.5 -11.5t33.5 -30t19.5 -42t6.5 -48.5q0 -24 -7 -47t-21 -41t-33.5 -29t-45.5 -11q-27 0 -48 11t-35.5 29.5t-22 42t-7.5 47.5q0 26 7 49.5t21 41.5t35.5 28.5t49.5 10.5zM388 520h135q-6 47 -25 83t-49 60.5t-69 37.5t-84 13q-75 0 -127 -33t-85 -85.5
t-48 -117.5t-15 -130q0 -67 12 -131.5t43 -115.5t83 -82.5t131 -31.5q55 0 100 19.5t77.5 54t50 81t17.5 100.5q0 42 -13 83t-41 73q-30 33 -73 52.5t-88 19.5q-51 0 -90 -18t-68 -60l-2 2q1 29 8 66t22 69.5t40.5 55t63.5 22.5q37 0 62 -26t32 -61z" />
    <glyph glyph-name="seven" unicode="7" horiz-adv-x="556" 
d="M517 578v122h-478v-132h332q-100 -121 -161.5 -266t-73.5 -302h152q1 70 16.5 151t44 160t71 149t97.5 118z" />
    <glyph glyph-name="eight" unicode="8" horiz-adv-x="556" 
d="M172 510q0 24 8.5 42t23.5 30t34.5 18.5t40.5 6.5q33 0 53.5 -10t32 -25t15.5 -31.5t4 -30.5q0 -45 -30 -68.5t-75 -23.5q-43 0 -75 23.5t-32 68.5zM43 523q0 -52 26 -91t77 -53v-2q-63 -15 -97.5 -60t-34.5 -112q0 -57 22.5 -98t60 -68t85 -39.5t98.5 -12.5
q49 0 96 13.5t84 40.5t59.5 68t22.5 97q0 66 -34 111.5t-97 59.5v2q51 17 76.5 56t25.5 91q0 26 -12 58.5t-39.5 61t-72.5 48.5t-110 20q-43 0 -85 -12t-75.5 -36t-54.5 -60t-21 -83zM156 212q0 54 36 82.5t88 28.5q25 0 46.5 -8t38 -23t26 -35.5t9.5 -45.5q0 -26 -9 -48
t-25.5 -37.5t-38 -24t-47.5 -8.5q-25 0 -48 8.5t-39.5 24t-26.5 37.5t-10 49z" />
    <glyph glyph-name="nine" unicode="9" horiz-adv-x="556" 
d="M270 337q-27 0 -47.5 11.5t-33.5 30t-19.5 42t-6.5 48.5q0 24 7 47t21 41t34 29t45 11q27 0 48 -11t35.5 -29.5t22 -42t7.5 -47.5q0 -26 -7 -49.5t-21 -41.5t-35 -28.5t-50 -10.5zM168 180h-135q6 -46 25 -82t49 -61t69 -37.5t84 -12.5q75 0 127 32.5t85 85t48 117.5
t15 130q0 66 -12 131t-43 116.5t-82.5 83t-131.5 31.5q-55 0 -100 -20t-77.5 -54.5t-50 -81t-17.5 -100.5q0 -42 13 -83t41 -73q30 -33 73 -52.5t88 -19.5q51 0 90 18t68 60l2 -2q-2 -29 -8.5 -66t-21.5 -69.5t-40 -55t-64 -22.5q-37 0 -62 26t-32 61z" />
    <glyph glyph-name="colon" unicode=":" horiz-adv-x="278" 
d="M218 354v154h-157v-154h157zM61 154v-154h157v154h-157z" />
    <glyph glyph-name="semicolon" unicode=";" horiz-adv-x="278" 
d="M218 354v154h-157v-154h157zM61 154v-154h72q1 -16 -4 -31.5t-15 -28t-23.5 -21.5t-28.5 -12v-72q32 5 60.5 18.5t49.5 34.5t33.5 49.5t12.5 62.5v154h-157z" />
    <glyph glyph-name="less" unicode="&#x3c;" horiz-adv-x="600" 
d="M554 399v115l-508 -202v-118l508 -201v114l-367 146z" />
    <glyph glyph-name="equal" unicode="=" horiz-adv-x="600" 
d="M553 92v107h-505v-107h505zM553 306v107h-505v-107h505z" />
    <glyph glyph-name="greater" unicode="&#x3e;" horiz-adv-x="600" 
d="M46 107v-114l508 201v118l-508 202v-115l367 -146z" />
    <glyph glyph-name="question" unicode="?" horiz-adv-x="556" 
d="M193 154v-154h157v154h-157zM32 484h147q0 27 6 50.5t18.5 41t32 28t46.5 10.5q40 0 62.5 -22t22.5 -68q1 -27 -9.5 -45t-27.5 -33t-37 -30t-38 -35.5t-31.5 -49.5t-16.5 -72v-45h135v38q4 30 19.5 50t35.5 35.5t42.5 31t41 37.5t31 53t12.5 79q0 29 -12.5 62.5
t-41.5 62.5t-76.5 48.5t-118.5 19.5q-55 0 -99.5 -18.5t-76 -51.5t-49 -78t-18.5 -99z" />
    <glyph glyph-name="at" unicode="@" horiz-adv-x="800" 
d="M559 287l63 258h-82l-16 -54q-17 39 -51 54.5t-66 15.5q-49 0 -89.5 -22t-69 -58t-44 -82t-15.5 -93q0 -35 12.5 -66t34 -54.5t50 -37t60.5 -13.5t61 14t47 44h2q2 -25 21.5 -41t51.5 -16q24 0 63.5 16.5t78 51.5t66 90t27.5 132q0 69 -29 125.5t-77 96t-111 61.5
t-131 22q-78 0 -147 -29t-121 -79t-82 -118.5t-30 -147.5q0 -80 30 -148.5t82.5 -118.5t122.5 -78t150 -28q94 0 174 41.5t131 119.5h-84q-39 -39 -95.5 -60.5t-119.5 -21.5q-64 0 -118.5 21t-93.5 59.5t-61 92t-22 119.5q0 63 20 117.5t57 94t89.5 62t116.5 22.5
q57 0 106.5 -16t86 -47.5t57.5 -77t21 -105.5q0 -40 -10.5 -74t-27 -58.5t-38 -38t-42.5 -13.5q-9 0 -13 6.5t-4 16.5t2.5 21.5t5.5 21.5zM291 319q0 25 9 51t25.5 47.5t39.5 35t50 13.5q32 0 54.5 -24t22.5 -61q0 -26 -9 -53t-25.5 -48.5t-39 -35.5t-49.5 -14
q-35 0 -56.5 24.5t-21.5 64.5z" />
    <glyph glyph-name="A" unicode="A" horiz-adv-x="685" 
d="M249 276l93 262h2l90 -262h-185zM264 714l-270 -714h158l56 159h267l54 -159h163l-267 714h-161z" />
    <glyph glyph-name="B" unicode="B" horiz-adv-x="704" 
d="M226 425v167h147q21 0 40.5 -3.5t34.5 -12.5t24 -25t9 -41q0 -45 -27 -65t-69 -20h-159zM69 714v-714h346q48 0 93.5 12t81 37t56.5 64.5t21 93.5q0 67 -32.5 114.5t-98.5 66.5q48 23 72.5 59t24.5 90q0 50 -16.5 84t-46.5 54.5t-72 29.5t-93 9h-336zM226 122v196h171
q51 0 82 -23.5t31 -78.5q0 -28 -9.5 -46t-25.5 -28.5t-37 -15t-44 -4.5h-168z" />
    <glyph glyph-name="C" unicode="C" horiz-adv-x="741" 
d="M545 474h152q-7 62 -34 110t-68.5 80.5t-94 49.5t-111.5 17q-82 0 -147.5 -29t-110.5 -80t-69 -119.5t-24 -148.5q0 -78 24 -145.5t69 -117.5t110.5 -78.5t147.5 -28.5q66 0 121 20t96 58t66 92t31 121h-152q-9 -72 -49.5 -116t-112.5 -44q-53 0 -90 20.5t-60 54.5
t-33.5 76.5t-10.5 87.5q0 47 10.5 91t33.5 78.5t60 55t90 20.5q29 0 55.5 -9.5t47.5 -26.5t35 -39.5t18 -49.5z" />
    <glyph glyph-name="D" unicode="D" horiz-adv-x="741" 
d="M226 132v450h112q58 0 97.5 -16.5t63.5 -47.5t34.5 -74.5t10.5 -97.5q0 -59 -15 -100t-40 -66.5t-57 -36.5t-66 -11h-140zM69 714v-714h308q82 0 142.5 27.5t101 75.5t60.5 114t20 144q0 89 -24.5 155t-68 110t-103 66t-128.5 22h-308z" />
    <glyph glyph-name="E" unicode="E" horiz-adv-x="648" 
d="M69 714v-714h542v132h-385v175h346v122h-346v153h377v132h-534z" />
    <glyph glyph-name="F" unicode="F" horiz-adv-x="593" 
d="M69 714v-714h157v295h299v122h-299v165h345v132h-502z" />
    <glyph glyph-name="G" unicode="G" horiz-adv-x="759" 
d="M585 81l16 -81h100v386h-300v-117h158q-7 -75 -49.5 -114.5t-120.5 -39.5q-53 0 -90 20.5t-60 54.5t-33.5 76.5t-10.5 87.5q0 47 10.5 91t33.5 78.5t60 55t90 20.5q57 0 97 -30t54 -90h150q-6 61 -33 108t-68.5 79t-93 48.5t-106.5 16.5q-82 0 -147.5 -29t-110.5 -80
t-69 -119.5t-24 -148.5q0 -78 24 -145.5t69 -117.5t110.5 -78.5t147.5 -28.5q52 0 103 21.5t93 75.5z" />
    <glyph glyph-name="H" unicode="H" horiz-adv-x="741" 
d="M69 714v-714h157v308h289v-308h157v714h-157v-274h-289v274h-157z" />
    <glyph glyph-name="I" unicode="I" horiz-adv-x="295" 
d="M69 714v-714h157v714h-157z" />
    <glyph glyph-name="J" unicode="J" horiz-adv-x="556" 
d="M487 225v489h-157v-482q0 -19 -1.5 -39.5t-9 -38t-24.5 -28.5t-48 -11q-28 0 -45.5 9t-27.5 24.5t-14 37.5t-4 48v32h-142v-62q0 -59 20 -100.5t53 -68t75 -39t87 -12.5q80 0 127 24.5t72 61t32 78.5t7 77z" />
    <glyph glyph-name="K" unicode="K" horiz-adv-x="722" 
d="M69 714v-714h157v230l90 91l215 -321h197l-306 432l279 282h-196l-279 -296v296h-157z" />
    <glyph glyph-name="L" unicode="L" horiz-adv-x="593" 
d="M69 714v-714h505v132h-348v582h-157z" />
    <glyph glyph-name="M" unicode="M" horiz-adv-x="907" 
d="M69 714v-714h147v501h2l175 -501h121l175 506h2v-506h147v714h-221l-158 -491h-2l-167 491h-221z" />
    <glyph glyph-name="N" unicode="N" horiz-adv-x="741" 
d="M69 714v-714h147v478h2l297 -478h157v714h-147v-479h-2l-298 479h-156z" />
    <glyph glyph-name="O" unicode="O" horiz-adv-x="778" 
d="M195 354q0 47 10.5 91t33.5 78.5t60 55t90 20.5t90 -20.5t60 -55t33.5 -78.5t10.5 -91q0 -45 -10.5 -87.5t-33.5 -76.5t-60 -54.5t-90 -20.5t-90 20.5t-60 54.5t-33.5 76.5t-10.5 87.5zM38 354q0 -78 24 -145.5t69 -117.5t110.5 -78.5t147.5 -28.5q83 0 148 28.5
t110 78.5t69 117.5t24 145.5q0 80 -24 148.5t-69 119.5t-110 80t-148 29q-82 0 -147.5 -29t-110.5 -80t-69 -119.5t-24 -148.5z" />
    <glyph glyph-name="P" unicode="P" horiz-adv-x="667" 
d="M226 378v214h122q27 0 52 -4t44 -15.5t30.5 -32.5t11.5 -55t-11.5 -55t-30.5 -32.5t-44 -15.5t-52 -4h-122zM69 714v-714h157v256h165q67 0 114 19.5t76.5 51.5t43 73.5t13.5 84.5q0 44 -13.5 85t-43 73t-76.5 51.5t-114 19.5h-322z" />
    <glyph glyph-name="Q" unicode="Q" horiz-adv-x="778" 
d="M458 264l-73 -78l67 -61q-8 -8 -27 -9t-36 -1q-53 0 -90 20.5t-60 54.5t-33.5 76.5t-10.5 87.5q0 47 10.5 91t33.5 78.5t60 55t90 20.5t90 -20.5t60 -55t33.5 -78.5t10.5 -91q0 -57 -12 -97t-32 -67zM663 -66l73 76l-89 81q45 51 69 118t24 145q0 80 -24 148.5t-69 119.5
t-110 80t-148 29q-82 0 -147.5 -29t-110.5 -80t-69 -119.5t-24 -148.5q0 -78 24 -145.5t69 -117.5t110.5 -78.5t147.5 -28.5q102 0 173 41z" />
    <glyph glyph-name="R" unicode="R" horiz-adv-x="722" 
d="M226 391v201h172q54 0 81 -23.5t27 -75.5q0 -54 -27 -78t-81 -24h-172zM69 714v-714h157v279h157q59 0 85 -26t34 -82q6 -43 9 -90t16 -81h157q-11 15 -16.5 36.5t-8 45.5t-3.5 47t-2 40q-2 27 -7.5 54t-17.5 49.5t-31 39t-48 24.5v2q60 24 86.5 70t26.5 109
q0 41 -14.5 76.5t-42 62.5t-66 42.5t-86.5 15.5h-385z" />
    <glyph glyph-name="S" unicode="S" horiz-adv-x="649" 
d="M176 237h-152q-1 -66 24 -114t67.5 -79t98 -45.5t114.5 -14.5q73 0 128.5 17t93 47.5t56.5 72.5t19 91q0 60 -25.5 98.5t-60.5 61.5t-70.5 33.5t-55.5 14.5l-109 28q-41 11 -64.5 22t-31.5 24t-8 34q0 23 10 38t25.5 25t34.5 14t38 4q29 0 53.5 -5t43.5 -17t30.5 -33
t13.5 -53h152q0 62 -23.5 105.5t-63.5 71.5t-91.5 40.5t-107.5 12.5q-48 0 -96 -13t-86 -40t-61.5 -67.5t-23.5 -95.5q0 -49 18.5 -83.5t48.5 -57.5t68 -37.5t78 -24.5q39 -11 77 -20t68 -21t48.5 -30t18.5 -47q0 -27 -14 -44.5t-35 -27.5t-45 -13.5t-45 -3.5q-31 0 -60 7.5
t-50.5 23t-34.5 40.5t-13 61z" />
    <glyph glyph-name="T" unicode="T" 
d="M227 582v-582h157v582h214v132h-585v-132h214z" />
    <glyph glyph-name="U" unicode="U" horiz-adv-x="741" 
d="M675 270v444h-157v-444q0 -80 -32 -117.5t-116 -37.5q-48 0 -76.5 13.5t-44.5 35t-21 49.5t-5 57v444h-157v-444q0 -146 79.5 -216t224.5 -70q143 0 224 70.5t81 215.5z" />
    <glyph glyph-name="V" unicode="V" horiz-adv-x="630" 
d="M401 0l237 714h-162l-161 -502h-2l-159 502h-161l231 -714h177z" />
    <glyph glyph-name="W" unicode="W" horiz-adv-x="944" 
d="M749 0l192 714h-154l-117 -492h-2l-122 492h-147l-124 -486h-2l-113 486h-157l189 -714h159l119 486h2l121 -486h156z" />
    <glyph glyph-name="X" unicode="X" horiz-adv-x="667" 
d="M244 374l-249 -374h176l159 247l156 -247h187l-249 373l229 341h-172l-145 -228l-140 228h-182z" />
    <glyph glyph-name="Y" unicode="Y" horiz-adv-x="667" 
d="M254 278v-278h157v274l265 440h-175l-166 -282l-167 282h-176z" />
    <glyph glyph-name="Z" unicode="Z" horiz-adv-x="648" 
d="M23 124v-124h602v132h-393l383 458v124h-562v-132h353z" />
    <glyph glyph-name="bracketleft" unicode="[" horiz-adv-x="333" 
d="M68 731v-912h264v112h-122v688h122v112h-264z" />
    <glyph glyph-name="backslash" unicode="\" horiz-adv-x="371" 
d="M382 -16l-279 747h-113l278 -747h114z" />
    <glyph glyph-name="backslash" unicode="&#x29f5;" horiz-adv-x="371" 
d="M382 -16l-279 747h-113l278 -747h114z" />
    <glyph glyph-name="bracketright" unicode="]" horiz-adv-x="333" 
d="M265 -181v912h-264v-112h122v-688h-122v-112h264z" />
    <glyph glyph-name="asciicircum" unicode="^" horiz-adv-x="600" 
d="M233 700l-172 -385h117l122 275l122 -275h117l-172 385h-134z" />
    <glyph glyph-name="underscore" unicode="_" horiz-adv-x="500" 
d="M0 -74v-50h500v50h-500z" />
    <glyph glyph-name="grave" unicode="`" horiz-adv-x="259" 
d="M109 723l96 -142h-99l-153 142h156z" />
    <glyph glyph-name="a" unicode="a" horiz-adv-x="574" 
d="M48 358h142q4 42 28 60t66 18q19 0 35.5 -2.5t29 -10t20 -21t7.5 -36.5q1 -22 -13 -33.5t-38 -17.5t-55 -9t-63 -8t-63.5 -13.5t-56 -25.5t-40 -45.5t-15.5 -72.5q0 -40 13.5 -69t37.5 -48t56 -28t69 -9q48 0 94 14t80 49q1 -13 3.5 -25.5t6.5 -24.5h144q-10 16 -14 48
t-4 67v269q0 47 -21 75.5t-54 44.5t-73 21.5t-79 5.5q-43 0 -85.5 -8.5t-76.5 -28.5t-56 -53t-25 -83zM376 253v-53q0 -12 -2.5 -32t-13.5 -39.5t-34 -33.5t-65 -14q-17 0 -33 3t-28 10.5t-19 20.5t-7 32q0 20 7 33t18.5 21.5t27 13.5t31.5 8q17 3 34 5t32.5 5t29 7.5
t22.5 12.5z" />
    <glyph glyph-name="b" unicode="b" 
d="M433 258q0 -32 -7 -62t-22 -53t-37.5 -36.5t-54.5 -13.5q-31 0 -54 13.5t-38 36.5t-22 53t-7 62q0 33 7 63t22 53t38 36.5t54 13.5q32 0 54.5 -13.5t37.5 -36.5t22 -53t7 -63zM54 714v-714h135v66h2q23 -43 68 -61t102 -18q39 0 77 16t68.5 49t49.5 84.5t19 122.5
t-19 122.5t-49.5 84.5t-68.5 49t-77 16q-48 0 -92.5 -18.5t-70.5 -58.5h-2v260h-142z" />
    <glyph glyph-name="c" unicode="c" horiz-adv-x="574" 
d="M406 335h139q-3 50 -24 86.5t-54.5 61t-76 36.5t-88.5 12q-63 0 -112 -21t-83 -58.5t-51.5 -89t-17.5 -111.5q0 -58 19 -106.5t53 -83.5t82.5 -54.5t106.5 -19.5q103 0 169 54t80 157h-137q-7 -48 -34.5 -76.5t-78.5 -28.5q-33 0 -56 15t-36.5 38.5t-19.5 52.5t-6 57
q0 29 6 58.5t20.5 54t37.5 40t57 15.5q91 0 105 -89z" />
    <glyph glyph-name="d" unicode="d" 
d="M421 260q0 -32 -6 -62t-20 -53.5t-37.5 -37.5t-58.5 -14q-33 0 -56.5 14.5t-39 38t-22.5 53.5t-7 60q0 32 6.5 61.5t21 52.5t38.5 37t59 14t58 -14t37.5 -36.5t20.5 -52t6 -61.5zM423 66v-66h135v714h-142v-260h-2q-24 38 -65.5 57.5t-87.5 19.5q-57 0 -100 -22.5
t-71.5 -59.5t-43 -85.5t-14.5 -100.5q0 -54 14.5 -104t43 -88.5t72.5 -61t102 -22.5q51 0 91.5 18.5t65.5 60.5h2z" />
    <glyph glyph-name="e" unicode="e" horiz-adv-x="574" 
d="M402 314h-231q1 15 6.5 34t19 36t36 28.5t56.5 11.5q52 0 77.5 -28t35.5 -82zM171 224h373q4 60 -10 115t-45.5 98t-80.5 68.5t-115 25.5q-59 0 -107.5 -21t-83.5 -57.5t-54 -86.5t-19 -108q0 -60 18.5 -110t52.5 -86t83 -55.5t110 -19.5q88 0 150 40t92 133h-125
q-7 -24 -38 -45.5t-74 -21.5q-60 0 -92 31t-35 100z" />
    <glyph glyph-name="f" unicode="f" horiz-adv-x="333" 
d="M85 422v-422h142v422h98v95h-98v31q0 32 12.5 45.5t41.5 13.5q27 0 52 -3v106q-18 1 -37 2.5t-38 1.5q-87 0 -130 -44t-43 -113v-40h-85v-95h85z" />
    <glyph glyph-name="g" unicode="g" 
d="M295 122q-33 0 -55 14t-35.5 36t-19 49.5t-5.5 55.5q0 29 6.5 55.5t21 47t36 32.5t51.5 12q35 0 58 -13t37 -35t20 -50.5t6 -60.5q0 -28 -7.5 -53.5t-22.5 -45.5t-38 -32t-53 -12zM551 33v484h-135v-69h-2q-26 45 -64.5 64t-89.5 19q-54 0 -95.5 -21t-69.5 -56.5
t-42.5 -82t-14.5 -96.5q0 -53 12.5 -100.5t39.5 -83t69 -56t100 -20.5q47 0 89.5 19.5t65.5 60.5h2v-68q1 -55 -26.5 -91t-87.5 -36q-38 0 -67 15.5t-39 55.5h-141q3 -44 24.5 -75.5t54 -51.5t72 -29.5t77.5 -9.5q89 0 142 24t81 58.5t36.5 74.5t8.5 71z" />
    <glyph glyph-name="h" unicode="h" horiz-adv-x="593" 
d="M54 714v-714h142v271q0 79 26 113.5t84 34.5q51 0 71 -31.5t20 -95.5v-292h142v318q0 48 -8.5 87.5t-29.5 67t-57.5 43t-93.5 15.5q-40 0 -82 -20.5t-69 -65.5h-3v269h-142z" />
    <glyph glyph-name="i" unicode="i" horiz-adv-x="258" 
d="M200 597v117h-142v-117h142zM58 517v-517h142v517h-142z" />
    <glyph glyph-name="j" unicode="j" horiz-adv-x="278" 
d="M209 597v117h-142v-117h142zM-18 -60v-117q20 -4 45 -4q54 0 89 9.5t55.5 29t29 48.5t8.5 69v542h-142v-535q0 -29 -16.5 -37.5t-38.5 -8.5q-19 0 -30 4z" />
    <glyph glyph-name="k" unicode="k" horiz-adv-x="574" 
d="M67 714v-714h142v178l55 53l142 -231h172l-217 327l195 190h-168l-179 -186v383h-142z" />
    <glyph glyph-name="l" unicode="l" horiz-adv-x="258" 
d="M58 714v-714h142v714h-142z" />
    <glyph glyph-name="m" unicode="m" horiz-adv-x="906" 
d="M58 517v-517h142v300q0 38 11 61.5t26.5 36t32 17t26.5 4.5q34 0 51.5 -11.5t25 -30.5t8.5 -41.5t1 -45.5v-290h142v288q0 24 3.5 47.5t14 42t29 30t48.5 11.5t47.5 -10t26.5 -27t11 -40t2 -49v-293h142v346q0 50 -14 85.5t-39 57.5t-60 32t-76 10q-54 0 -93.5 -26
t-62.5 -60q-21 48 -61.5 67t-89.5 19q-51 0 -90.5 -22t-67.5 -62h-2v70h-134z" />
    <glyph glyph-name="n" unicode="n" horiz-adv-x="593" 
d="M54 517v-517h142v271q0 79 26 113.5t84 34.5q51 0 71 -31.5t20 -95.5v-292h142v318q0 48 -8.5 87.5t-29.5 67t-57.5 43t-93.5 15.5q-45 0 -88 -20.5t-70 -65.5h-3v72h-135z" />
    <glyph glyph-name="o" unicode="o" 
d="M180 258q0 31 6 61t20.5 53t38.5 37.5t60 14.5t60.5 -14.5t39 -37.5t20.5 -53t6 -61t-6 -60.5t-20.5 -53t-39 -37.5t-60.5 -14t-60 14t-38.5 37.5t-20.5 53t-6 60.5zM38 258q0 -62 19 -112t54 -85.5t84 -54.5t110 -19t110.5 19t84.5 54.5t54 85.5t19 112t-19 112.5
t-54 86t-84.5 55t-110.5 19.5t-110 -19.5t-84 -55t-54 -86t-19 -112.5z" />
    <glyph glyph-name="p" unicode="p" 
d="M315 93q-34 0 -58 14t-38.5 36.5t-21 52.5t-6.5 61q0 32 6 62t20.5 53t38 37.5t58.5 14.5q34 0 57.5 -14.5t38.5 -38t21.5 -53.5t6.5 -61t-6 -61t-20.5 -52.5t-38 -36.5t-58.5 -14zM54 517v-698h142v245h2q26 -38 66.5 -57.5t88.5 -19.5q57 0 99.5 22t71 59t42.5 85
t14 100q0 55 -14 105.5t-43 88.5t-73 61t-105 23q-48 0 -88 -19t-66 -61h-2v66h-135z" />
    <glyph glyph-name="q" unicode="q" 
d="M174 258q0 32 6.5 61.5t21.5 53t39 37.5t59 14q33 0 56.5 -15t37.5 -39t20.5 -54t6.5 -60q0 -32 -6.5 -61.5t-21 -52t-38 -36t-58.5 -13.5t-58.5 14t-38 37.5t-20.5 53t-6 60.5zM558 -181v698h-135v-66h-2q-24 43 -66.5 61.5t-90.5 18.5q-59 0 -102.5 -23t-72.5 -61.5
t-43 -88.5t-14 -103q0 -75 21 -126.5t53 -83t70.5 -45t74.5 -13.5q48 0 93 18t70 60h2v-246h142z" />
    <glyph glyph-name="r" unicode="r" horiz-adv-x="389" 
d="M54 517v-517h142v233q0 35 7 65t23.5 52.5t43.5 35.5t66 13q13 0 27 -1.5t24 -3.5v132q-17 5 -31 5q-27 0 -52 -8t-47 -22.5t-39 -35t-27 -44.5h-2v96h-135z" />
    <glyph glyph-name="s" unicode="s" horiz-adv-x="537" 
d="M164 168h-135q2 -52 23.5 -86.5t55 -55.5t76.5 -30t88 -9q44 0 86.5 8.5t75.5 29.5t53.5 55.5t20.5 85.5q0 36 -14 60.5t-37 41t-52.5 26.5t-60.5 17q-30 7 -59 13t-51.5 13.5t-36.5 19.5t-14 31q0 16 8 25.5t19.5 14.5t25.5 6.5t26 1.5q38 0 66 -14.5t31 -55.5h135
q-4 48 -24.5 79.5t-51.5 50.5t-70.5 27t-81.5 8t-82 -7.5t-72 -26t-51.5 -50.5t-19.5 -82q0 -34 14 -57.5t37 -39t52.5 -25t60.5 -16.5q76 -16 118.5 -32t42.5 -48q0 -19 -9 -31.5t-22.5 -20t-30 -11t-31.5 -3.5q-21 0 -40.5 5t-34.5 15.5t-24.5 27t-9.5 39.5z" />
    <glyph glyph-name="t" unicode="t" horiz-adv-x="352" 
d="M234 517v155h-142v-155h-86v-95h86v-305q0 -39 13 -63t35.5 -37t52 -17.5t62.5 -4.5q21 0 43 1t40 4v110q-10 -2 -21 -3t-23 -1q-36 0 -48 12t-12 48v256h104v95h-104z" />
    <glyph glyph-name="u" unicode="u" horiz-adv-x="593" 
d="M539 0v517h-142v-271q0 -79 -26 -113.5t-84 -34.5q-51 0 -71 31.5t-20 95.5v292h-142v-318q0 -48 8.5 -87.5t29.5 -67t57.5 -42.5t93.5 -15q45 0 88 20t70 65h3v-72h135z" />
    <glyph glyph-name="v" unicode="v" horiz-adv-x="520" 
d="M340 0l175 517h-141l-109 -353h-2l-109 353h-149l177 -517h158z" />
    <glyph glyph-name="w" unicode="w" horiz-adv-x="814" 
d="M645 0l163 517h-146l-95 -350h-2l-88 350h-138l-86 -351h-2l-95 351h-150l164 -517h147l88 347h2l92 -347h146z" />
    <glyph glyph-name="x" unicode="x" horiz-adv-x="537" 
d="M186 272l-186 -272h159l108 163l108 -163h162l-191 275l170 242h-157l-90 -135l-91 135h-162z" />
    <glyph glyph-name="y" unicode="y" horiz-adv-x="519" 
d="M309 -64l216 581h-147l-113 -354h-2l-117 354h-151l181 -485q6 -15 6 -32q0 -23 -13.5 -42t-41.5 -22q-21 -1 -42 1l-41 4v-117q22 -2 43.5 -3.5t43.5 -1.5q73 0 114 27t64 90z" />
    <glyph glyph-name="z" unicode="z" horiz-adv-x="519" 
d="M22 107v-107h475v107h-288l269 303v107h-436v-107h249z" />
    <glyph glyph-name="braceleft" unicode="{" horiz-adv-x="333" 
d="M333 619v112h-127q-17 0 -38.5 -8.5t-40 -25t-31.5 -42t-13 -59.5v-188q0 -25 -10 -42.5t-24 -28t-30 -15t-27 -4.5v-87q11 0 27 -4.5t30 -14t24 -25.5t10 -39v-194q0 -34 13 -59.5t31.5 -42t40 -25t38.5 -8.5h127v112h-54q-18 0 -28.5 7t-16.5 17.5t-7.5 23.5t-1.5 24
v160q0 32 -11.5 52.5t-27 33t-32.5 18t-28 6.5v3q11 1 28 6t32.5 17.5t27 35t11.5 59.5v152q0 12 1.5 25t7.5 23.5t16.5 17.5t28.5 7h54z" />
    <glyph glyph-name="bar" unicode="|" horiz-adv-x="223" 
d="M58 786v-999h107v999h-107z" />
    <glyph glyph-name="braceright" unicode="}" horiz-adv-x="333" 
d="M0 -69v-112h127q17 0 38.5 8.5t40 25t31.5 42t13 59.5v194q0 23 10 39t24 25.5t30 14t28 4.5v87q-12 0 -28 4.5t-30 15t-24 28t-10 42.5v188q0 34 -13 59.5t-31.5 42t-40 25t-38.5 8.5h-127v-112h54q18 0 28.5 -7t16.5 -17.5t7.5 -23.5t1.5 -25v-152q0 -37 11.5 -59.5
t27 -35t32.5 -17.5t28 -6v-3q-11 -1 -28 -6.5t-32.5 -18t-27 -33t-11.5 -52.5v-160q0 -11 -1.5 -24t-7.5 -23.5t-16.5 -17.5t-28.5 -7h-54z" />
    <glyph glyph-name="asciitilde" unicode="~" horiz-adv-x="600" 
d="M533 251l-40 93l-18 -26q-9 -13 -19.5 -23t-23 -16.5t-27.5 -6.5q-20 0 -47 12l-55 24q-29 13 -57 22.5t-54 9.5q-25 0 -44.5 -7.5t-35 -19.5t-26.5 -27.5t-19 -31.5l40 -93q6 13 13.5 26t18 23t23.5 16.5t29 6.5q35 0 63 -10.5t52 -24.5q25 -14 49.5 -23.5t52.5 -9.5
q23 0 41.5 7.5t33.5 19.5t27 27.5t23 31.5z" />
    <glyph glyph-name="nonbreakingspace" unicode="&#xa0;" horiz-adv-x="278" 
 />
    <glyph glyph-name="exclamdown" unicode="&#xa1;" horiz-adv-x="278" 
d="M65 9v-191h148v191l-38 308h-71zM218 377v154h-157v-154h157z" />
    <glyph glyph-name="cent" unicode="&#xa2;" horiz-adv-x="556" 
d="M260 -13v-101h59v101q46 4 85.5 20t69.5 43.5t48.5 66t22.5 86.5h-139q0 -19 -7 -37.5t-18.5 -33.5t-27.5 -25.5t-34 -13.5v331q34 -3 58 -28.5t27 -61.5h139q-2 45 -21.5 81.5t-51 62t-71 39.5t-80.5 14v85h-59v-85q-58 -5 -102.5 -28t-75 -60.5t-46 -86.5t-15.5 -106
q0 -53 17 -99.5t48.5 -82t75.5 -57t98 -24.5zM260 423v-330q-28 9 -46.5 26.5t-29.5 41t-16 50t-5 53.5q0 26 5 51.5t16.5 47t30 37.5t45.5 23z" />
    <glyph glyph-name="sterling" unicode="&#xa3;" horiz-adv-x="556" 
d="M26 76l62 -92q29 22 58.5 29.5t56.5 7.5q33 0 55 -6t44 -14q21 -7 46 -12t63 -5t79 14t77 49l-60 101q-27 -29 -47.5 -36t-40.5 -7t-39 3.5t-39 8.5q-20 4 -39.5 7.5t-39.5 3.5q-14 0 -29 -4t-39 -19l-2 2q33 26 57.5 59.5t24.5 80.5q0 17 -1.5 32t-6.5 30h105v85h-133
q-15 27 -23.5 46t-12 33.5t-4.5 25.5t-1 23q0 42 26.5 67t71.5 25q38 0 59.5 -15.5t32 -36.5t13.5 -43.5t4 -37.5h135q0 122 -64 186t-179 64q-63 0 -111 -16t-80 -43.5t-48.5 -63.5t-16.5 -76q0 -45 15 -82t30 -56h-64v-85h99q8 -17 13.5 -33.5t5.5 -33.5q0 -27 -10 -51.5
t-25.5 -45.5t-36 -38.5t-41.5 -30.5z" />
    <glyph glyph-name="currency" unicode="&#xa4;" horiz-adv-x="556" 
d="M280 491q30 0 53 -12t38 -31.5t22.5 -45t7.5 -51.5q0 -27 -7.5 -52.5t-22.5 -45.5t-38 -32t-54 -12t-54.5 11.5t-39.5 31t-24 45t-8 52.5q0 28 8 53.5t24 45t40 31.5t55 12zM77 207l-57 -58l56 -56l56 58q26 -24 64 -36.5t83 -12.5q42 0 80 13t63 37l57 -58l55 55l-55 56
q23 28 34.5 66t11.5 80t-11.5 80.5t-33.5 62.5l56 55l-61 61l-58 -57q-23 20 -60 32.5t-77 12.5q-42 0 -81.5 -12.5t-64.5 -33.5l-57 56l-57 -57l57 -58q-25 -25 -36.5 -63.5t-11.5 -80.5q0 -86 48 -142z" />
    <glyph glyph-name="yen" unicode="&#xa5;" horiz-adv-x="556" 
d="M207 0h152v138h158v95h-158v46l15 29h143v95h-95l155 311h-162l-129 -311l-132 311h-162l153 -311h-95v-95h143l14 -29v-46h-157v-95h157v-138z" />
    <glyph glyph-name="brokenbar" unicode="&#xa6;" horiz-adv-x="223" 
d="M165 411v250h-107v-250h107zM58 161v-249h107v249h-107z" />
    <glyph glyph-name="section" unicode="&#xa7;" horiz-adv-x="556" 
d="M370 538h124q0 47 -16.5 82.5t-45 60.5t-67 37.5t-82.5 12.5q-38 0 -75.5 -11t-67 -33t-48 -54.5t-18.5 -74.5q0 -32 11 -55t32 -46q-51 -18 -79 -55t-28 -91q0 -49 26 -84t65 -61t84 -45.5t83 -38.5t63 -40t24 -50q0 -33 -21.5 -49.5t-52.5 -16.5q-45 0 -70.5 21.5
t-27.5 64.5h-124q0 -50 17 -86.5t47.5 -60t71.5 -35t89 -11.5q38 0 76 10.5t68.5 31.5t49.5 52.5t19 73.5q0 35 -13 65t-42 52q48 17 76 56t28 90q0 47 -24.5 80.5t-61.5 59t-81 44.5t-81.5 38t-62.5 39.5t-26 48.5q0 30 24.5 47t51.5 17q40 0 62.5 -24.5t22.5 -61.5z
M212 380l165 -93q18 -10 31.5 -25t13.5 -38q0 -8 -3.5 -17.5t-9.5 -18t-14.5 -14t-18.5 -5.5q-9 0 -17 2.5t-13 4.5l-180 98q-17 9 -24.5 22t-7.5 27q0 11 4 22.5t10.5 21t16 16t20.5 7.5q8 1 14.5 -3t12.5 -7z" />
    <glyph glyph-name="dieresis" unicode="&#xa8;" horiz-adv-x="259" 
d="M94 714v-117h-134v117h134zM300 714v-117h-135v117h135z" />
    <glyph glyph-name="copyright" unicode="&#xa9;" horiz-adv-x="800" 
d="M596 295h-81q-5 -36 -32 -57t-69 -21q-27 0 -49 11.5t-37.5 31t-24 46t-8.5 55.5q0 63 30 102.5t87 39.5q39 0 67 -20t36 -55h78q-5 38 -21 67t-40 48.5t-54.5 29.5t-65.5 10q-50 0 -89.5 -17t-67 -47t-42 -71t-14.5 -89q0 -47 15.5 -87.5t43.5 -70.5t67.5 -47t88.5 -17
q33 0 63.5 10.5t55 31t41 50t22.5 66.5zM118 357q0 64 22 118t60 93t89.5 61t110.5 22q58 0 109.5 -22t89.5 -61t60.5 -93t22.5 -118t-22.5 -118t-60.5 -93t-89.5 -61t-109.5 -22q-59 0 -110.5 22t-89.5 61t-60 93t-22 118zM16 357q0 -85 31.5 -154t84.5 -118t122.5 -75
t145.5 -26t145.5 26t122.5 75t84.5 118t31.5 154q0 86 -31.5 155t-84.5 117.5t-122.5 75t-145.5 26.5t-145.5 -26.5t-122.5 -75t-84.5 -117.5t-31.5 -155z" />
    <glyph glyph-name="ordfeminine" unicode="&#xaa;" horiz-adv-x="344" 
d="M20 605h102q2 23 17 33.5t32 10.5q25 0 42.5 -6.5t17.5 -32.5q0 -12 -8.5 -18.5t-22.5 -10t-33.5 -5t-42.5 -4.5q-21 -3 -41.5 -8t-36.5 -15.5t-26 -28t-10 -45.5q0 -53 32.5 -76.5t79.5 -23.5q27 0 56.5 8.5t51.5 31.5q1 -8 3 -15l4 -16h101q-12 23 -12 75v166
q0 28 -13.5 45.5t-35 27t-48.5 13t-53 3.5q-28 0 -54 -5t-47 -17t-35.5 -33t-19.5 -54zM230 535v-20q0 -12 -2 -25t-9.5 -24t-22 -18.5t-39.5 -7.5q-14 0 -29.5 7.5t-15.5 29.5q0 19 15 27t36 13q15 3 35.5 5.5t31.5 12.5z" />
    <glyph glyph-name="guillemotleft" unicode="&#xab;" horiz-adv-x="444" 
d="M42 205l157 -125v120l-90 72l90 71v120l-157 -123v-135zM245 205l157 -125v120l-90 72l90 71v120l-157 -123v-135z" />
    <glyph glyph-name="logicalnot" unicode="&#xac;" horiz-adv-x="600" 
d="M552 99v307h-504v-107h397v-200h107z" />
    <glyph glyph-name="uni00AD" unicode="&#xad;" horiz-adv-x="407" 
d="M53 334h301v-122h-301v122z" />
    <glyph glyph-name="registered" unicode="&#xae;" horiz-adv-x="800" 
d="M334 393v110h70q14 0 29.5 -2t28 -7.5t20.5 -15.5t8 -27q0 -38 -23 -48t-59 -10h-74zM251 568v-419h83v179h52l102 -179h87l-112 183q23 2 43 9t35 20t23.5 33.5t8.5 49.5q0 68 -42.5 96t-121.5 28h-158zM118 358q0 64 22 117.5t60 92.5t89.5 61t110.5 22q58 0 109.5 -22
t89.5 -61t60.5 -92.5t22.5 -117.5t-22.5 -118t-60.5 -93.5t-89.5 -61.5t-109.5 -22q-59 0 -110.5 22t-89.5 61.5t-60 93.5t-22 118zM16 358q0 -86 31.5 -155t84.5 -118t122.5 -75t145.5 -26t145.5 26t122.5 75t84.5 118t31.5 155q0 85 -31.5 154t-84.5 117.5t-122.5 75
t-145.5 26.5t-145.5 -26.5t-122.5 -75t-84.5 -117.5t-31.5 -154z" />
    <glyph glyph-name="macron" unicode="&#xaf;" horiz-adv-x="259" 
d="M316 691v-75h-372v75h372z" />
    <glyph glyph-name="degree" unicode="&#xb0;" horiz-adv-x="400" 
d="M117 566q0 18 7 34t18.5 28t26.5 19t31 7t31 -7t26.5 -19t18.5 -28t7 -34t-7 -34t-18.5 -28t-26.5 -19t-31 -7t-31 7t-26.5 19t-18.5 28t-7 34zM52 566q0 -31 11.5 -58t31.5 -47t47 -31.5t58 -11.5t58 11.5t47 31.5t31.5 47t11.5 58t-11.5 58t-31.5 47t-47 31.5t-58 11.5
t-58 -11.5t-47 -31.5t-31.5 -47t-11.5 -58z" />
    <glyph glyph-name="plusminus" unicode="&#xb1;" horiz-adv-x="600" 
d="M48 107v-107h505v107h-505zM354 375v131h-107v-131h-199v-107h199v-131h107v131h199v107h-199z" />
    <glyph glyph-name="twosuperior" unicode="&#xb2;" horiz-adv-x="392" 
d="M28 540h102q-1 15 2.5 31.5t12 30.5t22.5 23t35 9q28 0 44.5 -18t16.5 -44q0 -19 -9.5 -34t-24 -27t-31.5 -22l-31 -20q-29 -18 -54.5 -36t-44.5 -40.5t-30 -51t-11 -68.5h334v80h-209q26 34 62 56l70 43q34 22 57.5 50.5t23.5 76.5q0 33 -12.5 58.5t-34 42.5t-49.5 25.5
t-60 8.5q-92 0 -137 -48.5t-44 -125.5z" />
    <glyph glyph-name="threesuperior" unicode="&#xb3;" horiz-adv-x="392" 
d="M164 534v-70q17 0 35 -1t33.5 -6t25.5 -17t10 -33q0 -28 -21.5 -45.5t-51.5 -17.5q-38 0 -56.5 24t-20.5 56h-96q-2 -78 46 -119t129 -41q35 0 66.5 9t55 27.5t37.5 45.5t14 63q0 35 -21.5 61t-59.5 33v2q33 8 49.5 32t16.5 54q0 31 -13.5 54t-36 38.5t-51 23t-58.5 7.5
q-75 0 -117.5 -41t-44.5 -111h96q-1 30 17 51t50 21q24 0 43 -14t19 -39q0 -18 -9.5 -27.5t-24 -14t-31 -5t-30.5 -0.5z" />
    <glyph glyph-name="acute" unicode="&#xb4;" horiz-adv-x="259" 
d="M54 581l96 142h157l-154 -142h-99z" />
    <glyph glyph-name="mu" unicode="&#xb5;" horiz-adv-x="593" 
d="M539 0v517h-142v-271q0 -79 -26 -113.5t-84 -34.5q-51 0 -71 31.5t-20 95.5v292h-142v-698h142v191q9 -10 27 -16.5t48 -6.5q12 0 28.5 5t34.5 15.5t35.5 26.5t31.5 38h3v-72h135z" />
    <glyph glyph-name="paragraph" unicode="&#xb6;" horiz-adv-x="620" 
d="M221 357v-522h102v799h110v-799h102v879h-293q-52 0 -96 -9t-76 -30t-50 -56t-18 -87q0 -81 56.5 -128t162.5 -47z" />
    <glyph glyph-name="periodcentered" unicode="&#xb7;" horiz-adv-x="278" 
d="M55 287q0 -17 7 -32.5t18.5 -27t27 -18t33.5 -6.5q17 0 32 7t26 19t18 27t7 31q0 18 -7 33.5t-18.5 27t-26.5 18t-32 6.5q-34 0 -59.5 -24.5t-25.5 -60.5z" />
    <glyph glyph-name="cedilla" unicode="&#xb8;" horiz-adv-x="259" 
d="M33 -147l-21 -48q14 -5 26.5 -9t26 -7t30.5 -4.5t41 -1.5q22 0 43 4.5t37.5 16t26.5 31t10 48.5q0 18 -8 31.5t-21 22t-29.5 12.5t-33.5 4q-22 0 -34 -5h-2l39 54h-49l-59 -84l21 -24q18 7 40 7q17 0 28.5 -6.5t11.5 -25.5q0 -18 -11 -26t-29 -8q-26 0 -47 5.5t-37 12.5z
" />
    <glyph glyph-name="onesuperior" unicode="&#xb9;" horiz-adv-x="392" 
d="M289 273v432h-84q-3 -24 -14.5 -40.5t-29 -26t-39 -13.5t-45.5 -3v-75h110v-274h102z" />
    <glyph glyph-name="ordmasculine" unicode="&#xba;" horiz-adv-x="367" 
d="M119 544q0 17 3.5 34t11.5 30.5t20 22t29 8.5t29.5 -8.5t20.5 -22t11.5 -30.5t3.5 -34q0 -16 -3.5 -33t-11.5 -30.5t-20.5 -22t-29.5 -8.5t-29 8.5t-20 22t-11.5 30.5t-3.5 33zM12 544q0 -79 46.5 -124t124.5 -45t125 45t47 124t-47 124.5t-125 45.5t-124.5 -45.5
t-46.5 -124.5z" />
    <glyph glyph-name="guillemotright" unicode="&#xbb;" horiz-adv-x="444" 
d="M199 340l-157 123v-120l90 -71l-90 -72v-120l157 125v135zM402 340l-157 123v-120l90 -71l-90 -72v-120l157 125v135z" />
    <glyph glyph-name="onequarter" unicode="&#xbc;" horiz-adv-x="892" 
d="M689 313v-144h-116l114 144h2zM689 89v-89h96v89h57v80h-57v251h-100l-188 -238v-93h192zM236 273v432h-84q-3 -24 -14.5 -40.5t-29 -26t-39 -13.5t-45.5 -3v-75h110v-274h102zM566 722l-414 -743h87l412 743h-85z" />
    <glyph glyph-name="onehalf" unicode="&#xbd;" horiz-adv-x="889" 
d="M509 267h102q-1 15 2.5 31.5t12 30.5t22.5 23t35 9q28 0 44.5 -18t16.5 -44q0 -19 -9.5 -34t-24 -27t-30.5 -22l-32 -20q-29 -18 -54.5 -36t-44.5 -40.5t-30 -51t-11 -68.5h334v80h-209q26 34 62 55l70 44q34 22 57.5 50.5t23.5 76.5q0 33 -12.5 58.5t-34 42.5
t-49.5 25.5t-60 8.5q-92 0 -137 -48.5t-44 -125.5zM236 273v432h-84q-3 -24 -14.5 -40.5t-29 -26t-39 -13.5t-45.5 -3v-75h110v-274h102zM566 722l-414 -743h87l412 743h-85z" />
    <glyph glyph-name="threequarters" unicode="&#xbe;" horiz-adv-x="889" 
d="M709 313v-144h-116l114 144h2zM709 89v-89h96v89h57v80h-57v251h-100l-188 -238v-93h192zM181 534v-70q17 0 35 -1t33.5 -6t25.5 -17t10 -33q0 -28 -21.5 -45.5t-51.5 -17.5q-38 0 -56.5 24t-20.5 56h-96q-2 -78 46 -119t129 -41q35 0 66.5 9t55 27.5t37.5 45.5t14 63
q0 35 -21.5 61t-59.5 33v2q33 8 49.5 32t16.5 54q0 31 -13.5 54t-36 38.5t-51 23t-58.5 7.5q-75 0 -117.5 -41t-44.5 -111h96q-1 30 17 51t50 21q24 0 43 -14t19 -39q0 -18 -9.5 -27.5t-24 -14t-31 -5t-30.5 -0.5zM653 722l-414 -743h87l412 743h-85z" />
    <glyph glyph-name="questiondown" unicode="&#xbf;" horiz-adv-x="556" 
d="M363 377v154h-157v-154h157zM522 51h-147q0 -26 -6 -49.5t-18.5 -41t-31.5 -28t-45 -10.5q-40 0 -62.5 22t-22.5 67q-1 27 9.5 45t27.5 33t37 30t38 35.5t31.5 49.5t16.5 72v45h-135v-38q-4 -30 -19 -50t-35.5 -36t-42.5 -31t-41 -37t-31.5 -53t-12.5 -78
q0 -29 12.5 -62.5t41.5 -62.5t77 -48.5t118 -19.5q54 0 98 18.5t75.5 51.5t49 78t18.5 98z" />
    <glyph glyph-name="Agrave" unicode="&#xc0;" horiz-adv-x="685" 
d="M165 920l154 -142h99l-96 142h-157zM249 276l93 262h2l90 -262h-185zM264 714l-270 -714h158l56 159h267l54 -159h163l-267 714h-161z" />
    <glyph glyph-name="Aacute" unicode="&#xc1;" horiz-adv-x="685" 
d="M366 778l154 142h-157l-96 -142h99zM249 276l93 262h2l90 -262h-185zM264 714l-270 -714h158l56 159h267l54 -159h163l-267 714h-161z" />
    <glyph glyph-name="Acircumflex" unicode="&#xc2;" horiz-adv-x="685" 
d="M278 920l-111 -142h108l64 81l62 -81h117l-110 142h-130zM249 276l93 262h2l90 -262h-185zM264 714l-270 -714h158l56 159h267l54 -159h163l-267 714h-161z" />
    <glyph glyph-name="Atilde" unicode="&#xc3;" horiz-adv-x="685" 
d="M526 911h-69q1 -14 -9 -24.5t-33 -10.5q-17 0 -33.5 5.5t-32.5 12.5l-31 12q-16 5 -33 5q-33 0 -55 -11t-36 -28.5t-22 -39t-13 -43.5h61q5 19 13.5 30.5t28.5 11.5q17 0 34 -5t36 -12q19 -6 39 -11.5t43 -5.5q30 0 49.5 11.5t32 28.5t19 37t11.5 37zM249 276l93 262h2
l90 -262h-185zM264 714l-270 -714h158l56 159h267l54 -159h163l-267 714h-161z" />
    <glyph glyph-name="Adieresis" unicode="&#xc4;" horiz-adv-x="685" 
d="M172 911v-117h135v117h-135zM378 911v-117h135v117h-135zM249 276l93 262h2l90 -262h-185zM264 714l-270 -714h158l56 159h267l54 -159h163l-267 714h-161z" />
    <glyph glyph-name="Aring.low" unicode="&#xc5;" horiz-adv-x="685" 
d="M219 833q0 26 9.5 48t26 38.5t39 26t47.5 9.5q26 0 48 -9.5t39 -26t26.5 -38.5t9.5 -48q0 -25 -9.5 -47.5t-26.5 -39t-39 -26t-48 -9.5q-25 0 -47.5 9.5t-39 26t-26 39t-9.5 47.5zM278 833q0 -29 17 -49.5t46 -20.5t46.5 20.5t17.5 49.5t-17.5 49.5t-46.5 20.5t-46 -20.5
t-17 -49.5zM434 276l-90 262h-2l-93 -262h185zM425 714l267 -714h-163l-54 159h-267l-56 -159h-158l270 714h161z" />
    <glyph glyph-name="AE" unicode="&#xc6;" horiz-adv-x="981" 
d="M330 714l-340 -714h166l72 159h224v-159h492v132h-340v175h312v122h-312v153h332v132h-606zM280 276l138 306h34v-306h-172z" />
    <glyph glyph-name="Ccedilla" unicode="&#xc7;" horiz-adv-x="741" 
d="M545 474h152q-7 62 -34 110t-68.5 80.5t-94 49.5t-111.5 17q-82 0 -147.5 -29t-110.5 -80t-69 -119.5t-24 -148.5q0 -72 20.5 -135.5t60 -112.5t96.5 -80.5t130 -38.5l-48 -69l21 -24q18 7 40 7q17 0 28.5 -6.5t11.5 -25.5q0 -18 -11 -26t-29 -8q-26 0 -47 5.5t-37 12.5
l-21 -48q14 -5 26.5 -9t26 -7t30.5 -4.5t41 -1.5q22 0 43 4.5t37.5 16t26.5 31t10 48.5q0 18 -8 31.5t-21 22t-29.5 12.5t-33.5 4q-22 0 -34 -5h-2l26 36q65 1 119.5 21.5t95 58t65.5 91t31 120.5h-152q-9 -72 -49.5 -116t-112.5 -44q-53 0 -90 20.5t-60 54.5t-33.5 76.5
t-10.5 87.5q0 47 10.5 91t33.5 78.5t60 55t90 20.5q29 0 55.5 -9.5t47.5 -26.5t35 -39.5t18 -49.5z" />
    <glyph glyph-name="Egrave" unicode="&#xc8;" horiz-adv-x="648" 
d="M147 920l154 -142h99l-96 142h-157zM69 714v-714h542v132h-385v175h346v122h-346v153h377v132h-534z" />
    <glyph glyph-name="Eacute" unicode="&#xc9;" horiz-adv-x="648" 
d="M348 778l154 142h-157l-96 -142h99zM69 714v-714h542v132h-385v175h346v122h-346v153h377v132h-534z" />
    <glyph glyph-name="Ecircumflex" unicode="&#xca;" horiz-adv-x="648" 
d="M260 920l-111 -142h108l64 81l62 -81h117l-110 142h-130zM69 714v-714h542v132h-385v175h346v122h-346v153h377v132h-534z" />
    <glyph glyph-name="Edieresis" unicode="&#xcb;" horiz-adv-x="648" 
d="M154 911v-117h135v117h-135zM360 911v-117h135v117h-135zM69 714v-714h542v132h-385v175h346v122h-346v153h377v132h-534z" />
    <glyph glyph-name="Igrave" unicode="&#xcc;" horiz-adv-x="295" 
d="M-29 920l153 -142h99l-96 142h-156zM69 714v-714h157v714h-157z" />
    <glyph glyph-name="Iacute" unicode="&#xcd;" horiz-adv-x="295" 
d="M171 778l154 142h-157l-96 -142h99zM69 714v-714h157v714h-157z" />
    <glyph glyph-name="Icircumflex" unicode="&#xce;" horiz-adv-x="295" 
d="M83 920l-110 -142h107l64 81l62 -81h117l-110 142h-130zM69 714v-714h157v714h-157z" />
    <glyph glyph-name="Idieresis" unicode="&#xcf;" horiz-adv-x="295" 
d="M-22 911v-117h134v117h-134zM183 911v-117h135v117h-135zM69 714v-714h157v714h-157z" />
    <glyph glyph-name="Eth" unicode="&#xd0;" horiz-adv-x="741" 
d="M226 427v155h112q58 0 97.5 -16.5t63.5 -47.5t34.5 -74.5t10.5 -97.5q0 -59 -15 -100t-40 -66.5t-57 -36.5t-66 -11h-140v178h160v117h-160zM69 311v-311h308q82 0 142.5 27.5t101 75.5t60.5 114t20 144q0 89 -24.5 155t-68 110t-103 66t-128.5 22h-308v-287h-66v-116h66
z" />
    <glyph glyph-name="Ntilde" unicode="&#xd1;" horiz-adv-x="741" 
d="M554 911h-69q1 -14 -9 -24.5t-33 -10.5q-17 0 -33.5 5.5t-32.5 12.5l-32 12q-15 5 -32 5q-33 0 -55 -11t-36 -28.5t-22 -39t-13 -43.5h61q5 19 13.5 30.5t28.5 11.5q17 0 34 -5t36 -12q19 -6 39 -11.5t43 -5.5q30 0 49.5 11.5t32 28.5t19 37t11.5 37zM69 714v-714h147
v478h2l297 -478h157v714h-147v-479h-2l-298 479h-156z" />
    <glyph glyph-name="Ograve" unicode="&#xd2;" horiz-adv-x="778" 
d="M212 920l154 -142h99l-96 142h-157zM195 354q0 47 10.5 91t33.5 78.5t60 55t90 20.5t90 -20.5t60 -55t33.5 -78.5t10.5 -91q0 -45 -10.5 -87.5t-33.5 -76.5t-60 -54.5t-90 -20.5t-90 20.5t-60 54.5t-33.5 76.5t-10.5 87.5zM38 354q0 -78 24 -145.5t69 -117.5t110.5 -78.5
t147.5 -28.5q83 0 148 28.5t110 78.5t69 117.5t24 145.5q0 80 -24 148.5t-69 119.5t-110 80t-148 29q-82 0 -147.5 -29t-110.5 -80t-69 -119.5t-24 -148.5z" />
    <glyph glyph-name="Oacute" unicode="&#xd3;" horiz-adv-x="778" 
d="M413 778l154 142h-157l-96 -142h99zM195 354q0 47 10.5 91t33.5 78.5t60 55t90 20.5t90 -20.5t60 -55t33.5 -78.5t10.5 -91q0 -45 -10.5 -87.5t-33.5 -76.5t-60 -54.5t-90 -20.5t-90 20.5t-60 54.5t-33.5 76.5t-10.5 87.5zM38 354q0 -78 24 -145.5t69 -117.5t110.5 -78.5
t147.5 -28.5q83 0 148 28.5t110 78.5t69 117.5t24 145.5q0 80 -24 148.5t-69 119.5t-110 80t-148 29q-82 0 -147.5 -29t-110.5 -80t-69 -119.5t-24 -148.5z" />
    <glyph glyph-name="Ocircumflex" unicode="&#xd4;" horiz-adv-x="778" 
d="M325 920l-111 -142h108l64 81l62 -81h117l-110 142h-130zM195 354q0 47 10.5 91t33.5 78.5t60 55t90 20.5t90 -20.5t60 -55t33.5 -78.5t10.5 -91q0 -45 -10.5 -87.5t-33.5 -76.5t-60 -54.5t-90 -20.5t-90 20.5t-60 54.5t-33.5 76.5t-10.5 87.5zM38 354q0 -78 24 -145.5
t69 -117.5t110.5 -78.5t147.5 -28.5q83 0 148 28.5t110 78.5t69 117.5t24 145.5q0 80 -24 148.5t-69 119.5t-110 80t-148 29q-82 0 -147.5 -29t-110.5 -80t-69 -119.5t-24 -148.5z" />
    <glyph glyph-name="Otilde" unicode="&#xd5;" horiz-adv-x="778" 
d="M573 911h-69q1 -14 -9 -24.5t-33 -10.5q-17 0 -33.5 5.5t-32.5 12.5l-32 12q-15 5 -32 5q-33 0 -55 -11t-36 -28.5t-22 -39t-13 -43.5h61q5 19 13.5 30.5t28.5 11.5q17 0 34 -5t36 -12q19 -6 39 -11.5t43 -5.5q30 0 49.5 11.5t32 28.5t19 37t11.5 37zM195 354
q0 47 10.5 91t33.5 78.5t60 55t90 20.5t90 -20.5t60 -55t33.5 -78.5t10.5 -91q0 -45 -10.5 -87.5t-33.5 -76.5t-60 -54.5t-90 -20.5t-90 20.5t-60 54.5t-33.5 76.5t-10.5 87.5zM38 354q0 -78 24 -145.5t69 -117.5t110.5 -78.5t147.5 -28.5q83 0 148 28.5t110 78.5t69 117.5
t24 145.5q0 80 -24 148.5t-69 119.5t-110 80t-148 29q-82 0 -147.5 -29t-110.5 -80t-69 -119.5t-24 -148.5z" />
    <glyph glyph-name="Odieresis" unicode="&#xd6;" horiz-adv-x="778" 
d="M219 911v-117h135v117h-135zM425 911v-117h135v117h-135zM195 354q0 47 10.5 91t33.5 78.5t60 55t90 20.5t90 -20.5t60 -55t33.5 -78.5t10.5 -91q0 -45 -10.5 -87.5t-33.5 -76.5t-60 -54.5t-90 -20.5t-90 20.5t-60 54.5t-33.5 76.5t-10.5 87.5zM38 354q0 -78 24 -145.5
t69 -117.5t110.5 -78.5t147.5 -28.5q83 0 148 28.5t110 78.5t69 117.5t24 145.5q0 80 -24 148.5t-69 119.5t-110 80t-148 29q-82 0 -147.5 -29t-110.5 -80t-69 -119.5t-24 -148.5z" />
    <glyph glyph-name="multiply" unicode="&#xd7;" horiz-adv-x="600" 
d="M64 93l76 -76l161 161l160 -161l76 76l-161 160l161 160l-76 76l-160 -160l-159 160l-76 -76l159 -160z" />
    <glyph glyph-name="Oslash" unicode="&#xd8;" horiz-adv-x="778" 
d="M261 164l295 326q14 -31 20.5 -65.5t6.5 -70.5q0 -45 -10.5 -87.5t-33.5 -76.5t-60 -54.5t-90 -20.5q-42 0 -73.5 13t-54.5 36zM519 548l-296 -329q-15 31 -21.5 65.5t-6.5 69.5q0 47 10.5 91t33.5 78.5t60 55t90 20.5q43 0 75 -14t55 -37zM120 105l-86 -95l49 -42l83 91
q42 -35 98 -55t125 -20q83 0 148 28.5t110 78.5t69 117.5t24 145.5q0 75 -20.5 138t-59.5 114l84 93l-50 44l-80 -89q-43 37 -99.5 57t-125.5 20q-82 0 -147.5 -29t-110.5 -80t-69 -119.5t-24 -148.5q0 -72 20 -135t62 -114z" />
    <glyph glyph-name="Ugrave" unicode="&#xd9;" horiz-adv-x="741" 
d="M193 920l154 -142h99l-96 142h-157zM675 270v444h-157v-444q0 -80 -32 -117.5t-116 -37.5q-48 0 -76.5 13.5t-44.5 35t-21 49.5t-5 57v444h-157v-444q0 -146 79.5 -216t224.5 -70q143 0 224 70.5t81 215.5z" />
    <glyph glyph-name="Uacute" unicode="&#xda;" horiz-adv-x="741" 
d="M394 778l154 142h-157l-96 -142h99zM675 270v444h-157v-444q0 -80 -32 -117.5t-116 -37.5q-48 0 -76.5 13.5t-44.5 35t-21 49.5t-5 57v444h-157v-444q0 -146 79.5 -216t224.5 -70q143 0 224 70.5t81 215.5z" />
    <glyph glyph-name="Ucircumflex" unicode="&#xdb;" horiz-adv-x="741" 
d="M306 920l-111 -142h108l64 81l62 -81h117l-110 142h-130zM675 270v444h-157v-444q0 -80 -32 -117.5t-116 -37.5q-48 0 -76.5 13.5t-44.5 35t-21 49.5t-5 57v444h-157v-444q0 -146 79.5 -216t224.5 -70q143 0 224 70.5t81 215.5z" />
    <glyph glyph-name="Udieresis" unicode="&#xdc;" horiz-adv-x="741" 
d="M200 911v-117h135v117h-135zM406 911v-117h135v117h-135zM675 270v444h-157v-444q0 -80 -32 -117.5t-116 -37.5q-48 0 -76.5 13.5t-44.5 35t-21 49.5t-5 57v444h-157v-444q0 -146 79.5 -216t224.5 -70q143 0 224 70.5t81 215.5z" />
    <glyph glyph-name="Yacute" unicode="&#xdd;" horiz-adv-x="667" 
d="M357 778l154 142h-157l-96 -142h99zM254 278v-278h157v274l265 440h-175l-166 -282l-167 282h-176z" />
    <glyph glyph-name="Thorn" unicode="&#xde;" horiz-adv-x="667" 
d="M226 281v214h122q27 0 52 -4t44 -15.5t30.5 -32.5t11.5 -55t-11.5 -55t-30.5 -32.5t-44 -15.5t-52 -4h-122zM69 714v-714h157v159h165q67 0 114 19.5t76.5 51.5t43 73.5t13.5 84.5q0 44 -13.5 85t-43 73t-76.5 51.5t-114 19.5h-165v97h-157z" />
    <glyph glyph-name="germandbls" unicode="&#xdf;" 
d="M56 491v-491h142v516q0 45 23 71.5t66 26.5q11 0 27.5 -2t31.5 -11t26 -26.5t11 -49.5q0 -23 -9 -40t-23.5 -28t-33.5 -16t-39 -5q-5 0 -10.5 0.5t-11.5 1.5v-94q9 1 18 1.5t17 0.5q63 0 92.5 -34t29.5 -88q0 -25 -8.5 -47t-24 -38.5t-36.5 -26t-47 -9.5q-11 0 -21 1
t-20 4v-115q41 -6 82 -6q48 0 87.5 18.5t68.5 50.5t45 74t16 89q0 32 -8 61.5t-24.5 53.5t-40.5 40.5t-57 23.5v2q42 13 67.5 52t25.5 87q0 50 -18.5 86t-50 59.5t-72.5 35t-86 11.5q-75 0 -121 -22t-71.5 -56.5t-34 -77t-8.5 -84.5z" />
    <glyph glyph-name="agrave" unicode="&#xe0;" horiz-adv-x="574" 
d="M110 723l154 -142h99l-96 142h-157zM48 358h142q4 42 28 60t66 18q19 0 35.5 -2.5t29 -10t20 -21t7.5 -36.5q1 -22 -13 -33.5t-38 -17.5t-55 -9t-63 -8t-63.5 -13.5t-56 -25.5t-40 -45.5t-15.5 -72.5q0 -40 13.5 -69t37.5 -48t56 -28t69 -9q48 0 94 14t80 49
q1 -13 3.5 -25.5t6.5 -24.5h144q-10 16 -14 48t-4 67v269q0 47 -21 75.5t-54 44.5t-73 21.5t-79 5.5q-43 0 -85.5 -8.5t-76.5 -28.5t-56 -53t-25 -83zM376 253v-53q0 -12 -2.5 -32t-13.5 -39.5t-34 -33.5t-65 -14q-17 0 -33 3t-28 10.5t-19 20.5t-7 32q0 20 7 33t18.5 21.5
t27 13.5t31.5 8q17 3 34 5t32.5 5t29 7.5t22.5 12.5z" />
    <glyph glyph-name="aacute" unicode="&#xe1;" horiz-adv-x="574" 
d="M311 581l154 142h-157l-96 -142h99zM48 358h142q4 42 28 60t66 18q19 0 35.5 -2.5t29 -10t20 -21t7.5 -36.5q1 -22 -13 -33.5t-38 -17.5t-55 -9t-63 -8t-63.5 -13.5t-56 -25.5t-40 -45.5t-15.5 -72.5q0 -40 13.5 -69t37.5 -48t56 -28t69 -9q48 0 94 14t80 49
q1 -13 3.5 -25.5t6.5 -24.5h144q-10 16 -14 48t-4 67v269q0 47 -21 75.5t-54 44.5t-73 21.5t-79 5.5q-43 0 -85.5 -8.5t-76.5 -28.5t-56 -53t-25 -83zM376 253v-53q0 -12 -2.5 -32t-13.5 -39.5t-34 -33.5t-65 -14q-17 0 -33 3t-28 10.5t-19 20.5t-7 32q0 20 7 33t18.5 21.5
t27 13.5t31.5 8q17 3 34 5t32.5 5t29 7.5t22.5 12.5z" />
    <glyph glyph-name="acircumflex" unicode="&#xe2;" horiz-adv-x="574" 
d="M223 723l-111 -142h108l64 81l62 -81h117l-110 142h-130zM48 358h142q4 42 28 60t66 18q19 0 35.5 -2.5t29 -10t20 -21t7.5 -36.5q1 -22 -13 -33.5t-38 -17.5t-55 -9t-63 -8t-63.5 -13.5t-56 -25.5t-40 -45.5t-15.5 -72.5q0 -40 13.5 -69t37.5 -48t56 -28t69 -9
q48 0 94 14t80 49q1 -13 3.5 -25.5t6.5 -24.5h144q-10 16 -14 48t-4 67v269q0 47 -21 75.5t-54 44.5t-73 21.5t-79 5.5q-43 0 -85.5 -8.5t-76.5 -28.5t-56 -53t-25 -83zM376 253v-53q0 -12 -2.5 -32t-13.5 -39.5t-34 -33.5t-65 -14q-17 0 -33 3t-28 10.5t-19 20.5t-7 32
q0 20 7 33t18.5 21.5t27 13.5t31.5 8q17 3 34 5t32.5 5t29 7.5t22.5 12.5z" />
    <glyph glyph-name="atilde" unicode="&#xe3;" horiz-adv-x="574" 
d="M471 714h-69q1 -14 -9 -24.5t-33 -10.5q-17 0 -33.5 5.5t-32.5 12.5l-31 12q-16 5 -33 5q-33 0 -55 -11t-36 -28.5t-22 -39t-13 -43.5h61q5 19 13.5 30.5t28.5 11.5q17 0 34 -5t36 -12q19 -6 39 -11.5t43 -5.5q30 0 49.5 11.5t32 28.5t19 37t11.5 37zM48 358h142
q4 42 28 60t66 18q19 0 35.5 -2.5t29 -10t20 -21t7.5 -36.5q1 -22 -13 -33.5t-38 -17.5t-55 -9t-63 -8t-63.5 -13.5t-56 -25.5t-40 -45.5t-15.5 -72.5q0 -40 13.5 -69t37.5 -48t56 -28t69 -9q48 0 94 14t80 49q1 -13 3.5 -25.5t6.5 -24.5h144q-10 16 -14 48t-4 67v269
q0 47 -21 75.5t-54 44.5t-73 21.5t-79 5.5q-43 0 -85.5 -8.5t-76.5 -28.5t-56 -53t-25 -83zM376 253v-53q0 -12 -2.5 -32t-13.5 -39.5t-34 -33.5t-65 -14q-17 0 -33 3t-28 10.5t-19 20.5t-7 32q0 20 7 33t18.5 21.5t27 13.5t31.5 8q17 3 34 5t32.5 5t29 7.5t22.5 12.5z" />
    <glyph glyph-name="adieresis" unicode="&#xe4;" horiz-adv-x="574" 
d="M117 714v-117h135v117h-135zM323 714v-117h135v117h-135zM48 358h142q4 42 28 60t66 18q19 0 35.5 -2.5t29 -10t20 -21t7.5 -36.5q1 -22 -13 -33.5t-38 -17.5t-55 -9t-63 -8t-63.5 -13.5t-56 -25.5t-40 -45.5t-15.5 -72.5q0 -40 13.5 -69t37.5 -48t56 -28t69 -9
q48 0 94 14t80 49q1 -13 3.5 -25.5t6.5 -24.5h144q-10 16 -14 48t-4 67v269q0 47 -21 75.5t-54 44.5t-73 21.5t-79 5.5q-43 0 -85.5 -8.5t-76.5 -28.5t-56 -53t-25 -83zM376 253v-53q0 -12 -2.5 -32t-13.5 -39.5t-34 -33.5t-65 -14q-17 0 -33 3t-28 10.5t-19 20.5t-7 32
q0 20 7 33t18.5 21.5t27 13.5t31.5 8q17 3 34 5t32.5 5t29 7.5t22.5 12.5z" />
    <glyph glyph-name="aring" unicode="&#xe5;" horiz-adv-x="574" 
d="M165 656q0 -25 9.5 -47.5t26 -39t39 -26t47.5 -9.5q26 0 48 9.5t39 26t26.5 39t9.5 47.5q0 26 -9.5 48t-26.5 38.5t-39 26t-48 9.5q-25 0 -47.5 -9.5t-39 -26t-26 -38.5t-9.5 -48zM224 656q0 29 17 49.5t46 20.5t46.5 -20.5t17.5 -49.5t-17.5 -49.5t-46.5 -20.5t-46 20.5
t-17 49.5zM48 358h142q4 42 28 60t66 18q19 0 35.5 -2.5t29 -10t20 -21t7.5 -36.5q1 -22 -13 -33.5t-38 -17.5t-55 -9t-63 -8t-63.5 -13.5t-56 -25.5t-40 -45.5t-15.5 -72.5q0 -40 13.5 -69t37.5 -48t56 -28t69 -9q48 0 94 14t80 49q1 -13 3.5 -25.5t6.5 -24.5h144
q-10 16 -14 48t-4 67v269q0 47 -21 75.5t-54 44.5t-73 21.5t-79 5.5q-43 0 -85.5 -8.5t-76.5 -28.5t-56 -53t-25 -83zM376 253v-53q0 -12 -2.5 -32t-13.5 -39.5t-34 -33.5t-65 -14q-17 0 -33 3t-28 10.5t-19 20.5t-7 32q0 20 7 33t18.5 21.5t27 13.5t31.5 8q17 3 34 5
t32.5 5t29 7.5t22.5 12.5z" />
    <glyph glyph-name="ae" unicode="&#xe6;" horiz-adv-x="907" 
d="M736 314h-227q0 24 8 46t23 39t36.5 27t48.5 10t47.5 -10t35 -27t21.5 -39t7 -46zM509 224h369q0 60 -13 115.5t-41.5 98t-73.5 68t-110 25.5q-63 0 -103 -17.5t-70 -52.5q-14 20 -34 33.5t-43 21.5t-47 11.5t-47 3.5q-45 0 -88.5 -9t-77 -29.5t-55 -54t-23.5 -82.5h142
q2 45 29.5 62.5t69.5 17.5q17 0 33.5 -2.5t29.5 -10t21 -20.5t8 -33t-10 -31t-31.5 -17.5t-54.5 -11.5l-78 -12q-32 -5 -63 -13.5t-55.5 -26t-39.5 -46t-15 -72.5q0 -43 16.5 -72.5t43.5 -47.5t61.5 -25.5t71.5 -7.5q29 0 59 4.5t57.5 15t52 27t42.5 40.5q33 -47 85 -67
t108 -20q42 0 80.5 11.5t69.5 34t54 55t34 74.5h-138q-7 -38 -31 -59.5t-72 -21.5q-30 0 -53 13t-39 33t-24 46t-7 51zM385 252v-64q0 -28 -11 -48.5t-28 -33.5t-37.5 -19t-40.5 -6q-16 0 -32 3t-28.5 11t-20 21t-7.5 32q0 25 11.5 39t30 22t41.5 11l45 7q23 4 43.5 9
t33.5 16z" />
    <glyph glyph-name="ccedilla" unicode="&#xe7;" horiz-adv-x="574" 
d="M406 335h139q-3 50 -24 86.5t-54.5 61t-76 36.5t-88.5 12q-63 0 -112 -21t-83 -58.5t-51.5 -89t-17.5 -111.5q0 -54 16 -99.5t46 -80t71.5 -55.5t92.5 -26l-50 -72l21 -24q18 7 40 7q17 0 28.5 -6.5t11.5 -25.5q0 -18 -11 -26t-29 -8q-26 0 -47 5.5t-37 12.5l-21 -48
q14 -5 26.5 -9t26 -7t30.5 -4.5t41 -1.5q22 0 43 4.5t37.5 16t26.5 31t10 48.5q0 18 -8 31.5t-21 22t-29.5 12.5t-33.5 4q-22 0 -34 -5h-2l28 40q99 3 161.5 56.5t75.5 153.5h-137q-7 -48 -34.5 -76.5t-78.5 -28.5q-33 0 -56 15t-36.5 38.5t-19.5 52.5t-6 57q0 29 6 58.5
t20.5 54t37.5 40t57 15.5q91 0 105 -89z" />
    <glyph glyph-name="egrave" unicode="&#xe8;" horiz-adv-x="574" 
d="M110 723l154 -142h99l-96 142h-157zM402 314h-231q1 15 6.5 34t19 36t36 28.5t56.5 11.5q52 0 77.5 -28t35.5 -82zM171 224h373q4 60 -10 115t-45.5 98t-80.5 68.5t-115 25.5q-59 0 -107.5 -21t-83.5 -57.5t-54 -86.5t-19 -108q0 -60 18.5 -110t52.5 -86t83 -55.5
t110 -19.5q88 0 150 40t92 133h-125q-7 -24 -38 -45.5t-74 -21.5q-60 0 -92 31t-35 100z" />
    <glyph glyph-name="eacute" unicode="&#xe9;" horiz-adv-x="574" 
d="M311 581l154 142h-157l-96 -142h99zM402 314h-231q1 15 6.5 34t19 36t36 28.5t56.5 11.5q52 0 77.5 -28t35.5 -82zM171 224h373q4 60 -10 115t-45.5 98t-80.5 68.5t-115 25.5q-59 0 -107.5 -21t-83.5 -57.5t-54 -86.5t-19 -108q0 -60 18.5 -110t52.5 -86t83 -55.5
t110 -19.5q88 0 150 40t92 133h-125q-7 -24 -38 -45.5t-74 -21.5q-60 0 -92 31t-35 100z" />
    <glyph glyph-name="ecircumflex" unicode="&#xea;" horiz-adv-x="574" 
d="M223 723l-111 -142h108l64 81l62 -81h117l-110 142h-130zM402 314h-231q1 15 6.5 34t19 36t36 28.5t56.5 11.5q52 0 77.5 -28t35.5 -82zM171 224h373q4 60 -10 115t-45.5 98t-80.5 68.5t-115 25.5q-59 0 -107.5 -21t-83.5 -57.5t-54 -86.5t-19 -108q0 -60 18.5 -110
t52.5 -86t83 -55.5t110 -19.5q88 0 150 40t92 133h-125q-7 -24 -38 -45.5t-74 -21.5q-60 0 -92 31t-35 100z" />
    <glyph glyph-name="edieresis" unicode="&#xeb;" horiz-adv-x="574" 
d="M117 714v-117h135v117h-135zM323 714v-117h135v117h-135zM402 314h-231q1 15 6.5 34t19 36t36 28.5t56.5 11.5q52 0 77.5 -28t35.5 -82zM171 224h373q4 60 -10 115t-45.5 98t-80.5 68.5t-115 25.5q-59 0 -107.5 -21t-83.5 -57.5t-54 -86.5t-19 -108q0 -60 18.5 -110
t52.5 -86t83 -55.5t110 -19.5q88 0 150 40t92 133h-125q-7 -24 -38 -45.5t-74 -21.5q-60 0 -92 31t-35 100z" />
    <glyph glyph-name="igrave" unicode="&#xec;" horiz-adv-x="258" 
d="M-47 723l153 -142h99l-96 142h-156zM58 517v-517h142v517h-142z" />
    <glyph glyph-name="iacute" unicode="&#xed;" horiz-adv-x="258" 
d="M153 581l154 142h-157l-96 -142h99zM58 517v-517h142v517h-142z" />
    <glyph glyph-name="icircumflex" unicode="&#xee;" horiz-adv-x="258" 
d="M65 723l-110 -142h107l64 81l62 -81h117l-110 142h-130zM58 517v-517h142v517h-142z" />
    <glyph glyph-name="idieresis" unicode="&#xef;" horiz-adv-x="258" 
d="M-40 714v-117h134v117h-134zM165 714v-117h135v117h-135zM58 517v-517h142v517h-142z" />
    <glyph glyph-name="eth" unicode="&#xf0;" 
d="M240 647l-107 -54l58 -56l112 56q25 -22 54.5 -53.5t47.5 -73.5h-2q-35 24 -70.5 32t-64.5 8q-60 0 -103.5 -23t-71.5 -60t-41.5 -83t-13.5 -93q0 -57 19 -105t54 -82.5t84 -53.5t110 -19t110.5 21.5t84.5 59.5t54 90.5t19 114.5q2 117 -41 206t-124 167l114 57l-52 59
l-123 -62q-45 36 -99 66l-92 -69q20 -10 41 -22t43 -28zM305 93q-36 0 -60 14t-38.5 37.5t-20.5 53t-6 60.5q0 27 6.5 54.5t21 49.5t38.5 35.5t58 13.5q35 0 59 -13.5t39 -35t22 -49t7 -55.5q0 -31 -6 -60.5t-20.5 -53t-39 -37.5t-60.5 -14z" />
    <glyph glyph-name="ntilde" unicode="&#xf1;" horiz-adv-x="593" 
d="M480 714h-69q1 -14 -9 -24.5t-33 -10.5q-17 0 -33.5 5.5t-32.5 12.5l-31 12q-16 5 -33 5q-33 0 -55 -11t-36 -28.5t-22 -39t-13 -43.5h61q5 19 13.5 30.5t28.5 11.5q17 0 34 -5t36 -12q19 -6 39 -11.5t43 -5.5q30 0 49.5 11.5t32 28.5t19 37t11.5 37zM54 517v-517h142
v271q0 79 26 113.5t84 34.5q51 0 71 -31.5t20 -95.5v-292h142v318q0 48 -8.5 87.5t-29.5 67t-57.5 43t-93.5 15.5q-45 0 -88 -20.5t-70 -65.5h-3v72h-135z" />
    <glyph glyph-name="ograve" unicode="&#xf2;" 
d="M128 723l154 -142h99l-96 142h-157zM180 258q0 31 6 61t20.5 53t38.5 37.5t60 14.5t60.5 -14.5t39 -37.5t20.5 -53t6 -61t-6 -60.5t-20.5 -53t-39 -37.5t-60.5 -14t-60 14t-38.5 37.5t-20.5 53t-6 60.5zM38 258q0 -62 19 -112t54 -85.5t84 -54.5t110 -19t110.5 19
t84.5 54.5t54 85.5t19 112t-19 112.5t-54 86t-84.5 55t-110.5 19.5t-110 -19.5t-84 -55t-54 -86t-19 -112.5z" />
    <glyph glyph-name="oacute" unicode="&#xf3;" 
d="M329 581l154 142h-157l-96 -142h99zM180 258q0 31 6 61t20.5 53t38.5 37.5t60 14.5t60.5 -14.5t39 -37.5t20.5 -53t6 -61t-6 -60.5t-20.5 -53t-39 -37.5t-60.5 -14t-60 14t-38.5 37.5t-20.5 53t-6 60.5zM38 258q0 -62 19 -112t54 -85.5t84 -54.5t110 -19t110.5 19
t84.5 54.5t54 85.5t19 112t-19 112.5t-54 86t-84.5 55t-110.5 19.5t-110 -19.5t-84 -55t-54 -86t-19 -112.5z" />
    <glyph glyph-name="ocircumflex" unicode="&#xf4;" 
d="M241 723l-111 -142h108l64 81l62 -81h117l-110 142h-130zM180 258q0 31 6 61t20.5 53t38.5 37.5t60 14.5t60.5 -14.5t39 -37.5t20.5 -53t6 -61t-6 -60.5t-20.5 -53t-39 -37.5t-60.5 -14t-60 14t-38.5 37.5t-20.5 53t-6 60.5zM38 258q0 -62 19 -112t54 -85.5t84 -54.5
t110 -19t110.5 19t84.5 54.5t54 85.5t19 112t-19 112.5t-54 86t-84.5 55t-110.5 19.5t-110 -19.5t-84 -55t-54 -86t-19 -112.5z" />
    <glyph glyph-name="otilde" unicode="&#xf5;" 
d="M489 714h-69q1 -14 -9 -24.5t-33 -10.5q-17 0 -33.5 5.5t-32.5 12.5l-31 12q-16 5 -33 5q-33 0 -55 -11t-36 -28.5t-22 -39t-13 -43.5h61q5 19 13.5 30.5t28.5 11.5q17 0 34 -5t36 -12q19 -6 39 -11.5t43 -5.5q30 0 49.5 11.5t32 28.5t19 37t11.5 37zM180 258q0 31 6 61
t20.5 53t38.5 37.5t60 14.5t60.5 -14.5t39 -37.5t20.5 -53t6 -61t-6 -60.5t-20.5 -53t-39 -37.5t-60.5 -14t-60 14t-38.5 37.5t-20.5 53t-6 60.5zM38 258q0 -62 19 -112t54 -85.5t84 -54.5t110 -19t110.5 19t84.5 54.5t54 85.5t19 112t-19 112.5t-54 86t-84.5 55
t-110.5 19.5t-110 -19.5t-84 -55t-54 -86t-19 -112.5z" />
    <glyph glyph-name="odieresis" unicode="&#xf6;" 
d="M135 714v-117h135v117h-135zM341 714v-117h135v117h-135zM180 258q0 31 6 61t20.5 53t38.5 37.5t60 14.5t60.5 -14.5t39 -37.5t20.5 -53t6 -61t-6 -60.5t-20.5 -53t-39 -37.5t-60.5 -14t-60 14t-38.5 37.5t-20.5 53t-6 60.5zM38 258q0 -62 19 -112t54 -85.5t84 -54.5
t110 -19t110.5 19t84.5 54.5t54 85.5t19 112t-19 112.5t-54 86t-84.5 55t-110.5 19.5t-110 -19.5t-84 -55t-54 -86t-19 -112.5z" />
    <glyph glyph-name="divide" unicode="&#xf7;" horiz-adv-x="600" 
d="M216 45q0 -16 7 -31.5t18.5 -27t27 -18.5t33.5 -7q17 0 32 7.5t26 19.5t18 27t7 30q0 18 -7 33t-18.5 26.5t-26.5 18t-32 6.5t-32.5 -6.5t-27 -18t-18.5 -26.5t-7 -33zM216 460q0 -17 7 -32.5t18.5 -27t27 -18t33.5 -6.5q17 0 32 7t26 19t18 27t7 31q0 18 -7 33.5
t-18.5 27t-26.5 18t-32 6.5q-34 0 -59.5 -24.5t-25.5 -60.5zM48 306v-107h505v107h-505z" />
    <glyph glyph-name="oslash" unicode="&#xf8;" 
d="M104 69l-60 -68l37 -31l59 66q67 -49 165 -49q61 0 110.5 19t84.5 54.5t54 85.5t19 112q0 60 -18 109t-51 84l54 61l-37 32l-53 -61q-67 48 -163 48q-61 0 -110 -19.5t-84 -55t-54 -86t-19 -112.5q0 -117 66 -189zM220 127l195 222q8 -20 12 -43.5t4 -47.5
q0 -31 -6 -60.5t-20.5 -53t-39 -37.5t-60.5 -14q-29 0 -50 9t-35 25zM388 392l-193 -220q-8 19 -11.5 41t-3.5 45q0 31 6 61t20.5 53t38.5 37.5t60 14.5q53 0 83 -32z" />
    <glyph glyph-name="ugrave" unicode="&#xf9;" horiz-adv-x="593" 
d="M119 723l154 -142h99l-96 142h-157zM539 0v517h-142v-271q0 -79 -26 -113.5t-84 -34.5q-51 0 -71 31.5t-20 95.5v292h-142v-318q0 -48 8.5 -87.5t29.5 -67t57.5 -42.5t93.5 -15q45 0 88 20t70 65h3v-72h135z" />
    <glyph glyph-name="uacute" unicode="&#xfa;" horiz-adv-x="593" 
d="M320 581l154 142h-157l-96 -142h99zM539 0v517h-142v-271q0 -79 -26 -113.5t-84 -34.5q-51 0 -71 31.5t-20 95.5v292h-142v-318q0 -48 8.5 -87.5t29.5 -67t57.5 -42.5t93.5 -15q45 0 88 20t70 65h3v-72h135z" />
    <glyph glyph-name="ucircumflex" unicode="&#xfb;" horiz-adv-x="593" 
d="M232 723l-111 -142h108l64 81l62 -81h117l-110 142h-130zM539 0v517h-142v-271q0 -79 -26 -113.5t-84 -34.5q-51 0 -71 31.5t-20 95.5v292h-142v-318q0 -48 8.5 -87.5t29.5 -67t57.5 -42.5t93.5 -15q45 0 88 20t70 65h3v-72h135z" />
    <glyph glyph-name="udieresis" unicode="&#xfc;" horiz-adv-x="593" 
d="M126 714v-117h135v117h-135zM332 714v-117h135v117h-135zM539 0v517h-142v-271q0 -79 -26 -113.5t-84 -34.5q-51 0 -71 31.5t-20 95.5v292h-142v-318q0 -48 8.5 -87.5t29.5 -67t57.5 -42.5t93.5 -15q45 0 88 20t70 65h3v-72h135z" />
    <glyph glyph-name="yacute" unicode="&#xfd;" horiz-adv-x="519" 
d="M283 581l154 142h-157l-96 -142h99zM309 -64l216 581h-147l-113 -354h-2l-117 354h-151l181 -485q6 -15 6 -32q0 -23 -13.5 -42t-41.5 -22q-21 -1 -42 1l-41 4v-117q22 -2 43.5 -3.5t43.5 -1.5q73 0 114 27t64 90z" />
    <glyph glyph-name="thorn" unicode="&#xfe;" 
d="M438 257q0 -31 -6 -61t-20.5 -52.5t-38 -36.5t-58.5 -14q-34 0 -58 14t-38.5 36.5t-21 52.5t-6.5 61q0 32 6 62t20.5 53t38 37.5t58.5 14.5q34 0 57.5 -14.5t38.5 -38t21.5 -53.5t6.5 -61zM54 714v-895h142v245h2q26 -38 66.5 -57.5t88.5 -19.5q57 0 99.5 22t71 59
t42.5 85t14 100q0 55 -14 105.5t-43 88.5t-73 61t-105 23q-43 0 -82 -19t-65 -61h-2v263h-142z" />
    <glyph glyph-name="ydieresis" unicode="&#xff;" horiz-adv-x="519" 
d="M89 714v-117h135v117h-135zM295 714v-117h135v117h-135zM309 -64l216 581h-147l-113 -354h-2l-117 354h-151l181 -485q6 -15 6 -32q0 -23 -13.5 -42t-41.5 -22q-21 -1 -42 1l-41 4v-117q22 -2 43.5 -3.5t43.5 -1.5q73 0 114 27t64 90z" />
    <glyph glyph-name="uni0100" unicode="&#x100;" horiz-adv-x="685" 
d="M264 714h161l267 -714h-163l-54 159h-267l-56 -159h-159zM434 276l-90 262h-2l-93 -262h185zM167 884h353v-75h-353v75z" />
    <glyph glyph-name="uni0101" unicode="&#x101;" horiz-adv-x="574" 
d="M48 358q3 49 25 82.5t56 53.5t76 28.5t86 8.5q39 0 79 -5.5t73 -21.5t54 -45t21 -75v-269q0 -35 4 -67t14 -48h-144q-4 12 -6.5 24.5t-3.5 25.5q-34 -35 -80 -49.5t-94 -14.5q-37 0 -69 9.5t-56 28.5t-37.5 48t-13.5 69q0 50 19.5 80t50 47t68.5 24t74 11q33 4 58 7.5
t41.5 10.5t24.5 17.5t8 27.5q0 22 -7.5 36t-20 21.5t-29 10t-35.5 2.5q-42 0 -66 -18t-28 -60h-142zM376 253q-11 -11 -34 -16t-52 -9q-22 -3 -43 -7t-37 -12.5t-26 -23t-10 -38.5q0 -20 7 -32.5t19 -20t28 -10.5t33 -3q42 0 65 14t34 33.5t13.5 39.5t2.5 32v53zM118 694
h353v-75h-353v75z" />
    <glyph glyph-name="uni0102" unicode="&#x102;" horiz-adv-x="685" 
d="M264 714h161l267 -714h-163l-54 159h-267l-56 -159h-159zM434 276l-90 262h-2l-93 -262h185zM242 921q3 -19 13 -31.5t24.5 -20.5t30.5 -11.5t31 -3.5q45 0 73 16t37 51h63q-10 -75 -56.5 -108.5t-121.5 -33.5q-72 0 -112.5 36.5t-46.5 105.5h65z" />
    <glyph glyph-name="uni0103" unicode="&#x103;" horiz-adv-x="574" 
d="M48 358q3 49 25 82.5t56 53.5t76 28.5t86 8.5q39 0 79 -5.5t73 -21.5t54 -45t21 -75v-269q0 -35 4 -67t14 -48h-144q-4 12 -6.5 24.5t-3.5 25.5q-34 -35 -80 -49.5t-94 -14.5q-37 0 -69 9.5t-56 28.5t-37.5 48t-13.5 69q0 50 19.5 80t50 47t68.5 24t74 11q33 4 58 7.5
t41.5 10.5t24.5 17.5t8 27.5q0 22 -7.5 36t-20 21.5t-29 10t-35.5 2.5q-42 0 -66 -18t-28 -60h-142zM376 253q-11 -11 -34 -16t-52 -9q-22 -3 -43 -7t-37 -12.5t-26 -23t-10 -38.5q0 -20 7 -32.5t19 -20t28 -10.5t33 -3q42 0 65 14t34 33.5t13.5 39.5t2.5 32v53zM193 731
q3 -19 13 -31.5t24.5 -20.5t30.5 -11.5t31 -3.5q45 0 73 16t37 51h63q-10 -75 -56.5 -108.5t-121.5 -33.5q-72 0 -112.5 36.5t-46.5 105.5h65z" />
    <glyph glyph-name="Aogonek" unicode="&#x104;" horiz-adv-x="685" 
d="M558 -217q-9 0 -27 2t-36 11t-31 27t-13 50q0 7 2 19t13 28.5t34 37.5q21 20 59 42h-30l-54 159h-267l-56 -159h-158l270 714h161l267 -714h-66q-45 -41 -62 -68q-17 -29 -17 -55q0 -15 12 -24.5t27 -9.5q16 0 30 5.5t28 24.5l48 -22q-30 -38 -65 -53t-69 -15zM434 276
l-90 262h-2l-93 -262h185z" />
    <glyph glyph-name="aogonek" unicode="&#x105;" horiz-adv-x="574" 
d="M402 -217q-9 0 -27 2t-36 11t-31 27t-13 50q0 7 2 19t13 28.5t34 37.5q21 20 59 42h-11q-4 12 -6.5 24.5t-3.5 25.5q-34 -35 -80 -49t-94 -14q-37 0 -69 9t-56 28t-37.5 48t-13.5 69q0 44 15.5 72.5t40 45.5t56 25.5t63.5 13.5t63 8t55 9t38 17.5t13 33.5q0 23 -7.5 36.5
t-20 21t-29 10t-35.5 2.5q-42 0 -66 -18t-28 -60h-142q3 50 25 83t56 53t76.5 28.5t85.5 8.5q39 0 79 -5.5t73 -21.5t54 -44.5t21 -75.5v-269q0 -35 4 -67t14 -48h-66q-45 -41 -62 -68q-17 -29 -17 -55q0 -15 12 -24.5t27 -9.5q16 0 30 5.5t28 24.5l48 -22q-30 -38 -65 -53
t-69 -15zM261 81q42 0 65 14t34 33.5t13.5 39.5t2.5 32v53q-9 -8 -22.5 -12.5t-29 -7.5t-32.5 -5t-34 -5q-16 -3 -31.5 -8t-27 -13.5t-18.5 -21.5t-7 -33q0 -19 7 -32t19 -20.5t28 -10.5t33 -3z" />
    <glyph glyph-name="Cacute" unicode="&#x106;" horiz-adv-x="741" 
d="M545 474q-4 27 -18 49.5t-35 39.5t-47.5 26.5t-55.5 9.5q-53 0 -90 -20.5t-60 -55t-33.5 -78.5t-10.5 -91q0 -45 10.5 -87.5t33.5 -76.5t60 -54.5t90 -20.5q72 0 112.5 44t49.5 116h152q-6 -67 -31 -121t-66 -92t-96 -58t-121 -20q-82 0 -147.5 28.5t-110.5 78.5
t-69 117.5t-24 145.5q0 80 24 148.5t69 119.5t110.5 80t147.5 29q59 0 111.5 -17t94 -49.5t68.5 -80.5t34 -110h-152zM304 778l96 142h157l-154 -142h-99z" />
    <glyph glyph-name="cacute" unicode="&#x107;" horiz-adv-x="574" 
d="M406 335q-14 89 -105 89q-34 0 -57 -15.5t-37.5 -40t-20.5 -54t-6 -58.5q0 -28 6 -57t19.5 -52.5t36.5 -38.5t56 -15q51 0 78.5 28.5t34.5 76.5h137q-14 -103 -80 -157t-169 -54q-58 0 -106.5 19.5t-82.5 54.5t-53 83.5t-19 106.5q0 60 17.5 111.5t51.5 89t83 58.5
t112 21q46 0 88.5 -12t76 -36.5t54.5 -61t24 -86.5h-139zM220 581l96 142h157l-154 -142h-99z" />
    <glyph glyph-name="uni0108" unicode="&#x108;" horiz-adv-x="741" 
d="M38 354q0 79 24 148t69 120t110 80t148 29q58 0 111 -17t94.5 -49.5t68.5 -80.5t34 -110h-152q-4 27 -18 49.5t-35 39.5t-47.5 26.5t-55.5 9.5q-53 0 -90 -20.5t-60 -55t-33.5 -78.5t-10.5 -91q0 -45 10.5 -87.5t33.5 -76.5t60 -54.5t90 -20.5q72 0 112.5 44t49.5 116
h152q-6 -67 -31 -121t-66 -92t-96 -58.5t-121 -20.5q-83 0 -148 29t-110 79t-69 118t-24 145zM321 921h130l110 -142h-115l-62 81l-64 -81h-110z" />
    <glyph glyph-name="uni0109" unicode="&#x109;" horiz-adv-x="574" 
d="M406 335q-14 89 -105 89q-34 0 -57 -15.5t-37.5 -40t-20.5 -54.5t-6 -58t6 -57t19.5 -52.5t36.5 -38.5t56 -15q51 0 78.5 28.5t34.5 76.5h137q-14 -103 -80 -157.5t-169 -54.5q-59 0 -107 19.5t-82 55t-53 84t-19 106.5q0 60 17.5 111.5t51.5 89t83 58.5t112 21
q46 0 88.5 -12t76 -36.5t54.5 -61.5t24 -86h-139zM241 731h130l110 -142h-115l-62 81l-64 -81h-110z" />
    <glyph glyph-name="uni010A" unicode="&#x10a;" horiz-adv-x="741" 
d="M38 354q0 79 24 148t69 120t110 80t148 29q58 0 111 -17t94.5 -49.5t68.5 -80.5t34 -110h-152q-4 27 -18 49.5t-35 39.5t-47.5 26.5t-55.5 9.5q-53 0 -90 -20.5t-60 -55t-33.5 -78.5t-10.5 -91q0 -45 10.5 -87.5t33.5 -76.5t60 -54.5t90 -20.5q72 0 112.5 44t49.5 116
h152q-6 -67 -31 -121t-66 -92t-96 -58.5t-121 -20.5q-83 0 -148 29t-110 79t-69 118t-24 145zM316 905h135v-117h-135v117z" />
    <glyph glyph-name="uni010B" unicode="&#x10b;" horiz-adv-x="574" 
d="M406 335q-14 89 -105 89q-34 0 -57 -15.5t-37.5 -40t-20.5 -54.5t-6 -58t6 -57t19.5 -52.5t36.5 -38.5t56 -15q51 0 78.5 28.5t34.5 76.5h137q-14 -103 -80 -157.5t-169 -54.5q-59 0 -107 19.5t-82 55t-53 84t-19 106.5q0 60 17.5 111.5t51.5 89t83 58.5t112 21
q46 0 88.5 -12t76 -36.5t54.5 -61.5t24 -86h-139zM237 715h135v-117h-135v117z" />
    <glyph glyph-name="uni010C" unicode="&#x10c;" horiz-adv-x="741" 
d="M38 354q0 79 24 148t69 120t110 80t148 29q58 0 111 -17t94.5 -49.5t68.5 -80.5t34 -110h-152q-4 27 -18 49.5t-35 39.5t-47.5 26.5t-55.5 9.5q-53 0 -90 -20.5t-60 -55t-33.5 -78.5t-10.5 -91q0 -45 10.5 -87.5t33.5 -76.5t60 -54.5t90 -20.5q72 0 112.5 44t49.5 116
h152q-6 -67 -31 -121t-66 -92t-96 -58.5t-121 -20.5q-83 0 -148 29t-110 79t-69 118t-24 145zM448 779h-130l-110 142h115l62 -81l64 81h110z" />
    <glyph glyph-name="uni010D" unicode="&#x10d;" horiz-adv-x="574" 
d="M406 335q-14 89 -105 89q-34 0 -57 -15.5t-37.5 -40t-20.5 -54.5t-6 -58t6 -57t19.5 -52.5t36.5 -38.5t56 -15q51 0 78.5 28.5t34.5 76.5h137q-14 -103 -80 -157.5t-169 -54.5q-59 0 -107 19.5t-82 55t-53 84t-19 106.5q0 60 17.5 111.5t51.5 89t83 58.5t112 21
q46 0 88.5 -12t76 -36.5t54.5 -61.5t24 -86h-139zM370 589h-130l-110 142h115l62 -81l64 81h110z" />
    <glyph glyph-name="uni010E" unicode="&#x10e;" horiz-adv-x="741" 
d="M69 714h308q69 0 128.5 -22t103 -66t68 -110.5t24.5 -154.5q0 -78 -20 -144t-60.5 -114t-101 -75.5t-142.5 -27.5h-308v714zM366 132q34 0 66 11t57 36.5t40 66.5t15 100q0 54 -10.5 97.5t-34.5 74.5t-63.5 47.5t-97.5 16.5h-112v-450h140zM397 779h-130l-110 142h115
l62 -81l64 81h110z" />
    <glyph glyph-name="uni010F" unicode="&#x10f;" 
d="M423 66h-2q-25 -42 -65.5 -61t-91.5 -19q-59 0 -102.5 23t-72 61.5t-43 88.5t-14.5 104q0 52 14.5 100.5t43 85.5t71.5 59.5t100 22.5q46 0 87.5 -19.5t65.5 -57.5h2v260h142v-714h-135v66zM421 260q0 31 -6 61t-20.5 52.5t-38 36.5t-57.5 14q-35 0 -59 -14t-38.5 -37
t-21 -53t-6.5 -61q0 -30 7 -60t22.5 -53.5t39 -38t56.5 -14.5q35 0 58.5 14t37.5 37.5t20 53.5t6 62zM703 572h-98l31 142h148z" />
    <glyph glyph-name="uni0110" unicode="&#x110;" horiz-adv-x="741" 
d="M69 320h-73v98h73v296h308q69 0 128.5 -22t103 -66t68 -110.5t24.5 -154.5q0 -78 -20 -144t-60.5 -114t-101 -75.5t-142.5 -27.5h-308v320zM226 418h160v-99h-160v-187h140q34 0 66 11t57 36.5t40 66.5t15 100q0 54 -10.5 97.5t-34.5 74.5t-63.5 47.5t-97.5 16.5h-112
v-164z" />
    <glyph glyph-name="uni0111" unicode="&#x111;" horiz-adv-x="621" 
d="M258 644h158v70h142v-70h81v-76h-81v-568h-135v66h-2q-25 -42 -65.5 -61t-91.5 -19q-59 0 -102.5 23t-72 61.5t-43 88.5t-14.5 104q0 52 14.5 100.5t43 85.5t71.5 59.5t100 22.5q46 0 87.5 -19.5t65.5 -57.5h2v114h-158v76zM421 260q0 31 -6 61t-20.5 52.5t-38 36.5
t-57.5 14q-35 0 -59 -14t-38.5 -37t-21 -53t-6.5 -61q0 -30 7 -60t22.5 -53.5t39 -38t56.5 -14.5q35 0 58.5 14t37.5 37.5t20 53.5t6 62z" />
    <glyph glyph-name="uni0112" unicode="&#x112;" horiz-adv-x="648" 
d="M69 714h534v-132h-377v-153h346v-122h-346v-175h385v-132h-542v714zM155 884h353v-75h-353v75z" />
    <glyph glyph-name="uni0113" unicode="&#x113;" horiz-adv-x="574" 
d="M171 224q3 -69 35 -100t92 -31q43 0 74 21.5t38 45.5h125q-30 -93 -92 -133.5t-150 -40.5q-61 0 -110 20t-83 56t-52.5 86t-18.5 110q0 58 19 108t54 86.5t83.5 57.5t107.5 21q66 0 115 -25.5t80.5 -68.5t45.5 -98t10 -115h-373zM402 314q-10 54 -35.5 82t-77.5 28
q-35 0 -57 -11.5t-35.5 -28.5t-19 -36t-6.5 -34h231zM117 694h353v-75h-353v75z" />
    <glyph glyph-name="uni0114" unicode="&#x114;" horiz-adv-x="648" 
d="M69 714h534v-132h-377v-153h346v-122h-346v-175h385v-132h-542v714zM230 921q3 -19 13 -31.5t24.5 -20.5t30.5 -11.5t31 -3.5q45 0 73 16t37 51h63q-10 -75 -56.5 -108.5t-121.5 -33.5q-72 0 -112.5 36.5t-46.5 105.5h65z" />
    <glyph glyph-name="uni0115" unicode="&#x115;" horiz-adv-x="574" 
d="M171 224q3 -69 35 -100t92 -31q43 0 74 21.5t38 45.5h125q-30 -93 -92 -133.5t-150 -40.5q-61 0 -110 20t-83 56t-52.5 86t-18.5 110q0 58 19 108t54 86.5t83.5 57.5t107.5 21q66 0 115 -25.5t80.5 -68.5t45.5 -98t10 -115h-373zM402 314q-10 54 -35.5 82t-77.5 28
q-35 0 -57 -11.5t-35.5 -28.5t-19 -36t-6.5 -34h231zM192 731q3 -19 13 -31.5t24.5 -20.5t30.5 -11.5t31 -3.5q45 0 73 16t37 51h63q-10 -75 -56.5 -108.5t-121.5 -33.5q-72 0 -112.5 36.5t-46.5 105.5h65z" />
    <glyph glyph-name="uni0116" unicode="&#x116;" horiz-adv-x="648" 
d="M69 714h534v-132h-377v-153h346v-122h-346v-175h385v-132h-542v714zM263 905h135v-117h-135v117z" />
    <glyph glyph-name="uni0117" unicode="&#x117;" horiz-adv-x="574" 
d="M171 224q3 -69 35 -100t92 -31q43 0 74 21.5t38 45.5h125q-30 -93 -92 -133.5t-150 -40.5q-61 0 -110 20t-83 56t-52.5 86t-18.5 110q0 58 19 108t54 86.5t83.5 57.5t107.5 21q66 0 115 -25.5t80.5 -68.5t45.5 -98t10 -115h-373zM402 314q-10 54 -35.5 82t-77.5 28
q-35 0 -57 -11.5t-35.5 -28.5t-19 -36t-6.5 -34h231zM225 715h135v-117h-135v117z" />
    <glyph glyph-name="Eogonek" unicode="&#x118;" horiz-adv-x="648" 
d="M477 -217q-9 0 -27 2t-36 11t-31 27t-13 50q0 7 2 19t13 28.5t34 37.5q21 20 59 42h-409v714h534v-132h-377v-153h346v-122h-346v-175h385v-132h-66q-45 -41 -62 -68q-17 -29 -17 -55q0 -15 12 -24.5t27 -9.5q16 0 30 5.5t28 24.5l48 -22q-30 -38 -65 -53t-69 -15z" />
    <glyph glyph-name="eogonek" unicode="&#x119;" horiz-adv-x="574" 
d="M277 -217q-9 0 -27 2t-36 11t-31 27t-13 50q0 7 2 19t13 28.5t34 37.5q16 15 40 31q-41 4 -76 17q-49 20 -83 56t-52.5 86t-18.5 110q0 58 19 108t54 86.5t83.5 57.5t107.5 21q66 0 115 -25.5t80.5 -68.5t45.5 -98t10 -115h-373q3 -69 35 -100t92 -31q43 0 74 21.5
t38 45.5h125q-30 -93 -92 -133q-47 -30 -109 -37q-36 -34 -51 -58q-17 -29 -17 -55q0 -15 12 -24.5t27 -9.5q16 0 30 5.5t28 24.5l48 -22q-30 -38 -65 -53t-69 -15zM402 314q-10 54 -35.5 82t-77.5 28q-34 0 -56.5 -11.5t-36 -28.5t-19 -36t-6.5 -34h231z" />
    <glyph glyph-name="uni011A" unicode="&#x11a;" horiz-adv-x="648" 
d="M69 714h534v-132h-377v-153h346v-122h-346v-175h385v-132h-542v714zM397 779h-130l-110 142h115l62 -81l64 81h110z" />
    <glyph glyph-name="uni011B" unicode="&#x11b;" horiz-adv-x="574" 
d="M171 224q3 -69 35 -100t92 -31q43 0 74 21.5t38 45.5h125q-30 -93 -92 -133.5t-150 -40.5q-61 0 -110 20t-83 56t-52.5 86t-18.5 110q0 58 19 108t54 86.5t83.5 57.5t107.5 21q66 0 115 -25.5t80.5 -68.5t45.5 -98t10 -115h-373zM402 314q-10 54 -35.5 82t-77.5 28
q-35 0 -57 -11.5t-35.5 -28.5t-19 -36t-6.5 -34h231zM359 589h-130l-110 142h115l62 -81l64 81h110z" />
    <glyph glyph-name="uni011C" unicode="&#x11c;" horiz-adv-x="759" 
d="M38 354q0 79 24 148t69 120t110 80t148 29q55 0 106.5 -16.5t92.5 -48.5t68.5 -79t33.5 -108h-150q-14 60 -54 90t-97 30q-53 0 -90 -20.5t-60 -55t-33.5 -78.5t-10.5 -91q0 -45 10.5 -87.5t33.5 -76.5t60 -54.5t90 -20.5q78 0 120.5 39.5t49.5 114.5h-158v117h300v-386
h-100l-16 81q-42 -54 -93 -76t-103 -22q-83 0 -148 29t-110 79t-69 118t-24 145zM321 921h130l110 -142h-115l-62 81l-64 -81h-110z" />
    <glyph glyph-name="uni011D" unicode="&#x11d;" 
d="M551 33q0 -32 -8.5 -71.5t-36.5 -74.5t-81 -59t-142 -24q-38 0 -77.5 9.5t-72 29.5t-54 51.5t-24.5 75.5h141q10 -40 39 -55.5t67 -15.5q60 0 87.5 35.5t26.5 92.5v68h-2q-23 -41 -65.5 -60.5t-89.5 -19.5q-59 0 -100.5 20.5t-68.5 56t-39.5 83t-12.5 100.5
q0 50 14.5 96.5t42.5 82t69.5 56.5t95.5 21q51 0 89.5 -19t64.5 -64h2v69h135v-484zM295 122q30 0 53 12t38 32t22.5 45.5t7.5 53.5q0 31 -6 60t-20 51t-37.5 35t-57.5 13q-30 0 -51.5 -12t-36 -32.5t-21 -47t-6.5 -55.5q0 -28 5.5 -55.5t19 -49.5t35.5 -36t55 -14zM246 731
h130l110 -142h-115l-62 81l-64 -81h-110z" />
    <glyph glyph-name="uni011E" unicode="&#x11e;" horiz-adv-x="759" 
d="M38 354q0 79 24 148t69 120t110 80t148 29q55 0 106.5 -16.5t92.5 -48.5t68.5 -79t33.5 -108h-150q-14 60 -54 90t-97 30q-53 0 -90 -20.5t-60 -55t-33.5 -78.5t-10.5 -91q0 -45 10.5 -87.5t33.5 -76.5t60 -54.5t90 -20.5q78 0 120.5 39.5t49.5 114.5h-158v117h300v-386
h-100l-16 81q-42 -54 -93 -76t-103 -22q-83 0 -148 29t-110 79t-69 118t-24 145zM283 921q3 -19 13 -31.5t24.5 -20.5t30.5 -11.5t31 -3.5q45 0 73 16t37 51h63q-10 -75 -56.5 -108.5t-121.5 -33.5q-72 0 -112.5 36.5t-46.5 105.5h65z" />
    <glyph glyph-name="uni011F" unicode="&#x11f;" 
d="M551 33q0 -32 -8.5 -71.5t-36.5 -74.5t-81 -59t-142 -24q-38 0 -77.5 9.5t-72 29.5t-54 51.5t-24.5 75.5h141q10 -40 39 -55.5t67 -15.5q60 0 87.5 35.5t26.5 92.5v68h-2q-23 -41 -65.5 -60.5t-89.5 -19.5q-59 0 -100.5 20.5t-68.5 56t-39.5 83t-12.5 100.5
q0 50 14.5 96.5t42.5 82t69.5 56.5t95.5 21q51 0 89.5 -19t64.5 -64h2v69h135v-484zM295 122q30 0 53 12t38 32t22.5 45.5t7.5 53.5q0 31 -6 60t-20 51t-37.5 35t-57.5 13q-30 0 -51.5 -12t-36 -32.5t-21 -47t-6.5 -55.5q0 -28 5.5 -55.5t19 -49.5t35.5 -36t55 -14zM208 731
q3 -19 13 -31.5t24.5 -20.5t30.5 -11.5t31 -3.5q45 0 73 16t37 51h63q-10 -75 -56.5 -108.5t-121.5 -33.5q-72 0 -112.5 36.5t-46.5 105.5h65z" />
    <glyph glyph-name="uni0120" unicode="&#x120;" horiz-adv-x="759" 
d="M38 354q0 79 24 148t69 120t110 80t148 29q55 0 106.5 -16.5t92.5 -48.5t68.5 -79t33.5 -108h-150q-14 60 -54 90t-97 30q-53 0 -90 -20.5t-60 -55t-33.5 -78.5t-10.5 -91q0 -45 10.5 -87.5t33.5 -76.5t60 -54.5t90 -20.5q78 0 120.5 39.5t49.5 114.5h-158v117h300v-386
h-100l-16 81q-42 -54 -93 -76t-103 -22q-83 0 -148 29t-110 79t-69 118t-24 145zM316 905h135v-117h-135v117z" />
    <glyph glyph-name="uni0121" unicode="&#x121;" 
d="M551 33q0 -32 -8.5 -71.5t-36.5 -74.5t-81 -59t-142 -24q-38 0 -77.5 9.5t-72 29.5t-54 51.5t-24.5 75.5h141q10 -40 39 -55.5t67 -15.5q60 0 87.5 35.5t26.5 92.5v68h-2q-23 -41 -65.5 -60.5t-89.5 -19.5q-59 0 -100.5 20.5t-68.5 56t-39.5 83t-12.5 100.5
q0 50 14.5 96.5t42.5 82t69.5 56.5t95.5 21q51 0 89.5 -19t64.5 -64h2v69h135v-484zM295 122q30 0 53 12t38 32t22.5 45.5t7.5 53.5q0 31 -6 60t-20 51t-37.5 35t-57.5 13q-30 0 -51.5 -12t-36 -32.5t-21 -47t-6.5 -55.5q0 -28 5.5 -55.5t19 -49.5t35.5 -36t55 -14zM241 715
h135v-117h-135v117z" />
    <glyph glyph-name="uni0122" unicode="&#x122;" horiz-adv-x="759" 
d="M38 354q0 79 24 148t69 120t110 80t148 29q55 0 106.5 -16.5t92.5 -48.5t68.5 -79t33.5 -108h-150q-14 60 -54 90t-97 30q-53 0 -90 -20.5t-60 -55t-33.5 -78.5t-10.5 -91q0 -45 10.5 -87.5t33.5 -76.5t60 -54.5t90 -20.5q78 0 120.5 39.5t49.5 114.5h-158v117h300v-386
h-100l-16 81q-42 -54 -93 -76t-103 -22q-83 0 -148 29t-110 79t-69 118t-24 145zM307 -50h145v-73q0 -32 -10.5 -50.5t-28.5 -28t-43 -12.5t-53 -3v37q24 2 38 10t19 27h-67v93z" />
    <glyph glyph-name="uni0123" unicode="&#x123;" 
d="M551 33q0 -32 -8.5 -71.5t-36.5 -74.5t-81 -59t-142 -24q-38 0 -77.5 9.5t-72 29.5t-54 51.5t-24.5 75.5h141q10 -40 39 -55.5t67 -15.5q60 0 87.5 35.5t26.5 92.5v68h-2q-23 -41 -65.5 -60.5t-89.5 -19.5q-59 0 -100.5 20.5t-68.5 56t-39.5 83t-12.5 100.5
q0 50 14.5 96.5t42.5 82t69.5 56.5t95.5 21q51 0 89.5 -19t64.5 -64h2v69h135v-484zM295 122q30 0 53 12t38 32t22.5 45.5t7.5 53.5q0 31 -6 60t-20 51t-37.5 35t-57.5 13q-30 0 -51.5 -12t-36 -32.5t-21 -47t-6.5 -55.5q0 -28 5.5 -55.5t19 -49.5t35.5 -36t55 -14zM380 621
h-145v73q0 31 10.5 50t28.5 28.5t42.5 12.5t53.5 3v-37q-24 -2 -38 -10t-19 -27h67v-93z" />
    <glyph glyph-name="uni0124" unicode="&#x124;" horiz-adv-x="741" 
d="M69 714h157v-274h289v274h157v-714h-157v308h-289v-308h-157v714zM306 921h130l110 -142h-115l-62 81l-64 -81h-110z" />
    <glyph glyph-name="uni0125" unicode="&#x125;" horiz-adv-x="593" 
d="M54 714h142v-269h3q27 45 69 65.5t82 20.5q57 0 93.5 -15.5t57.5 -43t29.5 -67t8.5 -87.5v-318h-142v292q0 64 -20 95.5t-71 31.5q-58 0 -84 -34.5t-26 -113.5v-271h-142v714zM221 921h130l110 -142h-115l-62 81l-64 -81h-110z" />
    <glyph glyph-name="uni0126" unicode="&#x126;" horiz-adv-x="741" 
d="M69 714h157v-109h289v109h157v-714h-157v281h-289v-281h-157v714zM515 403v113h-289v-113h289z" />
    <glyph glyph-name="uni0127" unicode="&#x127;" horiz-adv-x="603" 
d="M64 568h-81v76h81v70h142v-70h158v-76h-158v-123h3q27 45 69 65.5t82 20.5q57 0 93.5 -15.5t57.5 -43t29.5 -67t8.5 -87.5v-318h-142v292q0 64 -20 95.5t-71 31.5q-58 0 -84 -34.5t-26 -113.5v-271h-142v568z" />
    <glyph glyph-name="uni0128" unicode="&#x128;" horiz-adv-x="295" 
d="M69 714h157v-714h-157v714zM219 797q-23 0 -42.5 5.5t-36.5 11.5l-35 12q-17 5 -33 5q-19 0 -29.5 -11.5t-15.5 -30.5h-63q3 22 11.5 44t23.5 39t35.5 28t46.5 11q20 0 39 -5.5t37 -11.5l35 -12q16 -6 32 -6q18 0 28 8t15 27h64q-5 -23 -12.5 -43.5t-20.5 -36t-32.5 -25
t-46.5 -9.5z" />
    <glyph glyph-name="uni0129" unicode="&#x129;" horiz-adv-x="258" 
d="M58 517h142v-517h-142v517zM201 607q-23 0 -42.5 5.5t-36.5 11.5l-35 12q-17 5 -33 5q-19 0 -29.5 -11.5t-15.5 -30.5h-63q3 22 11.5 44t23.5 39t35.5 28t46.5 11q20 0 39 -5.5t37 -11.5l35 -12q16 -6 32 -6q18 0 28 8t15 27h64q-5 -23 -12.5 -43.5t-20.5 -36t-32.5 -25
t-46.5 -9.5z" />
    <glyph glyph-name="uni012A" unicode="&#x12a;" horiz-adv-x="295" 
d="M69 714h157v-714h-157v714zM-30 884h353v-75h-353v75z" />
    <glyph glyph-name="uni012B" unicode="&#x12b;" horiz-adv-x="258" 
d="M58 517h142v-517h-142v517zM-47 694h353v-75h-353v75z" />
    <glyph glyph-name="uni012C" unicode="&#x12c;" horiz-adv-x="295" 
d="M69 714h157v-714h-157v714zM45 921q3 -19 13 -31.5t24.5 -20.5t30.5 -11.5t31 -3.5q45 0 73 16t37 51h63q-10 -75 -56.5 -108.5t-121.5 -33.5q-72 0 -112.5 36.5t-46.5 105.5h65z" />
    <glyph glyph-name="uni012D" unicode="&#x12d;" horiz-adv-x="258" 
d="M58 517h142v-517h-142v517zM28 731q3 -19 13 -31.5t24.5 -20.5t30.5 -11.5t31 -3.5q45 0 73 16t37 51h63q-10 -75 -56.5 -108.5t-121.5 -33.5q-72 0 -112.5 36.5t-46.5 105.5h65z" />
    <glyph glyph-name="uni012E" unicode="&#x12e;" horiz-adv-x="295" 
d="M69 714h157v-714q-29 -24 -46 -41.5t-26 -32t-11.5 -26t-2.5 -21.5q0 -18 9 -27t23 -9t25 7.5t21 20.5l41 -26q-23 -32 -47.5 -47t-61.5 -15q-48 0 -75 22.5t-27 60.5q0 35 26.5 67.5t83.5 66.5h-89v714z" />
    <glyph glyph-name="uni012F" unicode="&#x12f;" horiz-adv-x="258" 
d="M200 597h-142v117h142v-117zM58 517h142v-517q-25 -24 -40 -41.5t-23.5 -32t-11 -26t-2.5 -21.5q0 -18 9 -27t23 -9t25 7.5t21 20.5l41 -26q-23 -32 -47.5 -47t-61.5 -15q-48 0 -75 22.5t-27 60.5q0 35 26.5 67.5t80.5 66.5h-80v517z" />
    <glyph glyph-name="uni0130" unicode="&#x130;" horiz-adv-x="295" 
d="M69 714h157v-714h-157v714zM80 905h135v-117h-135v117z" />
    <glyph glyph-name="dotlessi" unicode="&#x131;" horiz-adv-x="258" 
d="M58 517v-517h142v517h-142z" />
    <glyph glyph-name="uni0132" unicode="&#x132;" horiz-adv-x="845" 
d="M69 714h157v-714h-157v714zM303 266h142v-32q0 -26 4 -48t14 -37.5t27.5 -24.5t45.5 -9q31 0 48 11t24.5 28.5t9 38t1.5 39.5v482h157v-489q0 -23 -3 -50t-11.5 -54t-24.5 -51.5t-42.5 -44t-65 -31t-91.5 -11.5q-45 0 -87 12.5t-75 39.5t-53 68.5t-20 100.5v62z" />
    <glyph glyph-name="uni0133" unicode="&#x133;" horiz-adv-x="524" 
d="M200 597h-142v117h142v-117zM58 517h142v-517h-142v517zM455 597h-142v117h142v-117zM227 -61q11 -4 31 -4q22 0 38.5 8.5t16.5 37.5v536h142v-543q0 -40 -8.5 -69t-29 -48.5t-55.5 -29t-89 -9.5q-11 0 -23 1t-23 3v117z" />
    <glyph glyph-name="uni0134" unicode="&#x134;" horiz-adv-x="556" 
d="M14 266h142v-32q0 -26 4 -48t14 -37.5t27.5 -24.5t45.5 -9q31 0 48 11t24.5 28.5t9 38t1.5 39.5v482h157v-489q0 -23 -3 -50t-11.5 -54t-24.5 -51.5t-42.5 -44t-65 -31t-91.5 -11.5q-45 0 -87 12.5t-75 39.5t-53 68.5t-20 100.5v62zM339 921h130l110 -142h-115l-62 81
l-64 -81h-110z" />
    <glyph glyph-name="uni0135" unicode="&#x135;" horiz-adv-x="278" 
d="M-19 -61q11 -4 31 -4q22 0 38.5 8.5t16.5 37.5v536h142v-543q0 -40 -8.5 -69t-29 -48.5t-55.5 -29t-89 -9.5q-11 0 -23 1t-23 3v117zM71 731h130l110 -142h-115l-62 81l-64 -81h-110z" />
    <glyph glyph-name="uni0136" unicode="&#x136;" horiz-adv-x="722" 
d="M69 714h157v-296l279 296h196l-279 -282l306 -432h-197l-215 321l-90 -91v-230h-157v714zM298 -50h145v-73q0 -32 -10.5 -50.5t-28.5 -28t-43 -12.5t-53 -3v37q24 2 38 10t19 27h-67v93z" />
    <glyph glyph-name="uni0137" unicode="&#x137;" horiz-adv-x="574" 
d="M67 714h142v-383l179 186h168l-195 -190l217 -327h-172l-142 231l-55 -53v-178h-142v714zM235 -50h145v-73q0 -32 -10.5 -50.5t-28.5 -28t-43 -12.5t-53 -3v37q24 2 38 10t19 27h-67v93z" />
    <glyph glyph-name="uni0138" unicode="&#x138;" horiz-adv-x="565" 
d="M54 517h142v-204l179 204h168l-194 -202l217 -315h-172l-140 216l-58 -56v-160h-142v517z" />
    <glyph glyph-name="uni0139" unicode="&#x139;" horiz-adv-x="593" 
d="M69 714h157v-582h348v-132h-505v714zM194 779h-99l96 142h157z" />
    <glyph glyph-name="uni013A" unicode="&#x13a;" horiz-adv-x="258" 
d="M58 714h142v-714h-142v714zM159 779h-99l96 142h157z" />
    <glyph glyph-name="uni013B" unicode="&#x13b;" horiz-adv-x="593" 
d="M69 714h157v-582h348v-132h-505v714zM246 -50h145v-73q0 -32 -10.5 -50.5t-28.5 -28t-43 -12.5t-53 -3v37q24 2 38 10t19 27h-67v93z" />
    <glyph glyph-name="uni013C" unicode="&#x13c;" horiz-adv-x="258" 
d="M58 714h142v-714h-142v714zM56 -50h145v-73q0 -32 -10.5 -50.5t-28.5 -28t-43 -12.5t-53 -3v37q24 2 38 10t19 27h-67v93z" />
    <glyph glyph-name="uni013D" unicode="&#x13d;" horiz-adv-x="593" 
d="M69 714h157v-582h348v-132h-505v714zM402 572h-98l31 142h148z" />
    <glyph glyph-name="uni013E" unicode="&#x13e;" horiz-adv-x="388" 
d="M58 714h142v-714h-142v714zM384 402h-109v312h109v-312z" />
    <glyph glyph-name="uni013F" unicode="&#x13f;" horiz-adv-x="593" 
d="M69 714h157v-582h348v-132h-505v714zM340 450h135v-117h-135v117z" />
    <glyph glyph-name="uni0140" unicode="&#x140;" horiz-adv-x="410" 
d="M58 714h142v-714h-142v714zM261 450h135v-117h-135v117z" />
    <glyph glyph-name="Lslash" unicode="&#x141;" horiz-adv-x="593" 
d="M69 214v-214h505v132h-348v192l211 148v112l-211 -148v278h-157v-388l-79 -56v-112z" />
    <glyph glyph-name="lslash" unicode="&#x142;" horiz-adv-x="258" 
d="M58 286v-286h142v398l67 53v102l-67 -53v214h-142v-326l-66 -53v-102z" />
    <glyph glyph-name="Nacute" unicode="&#x143;" horiz-adv-x="741" 
d="M225 714l298 -479h2v479h147v-714h-157l-297 478h-2v-478h-147v714h156zM304 778l96 142h157l-154 -142h-99z" />
    <glyph glyph-name="nacute" unicode="&#x144;" horiz-adv-x="593" 
d="M189 517v-72h3q27 45 70 65.5t88 20.5q57 0 93.5 -15.5t57.5 -43t29.5 -67t8.5 -87.5v-318h-142v292q0 64 -20 95.5t-71 31.5q-58 0 -84 -34.5t-26 -113.5v-271h-142v517h135zM210 581l96 142h157l-154 -142h-99z" />
    <glyph glyph-name="uni0145" unicode="&#x145;" horiz-adv-x="741" 
d="M69 714h156l298 -479h2v479h147v-714h-157l-297 478h-2v-478h-147v714zM300 -50h145v-73q0 -32 -10.5 -50.5t-28.5 -28t-43 -12.5t-53 -3v37q24 2 38 10t19 27h-67v93z" />
    <glyph glyph-name="uni0146" unicode="&#x146;" horiz-adv-x="593" 
d="M54 517h135v-72h3q27 45 70 65.5t88 20.5q57 0 93.5 -15.5t57.5 -43t29.5 -67t8.5 -87.5v-318h-142v292q0 64 -20 95.5t-71 31.5q-58 0 -84 -34.5t-26 -113.5v-271h-142v517zM221 -50h145v-73q0 -32 -10.5 -50.5t-28.5 -28t-43 -12.5t-53 -3v37q24 2 38 10t19 27h-67v93z
" />
    <glyph glyph-name="uni0147" unicode="&#x147;" horiz-adv-x="741" 
d="M69 714h156l298 -479h2v479h147v-714h-157l-297 478h-2v-478h-147v714zM431 779h-130l-110 142h115l62 -81l64 81h110z" />
    <glyph glyph-name="uni0148" unicode="&#x148;" horiz-adv-x="593" 
d="M54 517h135v-72h3q27 45 70 65.5t88 20.5q57 0 93.5 -15.5t57.5 -43t29.5 -67t8.5 -87.5v-318h-142v292q0 64 -20 95.5t-71 31.5q-58 0 -84 -34.5t-26 -113.5v-271h-142v517zM361 589h-130l-110 142h115l62 -81l64 81h110z" />
    <glyph glyph-name="uni0149" unicode="&#x149;" horiz-adv-x="737" 
d="M198 517h135v-72h3q27 45 70 65.5t88 20.5q57 0 93.5 -15.5t57.5 -43t29.5 -67t8.5 -87.5v-318h-142v292q0 64 -20 95.5t-71 31.5q-58 0 -84 -34.5t-26 -113.5v-271h-142v517zM20 714h142v-153q1 -33 -9.5 -62t-29.5 -51t-45.5 -36.5t-57.5 -18.5v66q38 13 52 38.5
t14 62.5h-66v154z" />
    <glyph glyph-name="uni014A" unicode="&#x14a;" horiz-adv-x="741" 
d="M69 714h156l298 -471h2v471h147v-715q0 -45 -10 -79t-33.5 -56.5t-61.5 -34t-94 -11.5q-33 0 -76 6v121q36 -6 58 -6q30 0 50.5 14.5t21.5 46.5l-309 478h-2v-478h-147v714z" />
    <glyph glyph-name="uni014B" unicode="&#x14b;" horiz-adv-x="593" 
d="M289 -61q23 -4 45 -4q26 0 44.5 15t18.5 49v293q0 64 -20 95.5t-71 31.5q-58 0 -84 -34.5t-26 -113.5v-271h-142v517h135v-72h3q27 45 70 65.5t88 20.5q57 0 93.5 -15.5t57.5 -43t29.5 -67t8.5 -87.5v-324q0 -42 -9 -75t-31 -55.5t-59 -34t-93 -11.5q-11 0 -26 1t-32 3
v117z" />
    <glyph glyph-name="uni014C" unicode="&#x14c;" horiz-adv-x="778" 
d="M38 354q0 79 24 148t69 120t110 80t148 29q82 0 147.5 -29t110.5 -80t69 -120t24 -148q0 -77 -24 -145t-69 -118t-110.5 -79t-147.5 -29q-83 0 -148 29t-110 79t-69 118t-24 145zM195 354q0 -45 10.5 -87.5t33.5 -76.5t60 -54.5t90 -20.5t90 20.5t60 54.5t33.5 76.5
t10.5 87.5q0 47 -10.5 91t-33.5 78.5t-60 55t-90 20.5t-90 -20.5t-60 -55t-33.5 -78.5t-10.5 -91zM213 884h353v-75h-353v75z" />
    <glyph glyph-name="uni014D" unicode="&#x14d;" 
d="M38 258q0 62 19 112.5t54 86t84 55t110 19.5t110.5 -19.5t84.5 -55t54 -86t19 -112.5t-19 -112t-54 -85.5t-84.5 -55t-110.5 -19.5t-110 19.5t-84 55t-54 85.5t-19 112zM180 258q0 -31 6 -60.5t20.5 -53t38.5 -37.5t60 -14t60.5 14t39 37.5t20.5 53t6 60.5t-6 61
t-20.5 53t-39 37.5t-60.5 14.5t-60 -14.5t-38.5 -37.5t-20.5 -53t-6 -61zM130 694h353v-75h-353v75z" />
    <glyph glyph-name="uni014E" unicode="&#x14e;" horiz-adv-x="778" 
d="M38 354q0 79 24 148t69 120t110 80t148 29q82 0 147.5 -29t110.5 -80t69 -120t24 -148q0 -77 -24 -145t-69 -118t-110.5 -79t-147.5 -29q-83 0 -148 29t-110 79t-69 118t-24 145zM195 354q0 -45 10.5 -87.5t33.5 -76.5t60 -54.5t90 -20.5t90 20.5t60 54.5t33.5 76.5
t10.5 87.5q0 47 -10.5 91t-33.5 78.5t-60 55t-90 20.5t-90 -20.5t-60 -55t-33.5 -78.5t-10.5 -91zM288 921q3 -19 13 -31.5t24.5 -20.5t30.5 -11.5t31 -3.5q45 0 73 16t37 51h63q-10 -75 -56.5 -108.5t-121.5 -33.5q-72 0 -112.5 36.5t-46.5 105.5h65z" />
    <glyph glyph-name="uni014F" unicode="&#x14f;" 
d="M38 258q0 62 19 112.5t54 86t84 55t110 19.5t110.5 -19.5t84.5 -55t54 -86t19 -112.5t-19 -112t-54 -85.5t-84.5 -55t-110.5 -19.5t-110 19.5t-84 55t-54 85.5t-19 112zM180 258q0 -31 6 -60.5t20.5 -53t38.5 -37.5t60 -14t60.5 14t39 37.5t20.5 53t6 60.5t-6 61
t-20.5 53t-39 37.5t-60.5 14.5t-60 -14.5t-38.5 -37.5t-20.5 -53t-6 -61zM205 731q3 -19 13 -31.5t24.5 -20.5t30.5 -11.5t31 -3.5q45 0 73 16t37 51h63q-10 -75 -56.5 -108.5t-121.5 -33.5q-72 0 -112.5 36.5t-46.5 105.5h65z" />
    <glyph glyph-name="uni0150" unicode="&#x150;" horiz-adv-x="778" 
d="M38 354q0 79 24 148t69 120t110 80t148 29q82 0 147.5 -29t110.5 -80t69 -120t24 -148q0 -77 -24 -145t-69 -118t-110.5 -79t-147.5 -29q-83 0 -148 29t-110 79t-69 118t-24 145zM195 354q0 -45 10.5 -87.5t33.5 -76.5t60 -54.5t90 -20.5t90 20.5t60 54.5t33.5 76.5
t10.5 87.5q0 47 -10.5 91t-33.5 78.5t-60 55t-90 20.5t-90 -20.5t-60 -55t-33.5 -78.5t-10.5 -91zM530 779h-99l91 142h157zM323 779h-99l91 142h157z" />
    <glyph glyph-name="uni0151" unicode="&#x151;" 
d="M38 258q0 62 19 112.5t54 86t84 55t110 19.5t110.5 -19.5t84.5 -55t54 -86t19 -112.5t-19 -112t-54 -85.5t-84.5 -55t-110.5 -19.5t-110 19.5t-84 55t-54 85.5t-19 112zM180 258q0 -31 6 -60.5t20.5 -53t38.5 -37.5t60 -14t60.5 14t39 37.5t20.5 53t6 60.5t-6 61
t-20.5 53t-39 37.5t-60.5 14.5t-60 -14.5t-38.5 -37.5t-20.5 -53t-6 -61zM447 589h-99l91 142h157zM240 589h-99l91 142h157z" />
    <glyph glyph-name="OE" unicode="&#x152;" horiz-adv-x="1093" 
d="M538 448v-170q0 -73 -42.5 -118t-114.5 -45q-50 0 -85.5 21t-58 55t-32.5 77t-10 87q0 45 10 88.5t32.5 78t58.5 56t88 21.5q33 0 61.5 -11t49 -31t32 -47.5t11.5 -61.5zM544 54v-54h507v132h-361v175h324v122h-324v153h354v132h-500v-51h-2q-30 38 -76 53t-93 15
q-79 0 -141.5 -31t-105.5 -83.5t-65.5 -121t-22.5 -142.5t22 -141t64.5 -117.5t104.5 -80.5t141 -30q48 0 94 17.5t78 52.5h2z" />
    <glyph glyph-name="oe" unicode="&#x153;" horiz-adv-x="926" 
d="M528 224h369q0 62 -14 117.5t-44.5 97.5t-78.5 67t-117 25q-23 0 -48 -5.5t-48.5 -16t-43.5 -25.5t-33 -35q-29 45 -78 63.5t-100 18.5q-58 0 -105 -21t-80 -57t-51 -85.5t-18 -106.5q0 -55 15.5 -105t46 -87.5t76 -59.5t105.5 -22q26 0 52.5 4.5t51 15t45 27t34.5 40.5
q30 -48 81.5 -67.5t105.5 -19.5q88 0 152.5 46t89.5 131h-138q-14 -35 -39.5 -53t-64.5 -18q-62 0 -92.5 37.5t-30.5 93.5zM290 93q-32 0 -53 15.5t-34 39.5t-18 52.5t-5 55.5q0 30 5.5 60t18.5 54t34.5 39t54.5 15q36 0 57.5 -16t33.5 -40t16 -53t4 -55q0 -28 -4.5 -57.5
t-17 -54t-34.5 -40t-58 -15.5zM755 314h-227q2 46 30 78t82 32q57 0 85 -29.5t30 -80.5z" />
    <glyph glyph-name="uni0154" unicode="&#x154;" horiz-adv-x="722" 
d="M69 714h385q48 0 86.5 -15.5t66 -42.5t42 -63t14.5 -76q0 -63 -26.5 -109t-86.5 -70v-2q29 -8 48 -25t31 -39.5t17.5 -49t7.5 -53.5q1 -17 2 -40t3.5 -47t8 -45.5t16.5 -36.5h-157q-7 17 -10.5 37.5t-6 43t-4 46t-4.5 44.5q-8 56 -34 82t-85 26h-157v-279h-157v714z
M226 391h172q54 0 81 24t27 78q0 52 -27 75.5t-81 23.5h-172v-201zM378 779h-99l96 142h157z" />
    <glyph glyph-name="uni0155" unicode="&#x155;" horiz-adv-x="389" 
d="M54 517h135v-96h2q10 24 27 44.5t39 35t47 22.5t52 8q14 0 31 -5v-132q-10 2 -24 3.5t-27 1.5q-39 0 -66 -13t-43.5 -35.5t-23.5 -53t-7 -64.5v-233h-142v517zM256 589h-99l96 142h157z" />
    <glyph glyph-name="uni0156" unicode="&#x156;" horiz-adv-x="722" 
d="M69 714h385q48 0 86.5 -15.5t66 -42.5t42 -63t14.5 -76q0 -63 -26.5 -109t-86.5 -70v-2q29 -8 48 -25t31 -39.5t17.5 -49t7.5 -53.5q1 -17 2 -40t3.5 -47t8 -45.5t16.5 -36.5h-157q-7 17 -10.5 37.5t-6 43t-4 46t-4.5 44.5q-8 56 -34 82t-85 26h-157v-279h-157v714z
M226 391h172q54 0 81 24t27 78q0 52 -27 75.5t-81 23.5h-172v-201zM295 -50h145v-73q0 -32 -10.5 -50.5t-28.5 -28t-43 -12.5t-53 -3v37q24 2 38 10t19 27h-67v93z" />
    <glyph glyph-name="uni0157" unicode="&#x157;" horiz-adv-x="389" 
d="M54 517h135v-96h2q10 24 27 44.5t39 35t47 22.5t52 8q14 0 31 -5v-132q-10 2 -24 3.5t-27 1.5q-39 0 -66 -13t-43.5 -35.5t-23.5 -53t-7 -64.5v-233h-142v517zM53 -50h145v-73q0 -32 -10.5 -50.5t-28.5 -28t-43 -12.5t-53 -3v37q24 2 38 10t19 27h-67v93z" />
    <glyph glyph-name="uni0158" unicode="&#x158;" horiz-adv-x="722" 
d="M69 714h385q48 0 86.5 -15.5t66 -42.5t42 -63t14.5 -76q0 -63 -26.5 -109t-86.5 -70v-2q29 -8 48 -25t31 -39.5t17.5 -49t7.5 -53.5q1 -17 2 -40t3.5 -47t8 -45.5t16.5 -36.5h-157q-7 17 -10.5 37.5t-6 43t-4 46t-4.5 44.5q-8 56 -34 82t-85 26h-157v-279h-157v714z
M226 391h172q54 0 81 24t27 78q0 52 -27 75.5t-81 23.5h-172v-201zM403 779h-130l-110 142h115l62 -81l64 81h110z" />
    <glyph glyph-name="uni0159" unicode="&#x159;" horiz-adv-x="389" 
d="M54 517h135v-96h2q10 24 27 44.5t39 35t47 22.5t52 8q14 0 31 -5v-132q-10 2 -24 3.5t-27 1.5q-39 0 -66 -13t-43.5 -35.5t-23.5 -53t-7 -64.5v-233h-142v517zM285 589h-130l-110 142h115l62 -81l64 81h110z" />
    <glyph glyph-name="Sacute" unicode="&#x15a;" horiz-adv-x="649" 
d="M176 237q0 -36 13 -61t34.5 -40.5t50.5 -23t60 -7.5q21 0 45 3.5t45 13.5t35 27.5t14 44.5q0 29 -18.5 47t-48.5 30t-68 21t-77 20q-40 10 -78 24.5t-68 37.5t-48.5 57.5t-18.5 83.5q0 55 23.5 95.5t61.5 67.5t86 40t96 13q56 0 107.5 -12.5t91.5 -40.5t63.5 -71.5
t23.5 -105.5h-152q-2 32 -13.5 53t-30.5 33t-43.5 17t-53.5 5q-19 0 -38 -4t-34.5 -14t-25.5 -25t-10 -38q0 -21 8 -34t31.5 -24t64.5 -22l109 -28q20 -4 55.5 -14.5t70.5 -33.5t60.5 -61.5t25.5 -98.5q0 -49 -19 -91t-56.5 -72.5t-93 -47.5t-128.5 -17q-59 0 -114.5 14.5
t-98 45.5t-67.5 79t-24 114h152zM248 778l96 142h157l-154 -142h-99z" />
    <glyph glyph-name="sacute" unicode="&#x15b;" horiz-adv-x="537" 
d="M164 168q0 -23 9.5 -39.5t24.5 -27t34.5 -15.5t40.5 -5q15 0 31.5 3.5t30 11t22.5 20t9 31.5q0 32 -42.5 48t-118.5 32q-31 7 -60.5 16.5t-52.5 25t-37 39t-14 57.5q0 50 19.5 82t51.5 50.5t72 26t82 7.5t81.5 -8t70.5 -27t51.5 -50.5t24.5 -79.5h-135q-3 41 -31 55.5
t-66 14.5q-12 0 -26 -1.5t-25.5 -6.5t-19.5 -14.5t-8 -25.5q0 -19 14 -31t36.5 -19.5t51.5 -13.5t59 -13q31 -7 60.5 -17t52.5 -26.5t37 -41t14 -60.5q0 -51 -20.5 -85.5t-53.5 -55.5t-75.5 -29.5t-86.5 -8.5q-45 0 -88 9t-76.5 30t-55 55.5t-23.5 86.5h135zM202 581l96 142
h157l-154 -142h-99z" />
    <glyph glyph-name="uni015C" unicode="&#x15c;" horiz-adv-x="649" 
d="M176 237q0 -36 13 -61t34.5 -40.5t50 -23t60.5 -7.5q21 0 45 3.5t45 13.5t35 27.5t14 44.5q0 29 -18.5 47t-48.5 30t-68 21t-77 20q-40 10 -78 24t-68 37.5t-48.5 57.5t-18.5 84q0 55 23.5 95.5t61.5 67.5t86 40t96 13q56 0 107.5 -12.5t91.5 -40.5t63.5 -71.5
t23.5 -105.5h-152q-2 32 -13.5 53t-30.5 33t-44 17t-53 5q-19 0 -38 -4t-34.5 -14t-25.5 -25.5t-10 -37.5q0 -21 8 -34t31.5 -24t64.5 -22l109 -28q20 -5 55.5 -15t70.5 -33t60.5 -61.5t25.5 -98.5q0 -49 -19 -91t-56.5 -72.5t-93 -48t-128.5 -17.5q-59 0 -114.5 15t-98 46
t-67.5 79t-24 114h152zM264 921h130l110 -142h-115l-62 81l-64 -81h-110z" />
    <glyph glyph-name="uni015D" unicode="&#x15d;" horiz-adv-x="537" 
d="M164 168q0 -23 9.5 -39.5t24.5 -27t34.5 -15.5t40.5 -5q15 0 31.5 3.5t30 11t22.5 20t9 31.5q0 32 -42.5 48t-118.5 32q-31 7 -60.5 16.5t-52.5 25t-37 38.5t-14 58q0 49 19.5 81.5t51.5 51t72 26t82 7.5t81.5 -8t70.5 -27t51.5 -50.5t24.5 -79.5h-135q-3 41 -31 55.5
t-66 14.5q-12 0 -26 -1.5t-25.5 -6.5t-19.5 -14.5t-8 -25.5q0 -19 14 -31t36.5 -19.5t51.5 -13.5t59 -13q31 -7 60.5 -17t52.5 -26.5t37 -41t14 -60.5q0 -51 -20.5 -85.5t-53.5 -55.5t-75.5 -30t-86.5 -9q-45 0 -88 9t-76.5 30.5t-55 56.5t-23.5 86h135zM207 731h130
l110 -142h-115l-62 81l-64 -81h-110z" />
    <glyph glyph-name="uni015E" unicode="&#x15e;" horiz-adv-x="649" 
d="M215 -147q16 -7 37.5 -12.5t41.5 -5.5q45 0 45 34q0 16 -12 24.5t-30 8.5q-11 0 -19.5 -2t-18.5 -6l-21 24l48 67q-53 5 -101 22.5t-84 48t-57 76t-20 105.5h152q0 -36 13 -61t34.5 -40.5t50 -23t60.5 -7.5q21 0 45 3.5t45 13.5t35 27.5t14 44.5q0 29 -18.5 47t-48.5 30
t-68 21t-77 20q-40 10 -78 24t-68 37.5t-48.5 57.5t-18.5 84q0 55 23.5 95.5t61.5 67.5t86 40t96 13q56 0 107.5 -12.5t91.5 -40.5t63.5 -71.5t23.5 -105.5h-152q-2 32 -13.5 53t-30.5 33t-44 17t-53 5q-19 0 -38 -4t-34.5 -14t-25.5 -25.5t-10 -37.5q0 -21 8 -34t31.5 -24
t64.5 -22l109 -28q20 -5 55.5 -15t70.5 -33t60.5 -61.5t25.5 -98.5q0 -49 -19 -90.5t-55.5 -72t-91 -48t-126.5 -18.5l-26 -35l2 -2q9 4 20.5 5.5t19.5 1.5q39 0 62.5 -20t23.5 -57q0 -44 -32.5 -68.5t-92.5 -24.5q-35 0 -61 5.5t-55 16.5z" />
    <glyph glyph-name="uni015F" unicode="&#x15f;" horiz-adv-x="537" 
d="M159 -147q16 -7 37.5 -12.5t41.5 -5.5q45 0 45 34q0 16 -12 24.5t-30 8.5q-11 0 -19.5 -2t-18.5 -6l-21 24l50 70q-39 3 -75.5 14.5t-64 33t-45 54t-18.5 78.5h135q0 -23 9.5 -39.5t24.5 -27t34.5 -15.5t40.5 -5q15 0 31.5 3.5t30 11t22.5 20t9 31.5q0 32 -42.5 48
t-118.5 32q-31 7 -60.5 16.5t-52.5 25t-37 38.5t-14 58q0 49 19.5 81.5t51.5 51t72 26t82 7.5t81.5 -8t70.5 -27t51.5 -50.5t24.5 -79.5h-135q-3 41 -31 55.5t-66 14.5q-12 0 -26 -1.5t-25.5 -6.5t-19.5 -14.5t-8 -25.5q0 -19 14 -31t36.5 -19.5t51.5 -13.5t59 -13
q31 -7 60.5 -17t52.5 -26.5t37 -41t14 -60.5q0 -50 -19.5 -84t-52 -55t-73.5 -30.5t-84 -10.5l-28 -38l2 -2q9 4 20.5 5.5t19.5 1.5q39 0 62.5 -20t23.5 -57q0 -44 -32.5 -68.5t-92.5 -24.5q-35 0 -61 5.5t-55 16.5z" />
    <glyph glyph-name="Scaron" unicode="&#x160;" horiz-adv-x="649" 
d="M390 778l110 142h-110l-65 -81l-64 81h-112l111 -142h130zM176 237h-152q-1 -66 24 -114t67.5 -79t98 -45.5t114.5 -14.5q73 0 128.5 17t93 47.5t56.5 72.5t19 91q0 60 -25.5 98.5t-60.5 61.5t-70.5 33.5t-55.5 14.5l-109 28q-41 11 -64.5 22t-31.5 24t-8 34q0 23 10 38
t25.5 25t34.5 14t38 4q29 0 53.5 -5t43.5 -17t30.5 -33t13.5 -53h152q0 62 -23.5 105.5t-63.5 71.5t-91.5 40.5t-107.5 12.5q-48 0 -96 -13t-86 -40t-61.5 -67.5t-23.5 -95.5q0 -49 18.5 -83.5t48.5 -57.5t68 -37.5t78 -24.5q39 -11 77 -20t68 -21t48.5 -30t18.5 -47
q0 -27 -14 -44.5t-35 -27.5t-45 -13.5t-45 -3.5q-31 0 -60 7.5t-50.5 23t-34.5 40.5t-13 61z" />
    <glyph glyph-name="scaron" unicode="&#x161;" horiz-adv-x="537" 
d="M334 581l110 142h-110l-65 -81l-64 81h-112l111 -142h130zM164 168h-135q2 -52 23.5 -86.5t55 -55.5t76.5 -30t88 -9q44 0 86.5 8.5t75.5 29.5t53.5 55.5t20.5 85.5q0 36 -14 60.5t-37 41t-52.5 26.5t-60.5 17q-30 7 -59 13t-51.5 13.5t-36.5 19.5t-14 31q0 16 8 25.5
t19.5 14.5t25.5 6.5t26 1.5q38 0 66 -14.5t31 -55.5h135q-4 48 -24.5 79.5t-51.5 50.5t-70.5 27t-81.5 8t-82 -7.5t-72 -26t-51.5 -50.5t-19.5 -82q0 -34 14 -57.5t37 -39t52.5 -25t60.5 -16.5q76 -16 118.5 -32t42.5 -48q0 -19 -9 -31.5t-22.5 -20t-30 -11t-31.5 -3.5
q-21 0 -40.5 5t-34.5 15.5t-24.5 27t-9.5 39.5z" />
    <glyph glyph-name="uni0162" unicode="&#x162;" 
d="M227 582h-214v132h585v-132h-214v-582h-157v582zM233 -50h145v-73q0 -32 -10.5 -50.5t-28.5 -28t-43 -12.5t-53 -3v37q24 2 38 10t19 27h-67v93z" />
    <glyph glyph-name="uni0163" unicode="&#x163;" horiz-adv-x="352" 
d="M234 517h104v-95h-104v-256q0 -36 12 -48t48 -12q12 0 23 1t21 3v-111q-18 -3 -40 -4t-43 -1q-33 0 -62.5 4.5t-52 18t-35.5 37.5t-13 63v305h-86v95h86v155h142v-155zM125 -147q16 -7 37 -12.5t47 -5.5q18 0 29 8t11 26q0 19 -11.5 25.5t-28.5 6.5q-22 0 -40 -7l-21 24
l59 84h49l-39 -54h2q12 5 34 5q17 0 33.5 -4t29.5 -12.5t21 -22t8 -31.5q0 -29 -10 -48.5t-26.5 -31t-37.5 -16t-43 -4.5q-24 0 -41 1.5t-30.5 4.5t-26 7t-26.5 9z" />
    <glyph glyph-name="uni0164" unicode="&#x164;" 
d="M227 582h-214v132h585v-132h-214v-582h-157v582zM370 779h-130l-110 142h115l62 -81l64 81h110z" />
    <glyph glyph-name="uni0165" unicode="&#x165;" horiz-adv-x="352" 
d="M385 572h-98l31 142h148zM234 517h104v-95h-104v-256q0 -36 12 -48t48 -12q12 0 23 1t21 3v-111q-18 -3 -40 -4t-43 -1q-33 0 -62.5 4.5t-52 18t-35.5 37.5t-13 63v305h-86v95h86v155h142v-155z" />
    <glyph glyph-name="uni0166" unicode="&#x166;" 
d="M80 462h147v120h-214v132h585v-132h-214v-120h147v-96h-147v-366h-157v366h-147v96z" />
    <glyph glyph-name="uni0167" unicode="&#x167;" horiz-adv-x="352" 
d="M234 517h104v-95h-104v-81h92v-76h-92v-99q0 -36 12 -48t48 -12q12 0 23 1t21 3v-111q-18 -3 -40 -4t-43 -1q-33 0 -62.5 4.5t-52 18t-35.5 37.5t-13 63v148h-78v76h78v81h-86v95h86v155h142v-155z" />
    <glyph glyph-name="uni0168" unicode="&#x168;" horiz-adv-x="741" 
d="M675 270q0 -145 -81 -216t-224 -71q-145 0 -224.5 70.5t-79.5 216.5v444h157v-444q0 -29 5 -57t21 -50t44.5 -35t76.5 -13q84 0 116 37.5t32 117.5v444h157v-444zM442 797q-23 0 -42.5 5.5t-37.5 11.5l-34 12q-17 5 -33 5q-19 0 -29.5 -11.5t-15.5 -30.5h-63
q3 22 11.5 44t23.5 39t35.5 28t46.5 11q20 0 39 -5.5t37 -11.5l34 -12q17 -6 33 -6q18 0 28 8t15 27h64q-5 -23 -12.5 -43.5t-20.5 -36t-32.5 -25t-46.5 -9.5z" />
    <glyph glyph-name="uni0169" unicode="&#x169;" horiz-adv-x="593" 
d="M539 0h-135v72h-3q-27 -45 -70 -65.5t-88 -20.5q-57 0 -93.5 15.5t-57.5 43t-29.5 67t-8.5 87.5v318h142v-292q0 -64 20 -95.5t71 -31.5q58 0 84 34.5t26 113.5v271h142v-517zM370 607q-23 0 -42.5 5.5t-37.5 11.5l-34 12q-17 5 -33 5q-19 0 -29.5 -11.5t-15.5 -30.5h-63
q3 22 11.5 44t23.5 39t35.5 28t46.5 11q20 0 39 -5.5t37 -11.5l34 -12q17 -6 33 -6q18 0 28 8t15 27h64q-5 -23 -12.5 -43.5t-20.5 -36t-32.5 -25t-46.5 -9.5z" />
    <glyph glyph-name="uni016A" unicode="&#x16a;" horiz-adv-x="741" 
d="M675 270q0 -145 -81 -216t-224 -71q-145 0 -224.5 70.5t-79.5 216.5v444h157v-444q0 -29 5 -57t21 -50t44.5 -35t76.5 -13q84 0 116 37.5t32 117.5v444h157v-444zM194 884h353v-75h-353v75z" />
    <glyph glyph-name="uni016B" unicode="&#x16b;" horiz-adv-x="593" 
d="M539 0h-135v72h-3q-27 -45 -70 -65.5t-88 -20.5q-57 0 -93.5 15.5t-57.5 43t-29.5 67t-8.5 87.5v318h142v-292q0 -64 20 -95.5t71 -31.5q58 0 84 34.5t26 113.5v271h142v-517zM123 694h353v-75h-353v75z" />
    <glyph glyph-name="uni016C" unicode="&#x16c;" horiz-adv-x="741" 
d="M675 270q0 -145 -81 -216t-224 -71q-145 0 -224.5 70.5t-79.5 216.5v444h157v-444q0 -29 5 -57t21 -50t44.5 -35t76.5 -13q84 0 116 37.5t32 117.5v444h157v-444zM269 921q3 -19 13 -31.5t24.5 -20.5t30.5 -11.5t31 -3.5q45 0 73 16t37 51h63q-10 -75 -56.5 -108.5
t-121.5 -33.5q-72 0 -112.5 36.5t-46.5 105.5h65z" />
    <glyph glyph-name="uni016D" unicode="&#x16d;" horiz-adv-x="593" 
d="M539 0h-135v72h-3q-27 -45 -70 -65.5t-88 -20.5q-57 0 -93.5 15.5t-57.5 43t-29.5 67t-8.5 87.5v318h142v-292q0 -64 20 -95.5t71 -31.5q58 0 84 34.5t26 113.5v271h142v-517zM197 731q3 -19 13 -31.5t24.5 -20.5t30.5 -11.5t31 -3.5q45 0 73 16t37 51h63
q-10 -75 -56.5 -108.5t-121.5 -33.5q-72 0 -112.5 36.5t-46.5 105.5h65z" />
    <glyph glyph-name="uni016E.low" unicode="&#x16e;" horiz-adv-x="741" 
d="M675 270q0 -145 -81 -216t-224 -71q-145 0 -224.5 70.5t-79.5 216.5v444h157v-444q0 -29 5 -57t21 -50t44.5 -35t76.5 -13q84 0 116 37.5t32 117.5v444h157v-444zM487 839q0 -24 -9 -45t-25 -36t-37.5 -24t-45.5 -9q-25 0 -46.5 9t-37 24t-24.5 36t-9 45t9 45t25 36
t37.5 24t45.5 9q25 0 46.5 -9t37 -24t24.5 -36t9 -45zM309 839q0 -27 16.5 -45t44.5 -18t44.5 17.5t16.5 45.5q0 27 -16.5 45t-44.5 18t-44.5 -17.5t-16.5 -45.5z" />
    <glyph glyph-name="uni016F" unicode="&#x16f;" horiz-adv-x="593" 
d="M539 0h-135v72h-3q-27 -45 -70 -65.5t-88 -20.5q-57 0 -93.5 15.5t-57.5 43t-29.5 67t-8.5 87.5v318h142v-292q0 -64 20 -95.5t71 -31.5q58 0 84 34.5t26 113.5v271h142v-517zM176 684q0 26 9.5 48t26 38t39 25t48.5 9q27 0 49 -9t38.5 -25t25.5 -38t9 -48t-9.5 -48
t-26 -38t-39 -25t-48.5 -9q-27 0 -49 9t-38.5 25t-25.5 38t-9 48zM362 684q0 29 -17 48t-46 19t-46.5 -19t-17.5 -48t17 -48t46 -19t46.5 19t17.5 48z" />
    <glyph glyph-name="uni0170" unicode="&#x170;" horiz-adv-x="741" 
d="M675 270q0 -145 -81 -216t-224 -71q-145 0 -224.5 70.5t-79.5 216.5v444h157v-444q0 -29 5 -57t21 -50t44.5 -35t76.5 -13q84 0 116 37.5t32 117.5v444h157v-444zM511 779h-99l91 142h157zM304 779h-99l91 142h157z" />
    <glyph glyph-name="uni0171" unicode="&#x171;" horiz-adv-x="593" 
d="M539 0h-135v72h-3q-27 -45 -70 -65.5t-88 -20.5q-57 0 -93.5 15.5t-57.5 43t-29.5 67t-8.5 87.5v318h142v-292q0 -64 20 -95.5t71 -31.5q58 0 84 34.5t26 113.5v271h142v-517zM439 589h-99l91 142h157zM232 589h-99l91 142h157z" />
    <glyph glyph-name="uni0172" unicode="&#x172;" horiz-adv-x="741" 
d="M487 -151q-24 -37 -54 -51.5t-70 -14.5q-50 0 -79.5 22.5t-29.5 60.5q0 32 20.5 60.5t61.5 57.5q-129 8 -199.5 78t-70.5 208v444h157v-444q0 -29 5 -57t21 -50t44.5 -35t76.5 -13q84 0 116 37.5t32 117.5v444h157v-444q0 -135 -70.5 -206t-196.5 -80q-19 -20 -30.5 -35
t-17.5 -27t-8 -21.5t-2 -19.5q0 -18 11 -28t26 -10q17 0 30 9t25 23z" />
    <glyph glyph-name="uni0173" unicode="&#x173;" horiz-adv-x="593" 
d="M539 0h-65q-22 -22 -35 -39t-20 -31t-9 -26t-2 -22q0 -19 11 -29t27 -10q17 0 30 9t25 23l45 -26q-24 -37 -54 -51.5t-70 -14.5q-50 0 -79.5 23t-29.5 61q0 36 23 67t68 66v72h-3q-27 -45 -70 -65.5t-88 -20.5q-57 0 -93.5 15.5t-57.5 43t-29.5 67t-8.5 87.5v318h142
v-292q0 -64 20 -95.5t71 -31.5q58 0 84 34.5t26 113.5v271h142v-517z" />
    <glyph glyph-name="uni0174" unicode="&#x174;" horiz-adv-x="944" 
d="M749 0h-156l-121 486h-2l-119 -486h-159l-189 714h157l113 -486h2l124 486h147l122 -492h2l117 492h154zM410 921h130l110 -142h-115l-62 81l-64 -81h-110z" />
    <glyph glyph-name="uni0175" unicode="&#x175;" horiz-adv-x="814" 
d="M645 0h-146l-92 347h-2l-88 -347h-147l-164 517h150l95 -351h2l86 351h138l88 -350h2l95 350h146zM345 731h130l110 -142h-115l-62 81l-64 -81h-110z" />
    <glyph glyph-name="uni0176" unicode="&#x176;" horiz-adv-x="667" 
d="M254 278l-263 436h177l167 -282l166 282h175l-265 -440v-274h-157v278zM273 921h130l110 -142h-115l-62 81l-64 -81h-110z" />
    <glyph glyph-name="uni0177" unicode="&#x177;" horiz-adv-x="519" 
d="M309 -65q-23 -63 -64 -90t-114 -27q-22 0 -43.5 1.5t-43.5 3.5v117q17 -2 36 -3.5t40 -1.5q28 0 45 18t17 47q0 17 -6 32l-182 485h152l117 -354h2l113 354h147zM202 731h130l110 -142h-115l-62 81l-64 -81h-110z" />
    <glyph glyph-name="Ydieresis" unicode="&#x178;" horiz-adv-x="667" 
d="M163 911v-117h135v117h-135zM369 911v-117h135v117h-135zM254 278v-278h157v274l265 440h-175l-166 -282l-167 282h-176z" />
    <glyph glyph-name="Zacute" unicode="&#x179;" horiz-adv-x="648" 
d="M406 582h-353v132h562v-124l-383 -458h393v-132h-602v124zM247 778l96 142h157l-154 -142h-99z" />
    <glyph glyph-name="zacute" unicode="&#x17a;" horiz-adv-x="519" 
d="M291 410h-249v107h436v-107l-269 -303h288v-107h-475v107zM183 581l96 142h157l-154 -142h-99z" />
    <glyph glyph-name="Zdotaccent" unicode="&#x17b;" horiz-adv-x="648" 
d="M406 582h-353v132h562v-124l-383 -458h393v-132h-602v124zM391 911v-117h-135v117h135z" />
    <glyph glyph-name="zdotaccent" unicode="&#x17c;" horiz-adv-x="519" 
d="M291 410h-249v107h436v-107l-269 -303h288v-107h-475v107zM327 714v-117h-135v117h135z" />
    <glyph glyph-name="Zcaron" unicode="&#x17d;" horiz-adv-x="648" 
d="M390 778l110 142h-110l-65 -81l-64 81h-112l111 -142h130zM23 124v-124h602v132h-393l383 458v124h-562v-132h353z" />
    <glyph glyph-name="zcaron" unicode="&#x17e;" horiz-adv-x="519" 
d="M325 581l110 142h-110l-65 -81l-64 81h-112l111 -142h130zM22 107v-107h475v107h-288l269 303v107h-436v-107h249z" />
    <glyph glyph-name="uni017F" unicode="&#x17f;" horiz-adv-x="333" 
d="M227 429v-429h-139v429h-78v98h76v35q0 85 29 117q31 48 146 48q13 0 24 -0.5t29 -2.5v-113q-11 1 -38.5 2t-38 -12t-10.5 -29v-143z" />
    <glyph glyph-name="uni0180" unicode="&#x180;" 
d="M234 465q23 37 61 58.5t86 21.5q105 0 167.5 -78t62.5 -215q0 -118 -63.5 -193.5t-156.5 -75.5q-57 0 -95 21.5t-68 69.5v-74h-135v588h-62v75h62v56h141v-56h144v-75h-144v-123zM230 258q0 -70 31 -113.5t90 -43.5t88 44t29 118q0 68 -28.5 114t-89.5 46q-40 0 -71 -25
q-49 -42 -49 -140z" />
    <glyph glyph-name="uni0182" unicode="&#x182;" horiz-adv-x="667" 
d="M382 461q119 0 183.5 -53t64.5 -180q0 -117 -64.5 -172.5t-172.5 -55.5h-313v718l-4 4h528v-128h-375v-133h153zM369 125q53 0 82.5 24t29.5 80t-29.5 82t-82.5 26h-140v-212h140z" />
    <glyph glyph-name="uni0183" unicode="&#x183;" 
d="M56 722h440v-128h-293l-4 4v-135q26 37 58 57q37 24 96 24q105 0 164 -75.5t59 -195.5q0 -124 -58.5 -205.5t-163.5 -81.5q-66 0 -106 26q-24 16 -52 55v-67h-136v718zM430 258q0 57 -14 94q-28 70 -103 70q-76 0 -104 -68q-15 -37 -15 -95q0 -69 30.5 -113.5t92.5 -44.5
q54 0 83.5 43t29.5 114z" />
    <glyph glyph-name="uni0186" unicode="&#x186;" horiz-adv-x="722" 
d="M583 68q-87 -89 -223 -89q-182 0 -266 120q-46 67 -50 134h151q14 -52 37 -78q41 -47 122 -47q82 0 129.5 66t47.5 187t-50 181.5t-127 60.5q-80 0 -121 -52q-23 -28 -38 -83h-149q19 117 99.5 191t206.5 74q155 0 244 -100t89 -274q0 -189 -102 -291z" />
    <glyph glyph-name="uni0189" unicode="&#x189;" horiz-adv-x="722" 
d="M326 125q61 0 88 8q43 12 72 53q26 38 36 89.5t10 91.5q0 148 -73 199q-41 29 -126 29h-111v-149h152v-125h-152v-196h104zM637 152q-78 -152 -261 -152h-300v321h-67v125h67v273h301q83 0 142 -25.5t102 -84.5q33 -46 48.5 -104t15.5 -128q0 -130 -48 -225z" />
    <glyph glyph-name="uni018B" unicode="&#x18b;" horiz-adv-x="667" 
d="M324 461h153v133h-374v128h527l-4 -4v-718h-313q-108 0 -172.5 55.5t-64.5 172.5q0 127 64.5 180t183.5 53zM337 125h140v212h-140q-53 0 -82.5 -26t-29.5 -82t29.5 -80t82.5 -24z" />
    <glyph glyph-name="uni018C" unicode="&#x18c;" 
d="M572 718v-718h-136v67q-28 -39 -52 -55q-40 -26 -106 -26q-105 0 -163.5 81.5t-58.5 205.5q0 120 59.5 195.5t164.5 75.5q58 0 95 -24q32 -20 59 -57v135l-5 -4h-293v128h440zM202 258q0 -71 30 -114t83 -43q62 0 92.5 44.5t30.5 113.5q0 58 -15 95q-28 68 -104 68
q-74 0 -102 -70q-15 -37 -15 -94z" />
    <glyph glyph-name="uni018D" unicode="&#x18d;" horiz-adv-x="577" 
d="M327 193l173 -108v-100h-421v112h220q-11 2 -79 57t-126.5 137.5t-58.5 171.5q0 112 68 182t176 70q119 0 187.5 -72.5t68.5 -191.5q0 -97 -56.5 -167.5t-151.5 -90.5zM279 293q54 0 85.5 49t31.5 115q0 64 -30 109t-87 45q-53 0 -81.5 -45.5t-28.5 -109.5
q0 -66 30 -114.5t80 -48.5z" />
    <glyph glyph-name="uni018E" unicode="&#x18e;" horiz-adv-x="667" 
d="M98 720h527v-720h-545v129h399v185h-350v125h350v153h-381v128z" />
    <glyph glyph-name="uni018F" unicode="&#x18f;" horiz-adv-x="748" 
d="M376 -16q-86 0 -149.5 28.5t-105.5 78.5t-62.5 117.5t-20.5 145.5q0 7 0.5 23t1.5 23h513q-11 94 -62.5 147.5t-127.5 53.5q-60 0 -104.5 -28.5t-58.5 -82.5h-149q7 52 33 96t66.5 76.5t94 50.5t115.5 18q82 0 147 -29t110 -79.5t69 -118.5t24 -146q0 -84 -24.5 -153
t-68.5 -118t-105.5 -76t-135.5 -27zM375 114q66 0 111 41t62 123h-346q5 -35 18 -65t34.5 -52t51.5 -34.5t69 -12.5z" />
    <glyph glyph-name="uni0190" unicode="&#x190;" horiz-adv-x="568" 
d="M26 231q0 56 30 104q32 55 84 64q-43 21 -67.5 61.5t-24.5 88.5q0 97 66 147q59 44 160 44q142 0 202 -93q17 -27 21 -61l2 -47h-120q0 39 -24 67q-29 35 -85 35q-45 0 -71 -27.5t-26 -71.5q0 -48 35 -78q29 -25 60 -25h68v-105h-76q-32 0 -64 -26q-38 -31 -38 -78
q0 -61 29 -99q33 -42 92 -42q123 0 123 131h126q0 -108 -65 -175q-65 -69 -172 -69q-124 0 -193 66q-72 67 -72 189z" />
    <glyph glyph-name="uni0191" unicode="&#x191;" 
d="M9 -102q12 -1 17 -1.5t9 -0.5q20 0 30.5 10.5t10.5 38.5v774h510v-127h-360v-165h316v-125h-316v-302h-2v-57q0 -81 -32 -119.5t-133 -38.5q-6 0 -18.5 0.5t-31.5 1.5v111z" />
    <glyph glyph-name="florin" unicode="&#x192;" horiz-adv-x="556" 
d="M14 -59l-18 -107q20 -2 37 -2.5t36 -0.5q56 0 92 12t59 36.5t36 61t22 86.5l56 310h100l16 95h-98l25 130q6 32 21.5 47t54.5 15q10 0 19.5 -1t20.5 -6l18 107q-32 7 -75 7q-49 0 -84 -9t-59 -29.5t-39 -53.5t-24 -80l-24 -127h-91l-18 -95h92l-63 -329q-6 -34 -20 -52.5
t-52 -17.5q-20 0 -40 3z" />
    <glyph glyph-name="uni0196" unicode="&#x196;" horiz-adv-x="278" 
d="M250 -22q-19 -1 -31.5 -1.5t-18.5 -0.5q-93 0 -125 38.5t-32 119.5v587h140v-585q0 -29 10.5 -39t30.5 -10q4 0 9 0.5t17 1.5v-111z" />
    <glyph glyph-name="uni0197" unicode="&#x197;" horiz-adv-x="390" 
d="M21 490h101v230h139v-230h107v-74h-107v-416h-139v416h-101v74z" />
    <glyph glyph-name="uni019A" unicode="&#x19a;" horiz-adv-x="390" 
d="M21 490h101v230h139v-230h107v-74h-107v-416h-139v416h-101v74z" />
    <glyph glyph-name="uni019B" unicode="&#x19b;" horiz-adv-x="549" 
d="M44 558l123 30l-43 118h148l31 -84l137 34v-74l-112 -28l204 -554h-154l-100 322h-2l-97 -322h-155l179 490l-11 30l-148 -36v74z" />
    <glyph glyph-name="uni019D" unicode="&#x19d;" horiz-adv-x="722" 
d="M6 -102q12 -1 17 -1.5t9 -0.5q20 0 30.5 10.5t10.5 38.5v585h1v190h157l287 -503v503h140v-720h-150l-294 511v-511h-2v-57q0 -81 -31.5 -119.5t-124.5 -38.5q-6 0 -18.5 0.5t-31.5 1.5v111z" />
    <glyph glyph-name="uni019E" unicode="&#x19e;" 
d="M547 358v-569h-142v535q0 42 -11 64q-21 41 -79 41q-70 0 -97 -60q-13 -32 -13 -81v-288h-139v531h134v-77q27 41 51 59q43 32 109 32q82 0 134.5 -43.5t52.5 -143.5z" />
    <glyph glyph-name="uni019F" unicode="&#x19f;" horiz-adv-x="778" 
d="M630 64q-81 -84 -235 -84q-155 0 -236 84q-110 103 -110 297q0 198 110 297q81 84 236 84q154 0 235 -84q109 -99 109 -297q0 -194 -109 -297zM252 173q53 -66 143 -66q89 0 141 66q41 52 50 137h-385q9 -85 51 -137zM536 548q-52 66 -141 66q-90 0 -143 -66
q-41 -50 -50 -132h384q-10 82 -50 132z" />
    <glyph glyph-name="uni01A0" unicode="&#x1a0;" horiz-adv-x="946" 
d="M630 64q-81 -84 -235 -84q-155 0 -236 84q-110 103 -110 297q0 198 110 297q81 84 236 84q154 0 235 -84q32 -29 54 -65l3 -1q34 -3 78 19l-42 73l126 73l75 -131l-109 -63q-29 -16 -65 -27q-19 -5 -37 -6q26 -73 26 -169q0 -194 -109 -297zM589 361q0 121 -52.5 187
t-141.5 66q-90 0 -143 -66t-53 -187q0 -122 53 -188t143 -66q89 0 141.5 66t52.5 188z" />
    <glyph glyph-name="uni01A1" unicode="&#x1a1;" horiz-adv-x="795" 
d="M304 -19q-137 0 -204.5 83.5t-67.5 200.5q0 115 67.5 199.5t204.5 84.5t205 -84q11 -14 20 -28q3 -1 7 -1q33 -3 78 19l-43 73l126 73l75 -131l-108 -63q-29 -16 -65 -27q-20 -6 -40 -6q17 -51 17 -109q0 -117 -67.5 -200.5t-204.5 -83.5zM430 265q0 80 -32.5 123.5
t-93.5 43.5t-94 -43.5t-33 -123.5t33 -123.5t94 -43.5t93.5 43.5t32.5 123.5z" />
    <glyph glyph-name="uni01A2" unicode="&#x1a2;" horiz-adv-x="922" 
d="M696 582h-90v-529q-43 -32 -97 -50.5t-120 -18.5q-83 0 -148 28.5t-110 78.5t-69 117.5t-24 145.5q0 79 24 148t69 120t110 80t148 29q61 0 115 -17h349v-895h-157v763zM389 115q31 0 60 8v468q-29 8 -60 8q-53 0 -90 -20.5t-60 -55t-33.5 -78.5t-10.5 -91
q0 -45 10.5 -87.5t33.5 -76.5t60 -54.5t90 -20.5z" />
    <glyph glyph-name="uni01A3" unicode="&#x1a3;" horiz-adv-x="764" 
d="M568 410h-68v-349q-35 -35 -84 -54.5t-111 -19.5q-61 0 -110 19t-84 54.5t-54 85.5t-19 112t19 112.5t54 86t84 55t110 19.5q50 0 94 -14h311v-698h-142v591zM305 93q28 0 53 10v311q-14 5 -25 7.5t-28 2.5q-36 0 -60 -14.5t-38.5 -37.5t-20.5 -53t-6 -61t6 -60.5
t20.5 -53t38.5 -37.5t60 -14z" />
    <glyph glyph-name="uni01A6" unicode="&#x1a6;" horiz-adv-x="650" 
d="M29 720h147v-98h206q76 -1 116.5 -18.5t68.5 -50.5q24 -27 37.5 -60.5t13.5 -75.5q0 -51 -26 -100.5t-85 -70.5q50 -20 70.5 -57t20.5 -112v-49q0 -49 4 -67q6 -27 27 -41v-18h-165q-7 24 -10 39q-6 30 -6 62l-1 67q-1 69 -25.5 92t-90.5 23h-155v-185h-147v720zM176 497
v-193h170q51 0 76 11q45 21 45 81q0 66 -43 88q-25 13 -73 13h-175z" />
    <glyph glyph-name="uni01A7" unicode="&#x1a7;" horiz-adv-x="667" 
d="M632 222q0 -112 -80.5 -176.5t-220.5 -64.5q-138 0 -213.5 65.5t-75.5 163.5q0 97 64 147q42 33 123 53l125 29q71 18 93 30q34 19 34 58q0 42 -34.5 65.5t-92.5 23.5q-52 0 -87 -18q-53 -28 -57 -93h-145q4 115 84.5 175.5t194.5 60.5q136 0 206.5 -64t70.5 -161
q0 -106 -73 -156q-43 -29 -155 -55l-77 -17q-66 -15 -98 -34q-31 -19 -31 -55q0 -61 63 -83q33 -12 86 -12q89 0 126 44q20 25 27 74h143z" />
    <glyph glyph-name="uni01A8" unicode="&#x1a8;" horiz-adv-x="556" 
d="M519 170q0 -82 -60 -135t-186 -53q-123 0 -181.5 50t-58.5 129q0 60 41 100t124 59q125 28 145 39q21 11 21 35q0 19 -19.5 33t-64.5 14q-55 0 -78 -28q-13 -16 -15 -43h-140q10 98 72.5 137.5t162.5 39.5q105 0 162.5 -53t57.5 -126q0 -63 -37 -96q-37 -34 -127 -56
q-126 -30 -145 -42q-20 -12 -20 -36t24.5 -36.5t65.5 -12.5q70 0 95 28q15 16 19 53h142z" />
    <glyph glyph-name="uni01A9" unicode="&#x1a9;" horiz-adv-x="595" 
d="M457 358l-227 -228h332v-130h-532v110l245 247l-245 248v110h532v-130h-332z" />
    <glyph glyph-name="uni01AE" unicode="&#x1ae;" 
d="M166 -102q11 -1 16 -1.5t9 -0.5q20 0 30.5 10.5t10.5 38.5v647h-216v128h583v-128h-215v-649q0 -81 -38 -119.5t-131 -38.5q-6 0 -18.5 0.5t-30.5 1.5v111z" />
    <glyph glyph-name="uni01AF" unicode="&#x1af;" horiz-adv-x="918" 
d="M76 720h153v-443q0 -74 18 -108q27 -61 119 -61q91 0 118 61q18 34 18 108v443h153v-128h3q33 -3 78 19l-43 73l126 73l76 -131l-109 -63q-29 -16 -65 -27q-34 -10 -66 -3v-256q0 -114 -36 -178q-66 -118 -253 -118t-254 118q-36 64 -36 178v443z" />
    <glyph glyph-name="uni01B0" unicode="&#x1b0;" horiz-adv-x="805" 
d="M204 532v-321q0 -45 10 -68q19 -40 75 -40q71 0 98 57q13 31 13 83v289h142v-71q1 -1 3 -1q34 -3 79 19l-43 73l126 73l75 -130l-109 -63q-28 -17 -64 -28q-34 -9 -67 -3v-401h-136v75q-2 -2 -9.5 -14.5t-18.5 -21.5q-33 -29 -63.5 -40t-71.5 -11q-118 0 -159 85
q-23 47 -23 138v321h143z" />
    <glyph glyph-name="uni01B1" unicode="&#x1b1;" horiz-adv-x="775" 
d="M384 135q81 0 123 60t42 145q0 84 -23 143.5t-82 101.5v130h285v-120h-149q125 -99 125 -260q0 -141 -83.5 -238t-231.5 -97q-143 0 -232 97.5t-89 237.5q0 86 29 146.5t96 113.5h-150v120h286v-130q-59 -42 -82 -101t-23 -144q0 -86 39.5 -145.5t119.5 -59.5z" />
    <glyph glyph-name="uni01B5" unicode="&#x1b5;" horiz-adv-x="648" 
d="M23 124l157 183h-89v122h193l132 153h-363v132h562v-124l-138 -161h91v-122h-196l-150 -175h403v-132h-602v124z" />
    <glyph glyph-name="uni01B6" unicode="&#x1b6;" horiz-adv-x="519" 
d="M22 107l105 114h-51v91h135l90 98h-259v107h436v-107l-90 -98h58v-91h-142l-105 -114h298v-107h-475v107z" />
    <glyph glyph-name="uni01B7" unicode="&#x1b7;" horiz-adv-x="600" 
d="M370 590h-332v130h532v-110l-147 -154q44 -19 76 -56q66 -37 66 -174q0 -122 -84.5 -178.5t-213.5 -56.5q-128 0 -194 92q-41 56 -46 120h142q5 -42 25.5 -68.5t69.5 -26.5q69 0 112.5 31.5t43.5 89.5q0 62 -14 99q-22 23 -80 30l-1 -1l-182 1z" />
    <glyph glyph-name="uni01B8" unicode="&#x1b8;" horiz-adv-x="600" 
d="M457 358l-183 -1l-1 1q-57 -7 -80 -30q-13 -37 -13 -99q0 -58 43.5 -89.5t112.5 -31.5q49 0 69.5 26.5t24.5 68.5h142q-5 -64 -46 -120q-65 -92 -193 -92q-129 0 -214 56.5t-85 178.5q0 137 67 174q32 37 76 56l-148 154v110h533v-130h-333z" />
    <glyph glyph-name="uni01B9" unicode="&#x1b9;" horiz-adv-x="551" 
d="M408 168l-134 -1l-1 1q-57 -7 -80 -30q-13 -44 -13 -106q0 -58 26.5 -94t95.5 -36q49 0 62 26.5t17 68.5h142q-4 -64 -45 -121q-46 -91 -175 -91q-128 0 -198.5 61t-70.5 183q0 137 67 181q32 37 76 56l-148 154v110h484v-130h-284z" />
    <glyph glyph-name="uni01BB" unicode="&#x1bb;" horiz-adv-x="612" 
d="M71 139q30 71 141 150q96 69 124 99q44 46 44 101q0 45 -25 75t-71 30q-64 0 -87 -48q-13 -27 -15 -87h-136q4 91 33 146q56 106 198 106q112 0 178.5 -62t66.5 -165q0 -78 -47 -139q-31 -41 -101 -91l-56 -39q-52 -37 -71 -53.5t-33 -38.5h309v-123h-484q2 76 32 139z
M584 391v-99h-522v99h522z" />
    <glyph glyph-name="uni01C0" unicode="&#x1c0;" horiz-adv-x="280" 
d="M209 727v-727h-128v727h128z" />
    <glyph glyph-name="uni01C1" unicode="&#x1c1;" horiz-adv-x="529" 
d="M209 727v-727h-128v727h128zM453 727v-727h-128v727h128z" />
    <glyph glyph-name="uni01C2" unicode="&#x1c2;" horiz-adv-x="572" 
d="M542 521v-128h-211v-100h211v-128h-211v-165h-128v165h-190v128h190v100h-190v128h190v206h128v-206h211z" />
    <glyph glyph-name="uni01C3" unicode="&#x1c3;" horiz-adv-x="333" 
d="M110 717h153v-182l-40 -336h-73l-40 336v182zM113 141h146v-141h-146v141z" />
    <glyph glyph-name="uni01C4" unicode="&#x1c4;" horiz-adv-x="1230" 
d="M181 595v-470h139q106 0 148 105q23 58 23 137q0 110 -34.5 169t-136.5 59h-139zM457 704q75 -25 122 -91q38 -54 51.5 -116.5t13.5 -119.5q0 -143 -58 -243q-78 -134 -241 -134h-310v720h310q67 -1 112 -16zM652 127l372 465h-362v128h549v-121l-376 -472h377v-127h-560
v127zM864 751l-115 146h113l64 -82l64 82h113l-114 -146h-125z" />
    <glyph glyph-name="uni01C5" unicode="&#x1c5;" horiz-adv-x="1132" 
d="M189 595v-470h139q106 0 148 105q23 58 23 137q0 110 -34.5 169t-136.5 59h-139zM464 704q76 -25 123 -91q38 -54 51.5 -116.5t13.5 -119.5q0 -143 -58 -243q-78 -134 -241 -134h-310v720h310q67 -1 111 -16zM672 419v113h432v-115l-271 -303h280v-114h-460v108l273 311
h-254zM811 575l-115 146h114l64 -83l63 83h113l-114 -146h-125z" />
    <glyph glyph-name="uni01C6" unicode="&#x1c6;" horiz-adv-x="1060" 
d="M408 465v254h141v-719h-135v74q-30 -48 -68 -69.5t-95 -21.5q-93 0 -156.5 75.5t-63.5 193.5q0 137 62.5 215t167.5 78q49 0 86.5 -21.5t60.5 -58.5zM412 258q0 98 -49 140q-30 25 -71 25q-61 0 -89.5 -46t-28.5 -114q0 -74 29 -118t89 -44q59 0 89.5 43.5t30.5 113.5z
M602 419v113h431v-115l-270 -303h279v-114h-459v108l273 311h-254zM745 577l-115 146h114l64 -83l63 83h113l-114 -146h-125z" />
    <glyph glyph-name="uni01C7" unicode="&#x1c7;" horiz-adv-x="1058" 
d="M53 720h151v-591h356v-129h-507v720zM708 283v-16q2 -84 18.5 -118t69.5 -34q54 0 71 37q10 22 10 75v503h150v-501q0 -92 -31 -146q-54 -90 -194 -90t-188 73.5t-48 200.5v16h142z" />
    <glyph glyph-name="uni01C8" unicode="&#x1c8;" horiz-adv-x="835" 
d="M53 720h151v-591h356v-129h-507v720zM793 596h-139v128h139v-128zM587 -102q12 -1 16.5 -1.5t8.5 -0.5q21 0 31.5 10.5t10.5 38.5v585h139v-587q0 -81 -32 -119.5t-124 -38.5q-7 0 -19.5 0.5t-30.5 1.5v111z" />
    <glyph glyph-name="uni01C9" unicode="&#x1c9;" horiz-adv-x="521" 
d="M207 0h-139v720h139v-720zM488 596h-139v128h139v-128zM282 -102q12 -1 17 -1.5t9 -0.5q20 0 30.5 10.5t10.5 38.5v585h139v-587q0 -81 -31.5 -119.5t-124.5 -38.5q-6 0 -18.5 0.5t-31.5 1.5v111z" />
    <glyph glyph-name="uni01CA" unicode="&#x1ca;" horiz-adv-x="1158" 
d="M48 720h158l287 -503v503h140v-720h-151l-294 511v-511h-140v720zM804 278v-17q2 -83 18 -117t70 -34q53 0 70 37q11 22 11 74v504h150v-501q0 -92 -32 -146q-53 -91 -194 -91q-140 0 -187.5 73.5t-47.5 200.5v17h142z" />
    <glyph glyph-name="uni01CB" unicode="&#x1cb;" horiz-adv-x="906" 
d="M51 720h157l287 -503v503h140v-720h-150l-294 511v-511h-140v720zM861 598h-139v129h139v-129zM655 -100q12 -1 17 -1h8q21 0 31.5 10t10.5 39v584h139v-587q0 -80 -32 -118.5t-124 -38.5q-7 0 -19.5 0.5t-30.5 0.5v111z" />
    <glyph glyph-name="uni01CC" unicode="&#x1cc;" horiz-adv-x="800" 
d="M527 358v-358h-143v324q0 42 -11 64q-20 41 -78 41q-71 0 -97 -60q-14 -32 -14 -81v-288h-139v531h135v-77q27 41 50 59q43 32 109 32q83 0 135.5 -43.5t52.5 -143.5zM747 596h-140v128h140v-128zM541 -102q11 -1 16 -1.5t9 -0.5q20 0 30.5 10.5t10.5 38.5v585h140v-587
q0 -81 -32 -119.5t-125 -38.5q-6 0 -18.5 0.5t-30.5 1.5v111z" />
    <glyph glyph-name="uni01CD" unicode="&#x1cd;" horiz-adv-x="722" 
d="M273 272h183l-90 283zM282 720h170l255 -720h-163l-46 148h-266l-49 -148h-158zM304 789l-115 146h114l64 -83l63 83h113l-114 -146h-125z" />
    <glyph glyph-name="uni01CE" unicode="&#x1ce;" horiz-adv-x="556" 
d="M358 259q-13 -9 -26.5 -14t-36.5 -9l-31 -6q-44 -8 -63 -19q-33 -19 -33 -59q0 -36 20 -52t48 -16q45 0 83 26.5t39 96.5v52zM274 324q38 5 55 12q30 13 30 39q0 33 -23 45.5t-66 12.5q-50 0 -70 -24q-15 -18 -20 -49h-134q4 70 39 115q55 70 189 70q88 0 156 -35
q68 -34 68 -131v-244q0 -25 1 -61q1 -28 8 -37.5t20 -15.5v-21h-151q-6 16 -8.5 30t-4.5 32q-29 -31 -66 -53q-45 -26 -102 -26q-72 0 -119 41.5t-47 117.5q0 98 75 142q42 24 123 34zM213 615l-114 146h113l64 -82l63 82h114l-115 -146h-125z" />
    <glyph glyph-name="uni01CF" unicode="&#x1cf;" horiz-adv-x="278" 
d="M214 0h-150v720h150v-720zM79 798l-115 146h113l64 -83l64 83h113l-114 -146h-125z" />
    <glyph glyph-name="uni01D0" unicode="&#x1d0;" horiz-adv-x="278" 
d="M67 532h141v-532h-141v532zM79 607l-115 146h113l64 -82l64 82h113l-114 -146h-125z" />
    <glyph glyph-name="uni01D1" unicode="&#x1d1;" horiz-adv-x="778" 
d="M589 361q0 121 -52.5 187t-141.5 66q-90 0 -143 -66t-53 -187q0 -122 53 -188t143 -66q89 0 141.5 66t52.5 188zM630 64q-81 -84 -235 -84q-155 0 -236 84q-110 103 -110 297q0 198 110 297q81 84 236 84q154 0 235 -84q109 -99 109 -297q0 -194 -109 -297zM334 819
l-114 146h113l64 -83l63 83h114l-115 -146h-125z" />
    <glyph glyph-name="uni01D2" unicode="&#x1d2;" 
d="M430 265q0 80 -32.5 123.5t-93.5 43.5t-94 -43.5t-33 -123.5t33 -123.5t94 -43.5t93.5 43.5t32.5 123.5zM304 -19q-137 0 -204.5 83.5t-67.5 200.5q0 115 67.5 199.5t204.5 84.5t204.5 -84.5t67.5 -199.5q0 -117 -67.5 -200.5t-204.5 -83.5zM245 625l-115 146h114l64 -83
l63 83h113l-114 -146h-125z" />
    <glyph glyph-name="uni01D3" unicode="&#x1d3;" horiz-adv-x="722" 
d="M76 720h153v-443q0 -74 18 -108q27 -61 119 -61q91 0 118 61q18 34 18 108v443h153v-443q0 -114 -36 -178q-66 -118 -253 -118t-254 118q-36 64 -36 178v443zM298 797l-115 146h113l64 -82l64 82h113l-114 -146h-125z" />
    <glyph glyph-name="uni01D4" unicode="&#x1d4;" 
d="M204 532v-321q0 -45 10 -68q19 -40 75 -40q71 0 98 57q13 31 13 83v289h142v-532h-136v75q-2 -2 -9.5 -14.5t-18.5 -21.5q-33 -29 -63.5 -40t-71.5 -11q-118 0 -159 85q-23 47 -23 138v321h143zM239 599l-114 146h113l64 -83l63 83h114l-115 -146h-125z" />
    <glyph glyph-name="uni01D5" unicode="&#x1d5;" horiz-adv-x="722" 
d="M76 720h153v-443q0 -74 18 -108q27 -61 119 -61q91 0 118 61q18 34 18 108v443h153v-443q0 -114 -36 -178q-66 -118 -253 -118t-254 118q-36 64 -36 178v443zM410 919h127v-116h-127v116zM214 919h128v-116h-128v116zM192 1076h347v-74h-347v74z" />
    <glyph glyph-name="uni01D6" unicode="&#x1d6;" 
d="M204 532v-321q0 -45 10 -68q19 -40 75 -40q71 0 98 57q13 31 13 83v289h142v-532h-136v75q-2 -2 -9.5 -14.5t-18.5 -21.5q-33 -29 -63.5 -40t-71.5 -11q-118 0 -159 85q-23 47 -23 138v321h143zM340 723h128v-116h-128v116zM145 723h127v-116h-127v116zM133 870h347v-75
h-347v75z" />
    <glyph glyph-name="uni01D7" unicode="&#x1d7;" horiz-adv-x="722" 
d="M76 720h153v-443q0 -74 18 -108q27 -61 119 -61q91 0 118 61q18 34 18 108v443h153v-443q0 -114 -36 -178q-66 -118 -253 -118t-254 118q-36 64 -36 178v443zM402 891h127v-116h-127v116zM207 891h127v-116h-127v116zM541 1079l-148 -146h-101l94 146h155z" />
    <glyph glyph-name="uni01D8" unicode="&#x1d8;" 
d="M204 532v-321q0 -45 10 -68q19 -40 75 -40q71 0 98 57q13 31 13 83v289h142v-532h-136v75q-2 -2 -9.5 -14.5t-18.5 -21.5q-33 -29 -63.5 -40t-71.5 -11q-118 0 -159 85q-23 47 -23 138v321h143zM335 720h128v-116h-128v116zM140 720h128v-116h-128v116zM486 927
l-149 -146h-100l94 146h155z" />
    <glyph glyph-name="uni01D9" unicode="&#x1d9;" horiz-adv-x="722" 
d="M76 720h153v-443q0 -74 18 -108q27 -61 119 -61q91 0 118 61q18 34 18 108v443h153v-443q0 -114 -36 -178q-66 -118 -253 -118t-254 118q-36 64 -36 178v443zM402 917h127v-116h-127v116zM207 917h127v-116h-127v116zM298 984l-114 146h113l64 -83l63 83h114l-115 -146
h-125z" />
    <glyph glyph-name="uni01DA" unicode="&#x1da;" 
d="M204 532v-321q0 -45 10 -68q19 -40 75 -40q71 0 98 57q13 31 13 83v289h142v-532h-136v75q-2 -2 -9.5 -14.5t-18.5 -21.5q-33 -29 -63.5 -40t-71.5 -11q-118 0 -159 85q-23 47 -23 138v321h143zM333 723h127v-116h-127v116zM138 723h127v-116h-127v116zM239 781l-114 146
h113l64 -83l63 83h114l-115 -146h-125z" />
    <glyph glyph-name="uni01DB" unicode="&#x1db;" horiz-adv-x="722" 
d="M76 720h153v-443q0 -74 18 -108q27 -61 119 -61q91 0 118 61q18 34 18 108v443h153v-443q0 -114 -36 -178q-66 -118 -253 -118t-254 118q-36 64 -36 178v443zM404 904h128v-116h-128v116zM209 904h127v-116h-127v116zM425 952h-101l-148 146h155z" />
    <glyph glyph-name="uni01DC" unicode="&#x1dc;" 
d="M204 532v-321q0 -45 10 -68q19 -40 75 -40q71 0 98 57q13 31 13 83v289h142v-532h-136v75q-2 -2 -9.5 -14.5t-18.5 -21.5q-33 -29 -63.5 -40t-71.5 -11q-118 0 -159 85q-23 47 -23 138v321h143zM347 716h128v-115h-128v115zM152 716h127v-115h-127v115zM365 769h-100
l-148 146h154z" />
    <glyph glyph-name="uni01DD" unicode="&#x1dd;" horiz-adv-x="556" 
d="M384 209h-216q3 -55 33 -83.5t75 -28.5q48 0 74.5 30t33.5 82zM68 85q-31 48 -40 110q-6 37 -5 106h365q-3 80 -51 112q-28 20 -69 20q-43 0 -70 -24q-14 -13 -26 -37h-142q6 47 50 96q68 78 191 78q102 0 179.5 -65.5t77.5 -212.5q0 -139 -70 -212.5t-182 -73.5
q-67 0 -120 25t-88 78z" />
    <glyph glyph-name="uni01DE" unicode="&#x1de;" horiz-adv-x="722" 
d="M273 272h183l-90 283zM282 720h170l255 -720h-163l-46 148h-266l-49 -148h-158zM408 929h128v-116h-128v116zM213 929h127v-116h-127v116zM193 1076h347v-74h-347v74z" />
    <glyph glyph-name="uni01DF" unicode="&#x1df;" horiz-adv-x="556" 
d="M358 259q-13 -9 -26.5 -14t-36.5 -9l-31 -6q-44 -8 -63 -19q-33 -19 -33 -59q0 -36 20 -52t48 -16q45 0 83 26.5t39 96.5v52zM274 324q38 5 55 12q30 13 30 39q0 33 -23 45.5t-66 12.5q-50 0 -70 -24q-15 -18 -20 -49h-134q4 70 39 115q55 70 189 70q88 0 156 -35
q68 -34 68 -131v-244q0 -25 1 -61q1 -28 8 -37.5t20 -15.5v-21h-151q-6 16 -8.5 30t-4.5 32q-29 -31 -66 -53q-45 -26 -102 -26q-72 0 -119 41.5t-47 117.5q0 98 75 142q42 24 123 34zM322 739h127v-116h-127v116zM126 739h128v-116h-128v116zM107 884h347v-74h-347v74z" />
    <glyph glyph-name="uni01E0" unicode="&#x1e0;" horiz-adv-x="722" 
d="M273 272h183l-90 283zM282 720h170l255 -720h-163l-46 148h-266l-49 -148h-158zM303 925h127v-115h-127v115zM193 1076h347v-74h-347v74z" />
    <glyph glyph-name="uni01E1" unicode="&#x1e1;" horiz-adv-x="556" 
d="M358 259q-13 -9 -26.5 -14t-36.5 -9l-31 -6q-44 -8 -63 -19q-33 -19 -33 -59q0 -36 20 -52t48 -16q45 0 83 26.5t39 96.5v52zM274 324q38 5 55 12q30 13 30 39q0 33 -23 45.5t-66 12.5q-50 0 -70 -24q-15 -18 -20 -49h-134q4 70 39 115q55 70 189 70q88 0 156 -35
q68 -34 68 -131v-244q0 -25 1 -61q1 -28 8 -37.5t20 -15.5v-21h-151q-6 16 -8.5 30t-4.5 32q-29 -31 -66 -53q-45 -26 -102 -26q-72 0 -119 41.5t-47 117.5q0 98 75 142q42 24 123 34zM205 735h127v-116h-127v116zM97 879h347v-74h-347v74z" />
    <glyph glyph-name="uni01E2" unicode="&#x1e2;" horiz-adv-x="1000" 
d="M433 595h-65l-111 -324h176v324zM271 717h680v-125h-370v-155h333v-123h-333v-187h377v-127h-525v152h-216l-52 -152h-156zM395 889h347v-74h-347v74z" />
    <glyph glyph-name="uni01E3" unicode="&#x1e3;" horiz-adv-x="889" 
d="M710 321q-3 52 -29 82.5t-78 30.5q-53 0 -80 -28t-30 -85h217zM363 254q-10 -7 -18.5 -10t-36.5 -9l-54 -11q-46 -9 -61 -20q-26 -17 -26 -58q0 -23 17 -43t58 -20q42 0 70 16q51 28 51 102v53zM292 323q34 5 49 13q23 13 23 38q0 39 -39 53q-21 7 -56 7q-54 0 -75 -30
q-11 -16 -12 -46h-136q5 110 91 156q57 30 146 30q63 0 111 -22q27 -11 56 -35q30 25 68.5 41t89.5 16q162 0 219 -133q30 -71 28 -180h-364q0 -55 13 -84q24 -54 94 -54q39 0 67.5 13.5t42.5 53.5h141q-6 -49 -48 -98q-70 -80 -198 -80q-66 0 -113.5 25t-72.5 64
q-37 -46 -87.5 -67.5t-115.5 -21.5q-99 0 -143 48t-44 114q0 90 67 132q37 22 113 34zM269 707h347v-74h-347v74z" />
    <glyph glyph-name="uni01E4" unicode="&#x1e4;" horiz-adv-x="825" 
d="M402 139v98h154q4 14 6 29h-166v120h300v-149h112v-98h-112v-139h-100l-15 90q-43 -51 -78 -72q-60 -37 -147 -37q-143 0 -234 99q-95 100 -95 273q0 174 96 280q96 105 254 105q138 0 221 -69.5t95 -173.5h-148q-17 74 -83 103q-37 16 -83 16q-87 0 -142.5 -65.5
t-55.5 -197.5q0 -133 60.5 -188t137.5 -55q63 0 108 31h-85z" />
    <glyph glyph-name="uni01E5" unicode="&#x1e5;" horiz-adv-x="687" 
d="M325 533q50 -21 82 -77v76h135v-217h130v-98h-130v-190q0 -103 -35 -155q-59 -90 -228 -90q-102 0 -166.5 40t-71.5 120h151q6 -25 19 -35q23 -19 76 -19q75 0 101 50q16 32 16 108v35q-20 -35 -43 -52q-41 -31 -108 -31q-102 0 -163.5 72t-61.5 195q0 118 59 199t168 81
q40 0 70 -12zM267 217v98h135q-7 42 -28 69q-32 39 -86 39q-73 0 -101 -69q-15 -36 -15 -90q0 -46 16 -82q28 -68 102 -68q48 0 82 37q22 24 29 66h-134z" />
    <glyph glyph-name="uni01E6" unicode="&#x1e6;" horiz-adv-x="778" 
d="M560 495q-17 74 -83 103q-38 16 -83 16q-87 0 -143 -65.5t-56 -197.5q0 -133 60.5 -188t138.5 -55q75 0 123.5 43.5t59.5 114.5h-166v120h299v-386h-99l-15 90q-44 -51 -78 -72q-60 -37 -147 -37q-143 0 -234 99q-95 100 -95 273q0 174 96 280q96 105 254 105
q137 0 220.5 -69.5t95.5 -173.5h-148zM331 802l-115 146h113l64 -82l64 82h113l-114 -146h-125z" />
    <glyph glyph-name="uni01E7" unicode="&#x1e7;" 
d="M410 269q0 75 -32 114.5t-86 39.5q-73 0 -101 -69q-15 -36 -15 -90q0 -46 16 -82q28 -68 101 -68q49 0 83 37t34 118zM329 533q50 -21 82 -77v76h135v-505q0 -103 -35 -155q-59 -90 -228 -90q-102 0 -166.5 40t-71.5 120h151q6 -25 19 -35q23 -19 76 -19q75 0 101 50
q16 32 16 108v35q-20 -35 -43 -52q-41 -31 -108 -31q-102 0 -163.5 72t-61.5 195q0 118 59 199t168 81q40 0 70 -12zM197 625l-114 146h113l64 -83l63 83h114l-115 -146h-125z" />
    <glyph glyph-name="uni01E8" unicode="&#x1e8;" horiz-adv-x="722" 
d="M79 720h148v-297l277 297h195l-295 -297l310 -423h-193l-223 314l-71 -73v-241h-148v720zM298 776l-115 146h113l64 -83l64 83h113l-114 -146h-125z" />
    <glyph glyph-name="uni01E9" unicode="&#x1e9;" horiz-adv-x="556" 
d="M63 717h137v-387l174 200h172l-186 -204l193 -326h-168l-127 228l-58 -61v-167h-137v717zM267 754l-115 146h114l64 -82l63 82h113l-114 -146h-125z" />
    <glyph glyph-name="uni01EA" unicode="&#x1ea;" horiz-adv-x="778" 
d="M589 361q0 121 -52.5 187t-141.5 66q-90 0 -143 -66t-53 -187q0 -122 53 -188t143 -66q89 0 141.5 66t52.5 188zM630 64q-81 -84 -235 -84q-155 0 -236 84q-110 103 -110 297q0 198 110 297q81 84 236 84q154 0 235 -84q109 -99 109 -297q0 -194 -109 -297zM484 -9
l-32 -24q-34 -24 -50 -41.5t-16 -39.5t16 -35t40 -13q11 0 22.5 3t26.5 8v-70q-22 -8 -36 -12q-27 -6 -60 -6q-51 0 -84 28.5t-33 67.5q0 45 41 82q24 22 77 52h88z" />
    <glyph glyph-name="uni01EB" unicode="&#x1eb;" 
d="M430 265q0 80 -32.5 123.5t-93.5 43.5t-94 -43.5t-33 -123.5t33 -123.5t94 -43.5t93.5 43.5t32.5 123.5zM304 -19q-137 0 -204.5 83.5t-67.5 200.5q0 115 67.5 199.5t204.5 84.5t204.5 -84.5t67.5 -199.5q0 -117 -67.5 -200.5t-204.5 -83.5zM368 -13l-33 -23
q-33 -25 -49 -42.5t-16 -38.5q0 -23 16 -36t40 -13q10 0 22 3t27 9v-71q-22 -8 -37 -11q-26 -7 -59 -7q-51 0 -84 28.5t-33 68.5q0 44 41 82q24 22 77 51h88z" />
    <glyph glyph-name="uni01EC" unicode="&#x1ec;" horiz-adv-x="778" 
d="M589 361q0 121 -52.5 187t-141.5 66q-90 0 -143 -66t-53 -187q0 -122 53 -188t143 -66q89 0 141.5 66t52.5 188zM630 64q-81 -84 -235 -84q-155 0 -236 84q-110 103 -110 297q0 198 110 297q81 84 236 84q154 0 235 -84q109 -99 109 -297q0 -194 -109 -297zM475 -7
l-33 -23q-33 -25 -49.5 -42.5t-16.5 -38.5q0 -23 16.5 -36t40.5 -13q10 0 22 3t27 9v-71q-22 -8 -37 -11q-26 -7 -59 -7q-52 0 -84.5 28.5t-32.5 68.5q0 44 41 82q24 22 77 51h88zM216 894h347v-74h-347v74z" />
    <glyph glyph-name="uni01ED" unicode="&#x1ed;" 
d="M430 265q0 80 -32.5 123.5t-93.5 43.5t-94 -43.5t-33 -123.5t33 -123.5t94 -43.5t93.5 43.5t32.5 123.5zM304 -19q-137 0 -204.5 83.5t-67.5 200.5q0 115 67.5 199.5t204.5 84.5t204.5 -84.5t67.5 -199.5q0 -117 -67.5 -200.5t-204.5 -83.5zM383 -8l-33 -23
q-34 -25 -50 -42.5t-16 -38.5q0 -23 16 -36t40 -13q11 0 23 3t27 9v-71q-22 -8 -37 -11q-26 -7 -60 -7q-51 0 -83.5 28.5t-32.5 68.5q0 44 41 82q24 22 77 51h88zM131 698h347v-74h-347v74z" />
    <glyph glyph-name="uni01EE" unicode="&#x1ee;" horiz-adv-x="581" 
d="M132 358l182 -1l1 1q58 -7 80 -30q14 -37 14 -99q0 -58 -44 -89.5t-113 -31.5q-48 0 -68.5 26.5t-25.5 68.5h-142q5 -64 46 -120q65 -92 194 -92q128 0 213 56.5t85 178.5q0 137 -67 174q-31 37 -75 56l147 154v110h-532v-130h332zM239 799l-114 146h113l64 -82l63 82
h114l-115 -146h-125z" />
    <glyph glyph-name="uni01EF" unicode="&#x1ef;" horiz-adv-x="533" 
d="M132 168l134 -1l1 1q57 -7 80 -30q13 -44 13 -106q0 -58 -26.5 -94t-95.5 -36q-49 0 -62 26.5t-17 68.5h-142q4 -64 45 -121q46 -91 175 -91q128 0 198.5 61t70.5 183q0 137 -67 181q-32 37 -76 56l148 154v110h-484v-130h284zM215 604l-114 146h113l64 -83l63 83h114
l-115 -146h-125z" />
    <glyph glyph-name="uni01F0" unicode="&#x1f0;" horiz-adv-x="278" 
d="M4 -102q12 -1 17 -1.5t9 -0.5q20 0 30.5 10.5t10.5 38.5v585h139v-587q0 -81 -31.5 -119.5t-124.5 -38.5q-6 0 -18.5 0.5t-31.5 1.5v111zM79 609l-115 146h113l64 -83l64 83h113l-114 -146h-125z" />
    <glyph glyph-name="uni01F1" unicode="&#x1f1;" horiz-adv-x="1256" 
d="M199 595v-470h139q106 0 148 105q23 58 23 137q0 110 -34.5 169t-136.5 59h-139zM475 704q75 -25 122 -91q38 -54 51.5 -116.5t13.5 -119.5q0 -143 -58 -243q-78 -134 -241 -134h-310v720h310q67 -1 112 -16zM666 127l371 465h-362v128h550v-121l-377 -472h378v-127h-560
v127z" />
    <glyph glyph-name="uni01F2" unicode="&#x1f2;" horiz-adv-x="1153" 
d="M197 595v-470h138q107 0 149 105q23 58 23 137q0 110 -34.5 169t-137.5 59h-138zM472 704q76 -25 123 -91q37 -54 51 -116.5t14 -119.5q0 -143 -58 -243q-78 -134 -241 -134h-310v720h310q67 -1 111 -16zM682 419v113h432v-115l-270 -303h279v-114h-459v108l273 311h-255
z" />
    <glyph glyph-name="uni01F3" unicode="&#x1f3;" horiz-adv-x="1083" 
d="M408 465v254h141v-719h-135v74q-30 -48 -68 -69.5t-95 -21.5q-93 0 -156.5 75.5t-63.5 193.5q0 137 62.5 215t167.5 78q49 0 86.5 -21.5t60.5 -58.5zM412 258q0 98 -49 140q-30 25 -71 25q-61 0 -89.5 -46t-28.5 -114q0 -74 29 -118t89 -44q59 0 89.5 43.5t30.5 113.5z
M617 424v114h432v-116l-270 -302h279v-115h-459v109l273 310h-255z" />
    <glyph glyph-name="uni01F4" unicode="&#x1f4;" horiz-adv-x="778" 
d="M560 495q-17 74 -83 103q-38 16 -83 16q-87 0 -143 -65.5t-56 -197.5q0 -133 60.5 -188t138.5 -55q75 0 123.5 43.5t59.5 114.5h-166v120h299v-386h-99l-15 90q-44 -51 -78 -72q-60 -37 -147 -37q-143 0 -234 99q-95 100 -95 273q0 174 96 280q96 105 254 105
q137 0 220.5 -69.5t95.5 -173.5h-148zM557 956l-148 -146h-101l94 146h155z" />
    <glyph glyph-name="uni01F5" unicode="&#x1f5;" 
d="M410 269q0 75 -32 114.5t-86 39.5q-73 0 -101 -69q-15 -36 -15 -90q0 -46 16 -82q28 -68 101 -68q49 0 83 37t34 118zM329 533q50 -21 82 -77v76h135v-505q0 -103 -35 -155q-59 -90 -228 -90q-102 0 -166.5 40t-71.5 120h151q6 -25 19 -35q23 -19 76 -19q75 0 101 50
q16 32 16 108v35q-20 -35 -43 -52q-41 -31 -108 -31q-102 0 -163.5 72t-61.5 195q0 118 59 199t168 81q40 0 70 -12zM446 772l-148 -146h-101l94 146h155z" />
    <glyph glyph-name="uni01F7" unicode="&#x1f7;" horiz-adv-x="667" 
d="M369 595h-140v-359l140 98q53 34 82.5 67.5t29.5 89.5t-29.5 80t-82.5 24zM382 210l-153 -98v-112h-149v720h313q108 0 172.5 -56t64.5 -172q0 -128 -64.5 -175.5t-183.5 -106.5z" />
    <glyph glyph-name="uni01F8" unicode="&#x1f8;" horiz-adv-x="722" 
d="M74 720h157l287 -503v503h140v-720h-150l-294 511v-511h-140v720zM458 777h-101l-148 146h155z" />
    <glyph glyph-name="uni01F9" unicode="&#x1f9;" 
d="M547 358v-358h-142v324q0 42 -11 64q-21 41 -79 41q-70 0 -97 -60q-13 -32 -13 -81v-288h-139v531h134v-77q27 41 51 59q43 32 109 32q82 0 134.5 -43.5t52.5 -143.5zM405 623h-100l-148 146h155z" />
    <glyph glyph-name="uni01FA" unicode="&#x1fa;" horiz-adv-x="685" 
d="M382 858h-99l77 115h147zM447 739q0 -30 -16 -54l261 -685h-163l-54 159h-267l-56 -159h-159l264 683q-17 23 -17 56q0 42 29 70t75 28q47 0 75 -28t28 -70zM293 739q0 -23 14 -38t37 -15t36.5 15t13.5 38q0 22 -13.5 37.5t-36.5 15.5t-37 -15t-14 -38zM249 276h185
l-90 272h-2z" />
    <glyph glyph-name="uni01FB" unicode="&#x1fb;" horiz-adv-x="574" 
d="M335 802h-98l79 119h147zM295 564q-48 0 -78 29.5t-30 75.5t31 75.5t77 29.5q48 0 78 -29.5t30 -75.5t-31 -75.5t-77 -29.5zM239 669q0 -26 15 -42t41 -16t41 16.5t15 41.5q0 26 -15 42t-41 16t-41 -16.5t-15 -41.5zM48 358q3 49 25 82.5t56 53.5t76 28.5t86 8.5
q39 0 79 -5.5t73 -21.5t54 -45t21 -75v-269q0 -35 4 -67t14 -48h-144q-4 12 -6.5 24.5t-3.5 25.5q-34 -35 -80 -49.5t-94 -14.5q-37 0 -69 9.5t-56 28.5t-37.5 48t-13.5 69q0 50 19.5 80t50 47t68.5 24t74 11q33 4 58 7.5t41.5 10.5t24.5 17.5t8 27.5q0 22 -7.5 36t-20 21.5
t-29 10t-35.5 2.5q-42 0 -66 -18t-28 -60h-142zM376 253q-11 -11 -34 -16t-52 -9q-22 -3 -43 -7t-37 -12.5t-26 -23t-10 -38.5q0 -20 7 -32.5t19 -20t28 -10.5t33 -3q42 0 65 14t34 33.5t13.5 39.5t2.5 32v53z" />
    <glyph glyph-name="uni01FC" unicode="&#x1fc;" horiz-adv-x="981" 
d="M623 779h-99l96 142h157zM330 714h606v-132h-332v-153h312v-122h-312v-175h340v-132h-492v159h-224l-72 -159h-167zM280 276h172v306h-34z" />
    <glyph glyph-name="uni01FD" unicode="&#x1fd;" horiz-adv-x="907" 
d="M509 224q-1 -26 7 -51.5t24 -45.5t39 -33t53 -13q48 0 72 21.5t31 59.5h138q-11 -41 -34 -74t-54 -55.5t-69.5 -34.5t-80.5 -12q-56 0 -108 20.5t-85 67.5q-18 -24 -42.5 -40.5t-52 -27t-57.5 -15.5t-59 -5q-37 0 -71.5 8t-61.5 26t-43.5 47.5t-16.5 72.5q0 44 15 72.5
t39.5 46t55.5 26t63 13.5q45 7 78 11.5t54.5 11.5t31.5 18t10 31t-8 33t-21 20.5t-29.5 10t-33.5 2.5q-42 0 -69.5 -17.5t-29.5 -62.5h-142q2 49 23.5 82.5t55 54t77 29.5t88.5 9q22 0 46.5 -3.5t47.5 -11.5t43 -21.5t34 -33.5q30 35 70 52.5t103 17.5q64 0 109.5 -25.5
t74 -68t41.5 -98t13 -115.5h-369zM736 314q0 24 -7 46t-21.5 39t-35 27t-47.5 10t-48.5 -10t-36.5 -27t-23 -39t-8 -46h227zM385 252q-13 -11 -33.5 -16t-42.5 -9l-46 -7q-23 -3 -41.5 -11t-30 -22.5t-11.5 -38.5q0 -20 7.5 -32.5t20 -20.5t28 -11t32.5 -3q19 0 40 6t38 19
t28 33t11 49v64zM506 589h-99l96 142h157z" />
    <glyph glyph-name="uni01FE" unicode="&#x1fe;" horiz-adv-x="778" 
d="M431 779h-99l96 142h157zM120 105q-42 51 -62 114t-20 135q0 79 24 148t69 120t110 80t148 29q69 0 125.5 -20t99.5 -57l80 89l50 -44l-84 -93q39 -51 59.5 -114t20.5 -138q0 -77 -24 -145t-69 -118t-110.5 -79t-147.5 -29q-69 0 -125 20.5t-98 55.5l-83 -92l-49 43z
M519 548q-23 23 -55 37t-75 14q-53 0 -90 -20.5t-60 -55t-33.5 -78.5t-10.5 -91q0 -35 6.5 -69.5t21.5 -65.5zM261 164q23 -23 54.5 -36t73.5 -13q53 0 90 20.5t60 54.5t33.5 76.5t10.5 87.5q0 36 -6.5 70.5t-20.5 65.5z" />
    <glyph glyph-name="uni01FF" unicode="&#x1ff;" 
d="M343 589h-99l96 142h157zM104 69q-66 72 -66 189q0 62 19 112.5t54 86t84 55t110 19.5q95 0 163 -48l53 61l37 -32l-54 -61q33 -35 51 -84t18 -109q0 -62 -19 -112t-54 -85.5t-84.5 -55t-110.5 -19.5q-97 0 -165 50l-59 -67l-37 32zM388 392q-30 32 -83 32
q-36 0 -60 -14.5t-38.5 -37.5t-20.5 -53t-6 -61q0 -23 3.5 -45t11.5 -41zM220 127q14 -16 35 -25t50 -9q36 0 60.5 14t39 37.5t20.5 53t6 60.5q0 24 -4 47.5t-12 43.5z" />
    <glyph glyph-name="uni0200" unicode="&#x200;" horiz-adv-x="722" 
d="M273 272h183l-90 283zM282 720h170l255 -720h-163l-46 148h-266l-49 -148h-158zM318 787h-96l-119 142h142zM459 929l73 -142h-95l-120 142h142z" />
    <glyph glyph-name="uni0201" unicode="&#x201;" horiz-adv-x="556" 
d="M358 259q-13 -9 -26.5 -14t-36.5 -9l-31 -6q-44 -8 -63 -19q-33 -19 -33 -59q0 -36 20 -52t48 -16q45 0 83 26.5t39 96.5v52zM274 324q38 5 55 12q30 13 30 39q0 33 -23 45.5t-66 12.5q-50 0 -70 -24q-15 -18 -20 -49h-134q4 70 39 115q55 70 189 70q88 0 156 -35
q68 -34 68 -131v-244q0 -25 1 -61q1 -28 8 -37.5t20 -15.5v-21h-151q-6 16 -8.5 30t-4.5 32q-29 -31 -66 -53q-45 -26 -102 -26q-72 0 -119 41.5t-47 117.5q0 98 75 142q42 24 123 34zM241 623h-95l-120 142h142zM383 765l73 -142h-96l-119 142h142z" />
    <glyph glyph-name="uni0202" unicode="&#x202;" horiz-adv-x="722" 
d="M273 272h183l-90 283zM282 720h170l255 -720h-163l-46 148h-266l-49 -148h-158zM370 916q75 0 118.5 -35.5t49.5 -109.5h-66q-7 44 -47 61q-22 9 -55 9q-34 0 -56 -9q-40 -17 -47 -61h-66q7 74 50 109.5t119 35.5z" />
    <glyph glyph-name="uni0203" unicode="&#x203;" horiz-adv-x="556" 
d="M358 259q-13 -9 -26.5 -14t-36.5 -9l-31 -6q-44 -8 -63 -19q-33 -19 -33 -59q0 -36 20 -52t48 -16q45 0 83 26.5t39 96.5v52zM274 324q38 5 55 12q30 13 30 39q0 33 -23 45.5t-66 12.5q-50 0 -70 -24q-15 -18 -20 -49h-134q4 70 39 115q55 70 189 70q88 0 156 -35
q68 -34 68 -131v-244q0 -25 1 -61q1 -28 8 -37.5t20 -15.5v-21h-151q-6 16 -8.5 30t-4.5 32q-29 -31 -66 -53q-45 -26 -102 -26q-72 0 -119 41.5t-47 117.5q0 98 75 142q42 24 123 34zM274 765q76 0 119.5 -35.5t49.5 -109.5h-66q-7 45 -47 61q-22 9 -56 9q-33 0 -55 -9
q-40 -16 -47 -61h-66q6 74 49.5 109.5t118.5 35.5z" />
    <glyph glyph-name="uni0204" unicode="&#x204;" horiz-adv-x="667" 
d="M608 592h-380v-153h349v-125h-349v-185h398v-129h-545v720h527v-128zM307 798h-96l-119 142h142zM449 940l72 -142h-95l-119 142h142z" />
    <glyph glyph-name="uni0205" unicode="&#x205;" horiz-adv-x="556" 
d="M167 319h216q-4 56 -34 84.5t-74 28.5q-48 0 -75 -30.5t-33 -82.5zM482 443q32 -47 41 -110q5 -37 4 -105h-364q3 -81 50 -113q29 -20 70 -20q43 0 70 25q14 13 25 36h143q-6 -47 -50 -96q-68 -78 -191 -78q-102 0 -179.5 65.5t-77.5 213.5q0 138 70 211.5t182 73.5
q66 0 119.5 -24.5t87.5 -78.5zM244 631h-96l-119 143h142zM385 774l73 -143h-96l-119 143h142z" />
    <glyph glyph-name="uni0206" unicode="&#x206;" horiz-adv-x="667" 
d="M608 592h-380v-153h349v-125h-349v-185h398v-129h-545v720h527v-128zM350 943q75 0 118.5 -35t49.5 -110h-66q-7 45 -47 61q-22 9 -55 9q-34 0 -56 -9q-40 -16 -47 -61h-66q6 75 49.5 110t119.5 35z" />
    <glyph glyph-name="uni0207" unicode="&#x207;" horiz-adv-x="556" 
d="M167 319h216q-4 56 -34 84.5t-74 28.5q-48 0 -75 -30.5t-33 -82.5zM482 443q32 -47 41 -110q5 -37 4 -105h-364q3 -81 50 -113q29 -20 70 -20q43 0 70 25q14 13 25 36h143q-6 -47 -50 -96q-68 -78 -191 -78q-102 0 -179.5 65.5t-77.5 213.5q0 138 70 211.5t182 73.5
q66 0 119.5 -24.5t87.5 -78.5zM291 763q75 0 118.5 -35.5t49.5 -109.5h-65q-7 45 -47 61q-23 9 -56 9t-56 -9q-40 -16 -47 -61h-65q6 74 49.5 109.5t118.5 35.5z" />
    <glyph glyph-name="uni0208" unicode="&#x208;" horiz-adv-x="278" 
d="M214 0h-150v720h150v-720zM104 803h-96l-119 142h142zM246 945l72 -142h-95l-119 142h142z" />
    <glyph glyph-name="uni0209" unicode="&#x209;" horiz-adv-x="278" 
d="M67 532h141v-532h-141v532zM102 627h-96l-119 143h142zM244 770l72 -143h-95l-119 143h142z" />
    <glyph glyph-name="uni020A" unicode="&#x20a;" horiz-adv-x="278" 
d="M214 0h-150v720h150v-720zM140 948q75 0 118.5 -35.5t50.5 -109.5h-66q-7 45 -47 61q-23 9 -56 9t-56 -9q-40 -16 -46 -61h-66q6 74 49.5 109.5t118.5 35.5z" />
    <glyph glyph-name="uni020B" unicode="&#x20b;" horiz-adv-x="278" 
d="M67 532h141v-532h-141v532zM143 773q75 0 118.5 -35t50.5 -110h-66q-7 45 -47 61q-23 9 -56 9t-56 -9q-40 -16 -46 -61h-66q6 75 49.5 110t118.5 35z" />
    <glyph glyph-name="uni020C" unicode="&#x20c;" horiz-adv-x="778" 
d="M589 361q0 121 -52.5 187t-141.5 66q-90 0 -143 -66t-53 -187q0 -122 53 -188t143 -66q89 0 141.5 66t52.5 188zM630 64q-81 -84 -235 -84q-155 0 -236 84q-110 103 -110 297q0 198 110 297q81 84 236 84q154 0 235 -84q109 -99 109 -297q0 -194 -109 -297zM346 820h-96
l-119 142h142zM487 962l73 -142h-96l-119 142h142z" />
    <glyph glyph-name="uni020D" unicode="&#x20d;" 
d="M430 265q0 80 -32.5 123.5t-93.5 43.5t-94 -43.5t-33 -123.5t33 -123.5t94 -43.5t93.5 43.5t32.5 123.5zM304 -19q-137 0 -204.5 83.5t-67.5 200.5q0 115 67.5 199.5t204.5 84.5t204.5 -84.5t67.5 -199.5q0 -117 -67.5 -200.5t-204.5 -83.5zM256 634h-96l-119 143h142z
M397 777l73 -143h-95l-120 143h142z" />
    <glyph glyph-name="uni020E" unicode="&#x20e;" horiz-adv-x="778" 
d="M589 361q0 121 -52.5 187t-141.5 66q-90 0 -143 -66t-53 -187q0 -122 53 -188t143 -66q89 0 141.5 66t52.5 188zM630 64q-81 -84 -235 -84q-155 0 -236 84q-110 103 -110 297q0 198 110 297q81 84 236 84q154 0 235 -84q109 -99 109 -297q0 -194 -109 -297zM391 960
q75 0 118.5 -35t49.5 -110h-66q-7 45 -47 61q-22 9 -55 9q-34 0 -56 -9q-40 -16 -47 -61h-66q7 75 50 110t119 35z" />
    <glyph glyph-name="uni020F" unicode="&#x20f;" 
d="M430 265q0 80 -32.5 123.5t-93.5 43.5t-94 -43.5t-33 -123.5t33 -123.5t94 -43.5t93.5 43.5t32.5 123.5zM304 -19q-137 0 -204.5 83.5t-67.5 200.5q0 115 67.5 199.5t204.5 84.5t204.5 -84.5t67.5 -199.5q0 -117 -67.5 -200.5t-204.5 -83.5zM301 773q75 0 118.5 -35.5
t49.5 -110.5h-66q-7 45 -47 61q-22 10 -55 10t-56 -10q-40 -16 -47 -61h-66q7 75 50.5 110.5t118.5 35.5z" />
    <glyph glyph-name="uni0210" unicode="&#x210;" horiz-adv-x="722" 
d="M227 595v-194h170q51 0 76 12q45 21 45 81q0 66 -43 88q-25 13 -74 13h-174zM618 651q24 -27 37.5 -60.5t13.5 -75.5q0 -52 -26 -101.5t-85 -69.5q49 -20 70 -57t21 -113v-48q0 -49 4 -67q6 -28 27 -41v-18h-165q-7 24 -10 39q-6 30 -6 62l-1 66q-1 69 -25.5 92t-90.5 23
h-155v-282h-147v720h353q75 -2 116 -19t69 -50zM294 802h-95l-119 142h142zM436 944l73 -142h-96l-119 142h142z" />
    <glyph glyph-name="uni0211" unicode="&#x211;" horiz-adv-x="389" 
d="M373 544v-143q-14 2 -24 2.5t-16 0.5q-84 0 -113 -55q-16 -31 -16 -95v-254h-141v532h133v-93q33 54 56 73q40 33 102 33q4 0 6.5 -0.5t12.5 -0.5zM173 656h-96l-119 143h142zM314 799l73 -143h-95l-120 143h142z" />
    <glyph glyph-name="uni0212" unicode="&#x212;" horiz-adv-x="722" 
d="M227 595v-194h170q51 0 76 12q45 21 45 81q0 66 -43 88q-25 13 -74 13h-174zM618 651q24 -27 37.5 -60.5t13.5 -75.5q0 -52 -26 -101.5t-85 -69.5q49 -20 70 -57t21 -113v-48q0 -49 4 -67q6 -28 27 -41v-18h-165q-7 24 -10 39q-6 30 -6 62l-1 66q-1 69 -25.5 92t-90.5 23
h-155v-282h-147v720h353q75 -2 116 -19t69 -50zM350 942q75 0 118.5 -35t49.5 -110h-66q-7 45 -47 61q-22 9 -55 9q-34 0 -56 -9q-40 -16 -47 -61h-66q6 75 49.5 110t119.5 35z" />
    <glyph glyph-name="uni0213" unicode="&#x213;" horiz-adv-x="389" 
d="M373 544v-143q-14 2 -24 2.5t-16 0.5q-84 0 -113 -55q-16 -31 -16 -95v-254h-141v532h133v-93q33 54 56 73q40 33 102 33q4 0 6.5 -0.5t12.5 -0.5zM214 764q76 0 119 -35.5t50 -109.5h-66q-7 45 -47 61q-22 9 -56 9q-33 0 -55 -9q-40 -16 -47 -61h-66q6 74 49.5 109.5
t118.5 35.5z" />
    <glyph glyph-name="uni0214" unicode="&#x214;" horiz-adv-x="722" 
d="M76 720h153v-443q0 -74 18 -108q27 -61 119 -61q91 0 118 61q18 34 18 108v443h153v-443q0 -114 -36 -178q-66 -118 -253 -118t-254 118q-36 64 -36 178v443zM324 810h-96l-119 143h142zM465 953l73 -143h-96l-119 143h142z" />
    <glyph glyph-name="uni0215" unicode="&#x215;" 
d="M204 532v-321q0 -45 10 -68q19 -40 75 -40q71 0 98 57q13 31 13 83v289h142v-532h-136v75q-2 -2 -9.5 -14.5t-18.5 -21.5q-33 -29 -63.5 -40t-71.5 -11q-118 0 -159 85q-23 47 -23 138v321h143zM260 632h-96l-119 142h142zM401 774l73 -142h-96l-119 142h142z" />
    <glyph glyph-name="uni0216" unicode="&#x216;" horiz-adv-x="722" 
d="M76 720h153v-443q0 -74 18 -108q27 -61 119 -61q91 0 118 61q18 34 18 108v443h153v-443q0 -114 -36 -178q-66 -118 -253 -118t-254 118q-36 64 -36 178v443zM374 950q75 0 118.5 -35.5t49.5 -109.5h-65q-7 45 -47 61q-23 9 -56 9t-56 -9q-40 -16 -47 -61h-65
q6 74 49.5 109.5t118.5 35.5z" />
    <glyph glyph-name="uni0217" unicode="&#x217;" 
d="M204 532v-321q0 -45 10 -68q19 -40 75 -40q71 0 98 57q13 31 13 83v289h142v-532h-136v75q-2 -2 -9.5 -14.5t-18.5 -21.5q-33 -29 -63.5 -40t-71.5 -11q-118 0 -159 85q-23 47 -23 138v321h143zM312 766q75 0 118.5 -35.5t49.5 -110.5h-65q-7 45 -47 61q-23 9 -56 9
t-56 -9q-40 -16 -47 -61h-65q6 75 49.5 110.5t118.5 35.5z" />
    <glyph glyph-name="uni0218" unicode="&#x218;" horiz-adv-x="649" 
d="M176 237q0 -36 13 -61t34.5 -40.5t50 -23t60.5 -7.5q21 0 45 3.5t45 13.5t35 27.5t14 44.5q0 29 -18.5 47t-48.5 30t-68 21t-77 20q-40 10 -78 24t-68 37.5t-48.5 57.5t-18.5 84q0 55 23.5 95.5t61.5 67.5t86 40t96 13q56 0 107.5 -12.5t91.5 -40.5t63.5 -71.5
t23.5 -105.5h-152q-2 32 -13.5 53t-30.5 33t-44 17t-53 5q-19 0 -38 -4t-34.5 -14t-25.5 -25.5t-10 -37.5q0 -21 8 -34t31.5 -24t64.5 -22l109 -28q20 -5 55.5 -15t70.5 -33t60.5 -61.5t25.5 -98.5q0 -49 -19 -91t-56.5 -72.5t-93 -48t-128.5 -17.5q-59 0 -114.5 15t-98 46
t-67.5 79t-24 114h152zM247 -50h145v-73q0 -32 -10.5 -50.5t-28.5 -28t-43 -12.5t-53 -3v37q24 2 38 10t19 27h-67v93z" />
    <glyph glyph-name="uni0219" unicode="&#x219;" horiz-adv-x="537" 
d="M164 168q0 -23 9.5 -39.5t24.5 -27t34.5 -15.5t40.5 -5q15 0 31.5 3.5t30 11t22.5 20t9 31.5q0 32 -42.5 48t-118.5 32q-31 7 -60.5 16.5t-52.5 25t-37 38.5t-14 58q0 49 19.5 81.5t51.5 51t72 26t82 7.5t81.5 -8t70.5 -27t51.5 -50.5t24.5 -79.5h-135q-3 41 -31 55.5
t-66 14.5q-12 0 -26 -1.5t-25.5 -6.5t-19.5 -14.5t-8 -25.5q0 -19 14 -31t36.5 -19.5t51.5 -13.5t59 -13q31 -7 60.5 -17t52.5 -26.5t37 -41t14 -60.5q0 -51 -20.5 -85.5t-53.5 -55.5t-75.5 -30t-86.5 -9q-45 0 -88 9t-76.5 30.5t-55 56.5t-23.5 86h135zM192 -50h145v-73
q0 -32 -10.5 -50.5t-28.5 -28t-43 -12.5t-53 -3v37q24 2 38 10t19 27h-67v93z" />
    <glyph glyph-name="uni021A" unicode="&#x21a;" 
d="M227 582h-214v132h585v-132h-214v-582h-157v582zM233 -50h145v-73q0 -32 -10.5 -50.5t-28.5 -28t-43 -12.5t-53 -3v37q24 2 38 10t19 27h-67v93z" />
    <glyph glyph-name="uni021B" unicode="&#x21b;" horiz-adv-x="352" 
d="M234 517h104v-95h-104v-256q0 -36 12 -48t48 -12q12 0 23 1t21 3v-111q-18 -3 -40 -4t-43 -1q-33 0 -62.5 4.5t-52 18t-35.5 37.5t-13 63v305h-86v95h86v155h142v-155zM141 -50h145v-73q0 -32 -10.5 -50.5t-28.5 -28t-43 -12.5t-53 -3v37q24 2 38 10t19 27h-67v93z" />
    <glyph glyph-name="uni021C" unicode="&#x21c;" horiz-adv-x="664" 
d="M497 355v1q-2 -1 -3 -1h3zM335 102q68 0 107 37q34 29 34 82q0 97 -138 97q-3 0 -11 -0.5t-18 -1t-20.5 -1.5t-17.5 -1v127q113 2 147 20q35 16 35 65q0 20 -7.5 37t-20.5 28v-1q-16 13 -38.5 19.5t-50.5 6.5t-53 -11t-94 -81v1l-99 95q87 83 138 102t114 19
q118 0 186 -62q69 -61 69 -160q0 -74 -63 -133q39 -25 60 -59q24 -43 24 -110q0 -49 -20 -91.5t-57 -77.5q-39 -34 -88 -52t-107 -18q-67 0 -121 20t-144 59l100 87q92 -42 154 -42z" />
    <glyph glyph-name="uni021D" unicode="&#x21d;" horiz-adv-x="664" 
d="M497 146v2q-2 -1 -3 -2h3zM335 -106q68 0 107 36q34 29 34 83q0 96 -138 96q-3 0 -11 -0.5t-18 -0.5l-21 -1q-10 -1 -17 -2v128q113 1 147 19q35 16 35 65q0 21 -7.5 37.5t-20.5 28.5v-1q-16 12 -38.5 19t-50.5 7t-53 -11.5t-94 -80.5l-99 95q87 84 138 102.5t114 18.5
q118 0 186 -62q69 -60 69 -160q0 -74 -63 -133q39 -25 60 -59q24 -43 24 -110q0 -49 -20 -91.5t-57 -76.5q-39 -34 -88 -52t-107 -18q-67 0 -121 20t-144 58l100 87q92 -41 154 -41z" />
    <glyph glyph-name="uni021E" unicode="&#x21e;" horiz-adv-x="722" 
d="M75 0v720h149v-275h281v275h150v-720h-150v321h-281v-321h-149zM295 774l-115 146h113l64 -83l64 83h113l-114 -146h-125z" />
    <glyph glyph-name="uni021F" unicode="&#x21f;" 
d="M514 477q22 -30 27 -61.5t5 -103.5v-312h-142v324q0 43 -15 69q-19 37 -72 37q-55 0 -83.5 -37t-28.5 -105v-288h-139v717h139v-254q30 46 69.5 64.5t83.5 18.5q50 0 90 -17t66 -52zM255 771l-115 146h113l64 -82l64 82h113l-114 -146h-125z" />
    <glyph glyph-name="uni0220" unicode="&#x220;" horiz-adv-x="722" 
d="M655 -212h-153v636q0 74 -18 108q-27 61 -119 61q-91 0 -118 -61q-18 -34 -18 -108v-425h-153v425v11v285h150v-23q58 23 139 23q187 0 254 -117q36 -64 36 -179v-636z" />
    <glyph glyph-name="uni0226" unicode="&#x226;" horiz-adv-x="722" 
d="M273 272h183l-90 283zM282 720h170l255 -720h-163l-46 148h-266l-49 -148h-158zM308 918h127v-115h-127v115z" />
    <glyph glyph-name="uni0227" unicode="&#x227;" horiz-adv-x="556" 
d="M358 259q-13 -9 -26.5 -14t-36.5 -9l-31 -6q-44 -8 -63 -19q-33 -19 -33 -59q0 -36 20 -52t48 -16q45 0 83 26.5t39 96.5v52zM274 324q38 5 55 12q30 13 30 39q0 33 -23 45.5t-66 12.5q-50 0 -70 -24q-15 -18 -20 -49h-134q4 70 39 115q55 70 189 70q88 0 156 -35
q68 -34 68 -131v-244q0 -25 1 -61q1 -28 8 -37.5t20 -15.5v-21h-151q-6 16 -8.5 30t-4.5 32q-29 -31 -66 -53q-45 -26 -102 -26q-72 0 -119 41.5t-47 117.5q0 98 75 142q42 24 123 34zM216 748h127v-116h-127v116z" />
    <glyph glyph-name="uni0228" unicode="&#x228;" horiz-adv-x="667" 
d="M608 592h-380v-153h349v-125h-349v-185h398v-129h-545v720h527v-128zM471 -133q0 -45 -36.5 -71t-94.5 -26q-25 0 -60 10q-16 5 -45 16l18 42l39 -11q23 -6 38 -6q29 0 41.5 12.5t12.5 26.5q0 20 -14 28.5t-30 8.5q-9 0 -19 -2t-22 -6l-63 57l101 54h53l-43 -64
q16 3 23 4.5t15 1.5q39 0 62.5 -19.5t23.5 -55.5z" />
    <glyph glyph-name="uni0229" unicode="&#x229;" horiz-adv-x="556" 
d="M167 319h216q-4 56 -34 84.5t-74 28.5q-48 0 -75 -30.5t-33 -82.5zM482 443q32 -47 41 -110q5 -37 4 -105h-364q3 -81 50 -113q29 -20 70 -20q43 0 70 25q14 13 25 36h143q-6 -47 -50 -96q-68 -78 -191 -78q-102 0 -179.5 65.5t-77.5 213.5q0 138 70 211.5t182 73.5
q66 0 119.5 -24.5t87.5 -78.5zM394 -145q0 -44 -37 -70.5t-94 -26.5q-25 0 -60 11q-16 4 -46 15l19 42l38 -11q23 -5 38 -5q29 0 42 12t13 26q0 21 -14.5 29t-30.5 8q-9 0 -19 -2t-22 -6l-63 57l101 54h53l-42 -64q16 4 22.5 5t14.5 1q40 0 63.5 -19t23.5 -56z" />
    <glyph glyph-name="uni022A" unicode="&#x22a;" horiz-adv-x="778" 
d="M589 361q0 121 -52.5 187t-141.5 66q-90 0 -143 -66t-53 -187q0 -122 53 -188t143 -66q89 0 141.5 66t52.5 188zM630 64q-81 -84 -235 -84q-155 0 -236 84q-110 103 -110 297q0 198 110 297q81 84 236 84q154 0 235 -84q109 -99 109 -297q0 -194 -109 -297zM423 920h128
v-115h-128v115zM228 920h127v-115h-127v115zM218 1045h347v-74h-347v74z" />
    <glyph glyph-name="uni022B" unicode="&#x22b;" 
d="M430 265q0 80 -32.5 123.5t-93.5 43.5t-94 -43.5t-33 -123.5t33 -123.5t94 -43.5t93.5 43.5t32.5 123.5zM304 -19q-137 0 -204.5 83.5t-67.5 200.5q0 115 67.5 199.5t204.5 84.5t204.5 -84.5t67.5 -199.5q0 -117 -67.5 -200.5t-204.5 -83.5zM338 730h128v-115h-128v115z
M143 730h128v-115h-128v115zM128 858h347v-74h-347v74z" />
    <glyph glyph-name="uni022C" unicode="&#x22c;" horiz-adv-x="778" 
d="M589 361q0 121 -52.5 187t-141.5 66q-90 0 -143 -66t-53 -187q0 -122 53 -188t143 -66q89 0 141.5 66t52.5 188zM630 64q-81 -84 -235 -84q-155 0 -236 84q-110 103 -110 297q0 198 110 297q81 84 236 84q154 0 235 -84q109 -99 109 -297q0 -194 -109 -297zM379 896
l46 -17l27 -9q6 -2 14 -2q24 0 33.5 12.5t13.5 29.5h65q-9 -51 -35 -85.5t-76 -34.5q-15 0 -43 7q-16 4 -31 9l-39 13q-9 3 -16.5 4t-15.5 1q-19 0 -30 -11q-12 -11 -17 -30h-64q11 50 28 76q32 46 93 46q13 0 26 -3t21 -6zM226 1033h347v-74h-347v74z" />
    <glyph glyph-name="uni022D" unicode="&#x22d;" 
d="M430 265q0 80 -32.5 123.5t-93.5 43.5t-94 -43.5t-33 -123.5t33 -123.5t94 -43.5t93.5 43.5t32.5 123.5zM304 -19q-137 0 -204.5 83.5t-67.5 200.5q0 115 67.5 199.5t204.5 84.5t204.5 -84.5t67.5 -199.5q0 -117 -67.5 -200.5t-204.5 -83.5zM291 731l46 -17
q20 -7 26.5 -9t14.5 -2q23 0 32.5 12.5t14.5 29.5h65q-9 -51 -35 -85.5t-77 -34.5q-15 0 -43 7q-16 4 -30 9l-40 13q-8 3 -16 4t-16 1q-18 0 -30 -11t-16 -30h-64q11 50 28 76q31 46 93 46q13 0 25.5 -3t21.5 -6zM130 880h348v-74h-348v74z" />
    <glyph glyph-name="uni022E" unicode="&#x22e;" horiz-adv-x="778" 
d="M589 361q0 121 -52.5 187t-141.5 66q-90 0 -143 -66t-53 -187q0 -122 53 -188t143 -66q89 0 141.5 66t52.5 188zM630 64q-81 -84 -235 -84q-155 0 -236 84q-110 103 -110 297q0 198 110 297q81 84 236 84q154 0 235 -84q109 -99 109 -297q0 -194 -109 -297zM328 932h127
v-116h-127v116z" />
    <glyph glyph-name="uni022F" unicode="&#x22f;" 
d="M430 265q0 80 -32.5 123.5t-93.5 43.5t-94 -43.5t-33 -123.5t33 -123.5t94 -43.5t93.5 43.5t32.5 123.5zM304 -19q-137 0 -204.5 83.5t-67.5 200.5q0 115 67.5 199.5t204.5 84.5t204.5 -84.5t67.5 -199.5q0 -117 -67.5 -200.5t-204.5 -83.5zM239 748h127v-116h-127v116z
" />
    <glyph glyph-name="uni0230" unicode="&#x230;" horiz-adv-x="778" 
d="M589 361q0 121 -52.5 187t-141.5 66q-90 0 -143 -66t-53 -187q0 -122 53 -188t143 -66q89 0 141.5 66t52.5 188zM630 64q-81 -84 -235 -84q-155 0 -236 84q-110 103 -110 297q0 198 110 297q81 84 236 84q154 0 235 -84q109 -99 109 -297q0 -194 -109 -297zM328 910h127
v-116h-127v116zM224 1032h347v-74h-347v74z" />
    <glyph glyph-name="uni0231" unicode="&#x231;" 
d="M430 265q0 80 -32.5 123.5t-93.5 43.5t-94 -43.5t-33 -123.5t33 -123.5t94 -43.5t93.5 43.5t32.5 123.5zM304 -19q-137 0 -204.5 83.5t-67.5 200.5q0 115 67.5 199.5t204.5 84.5t204.5 -84.5t67.5 -199.5q0 -117 -67.5 -200.5t-204.5 -83.5zM243 724h127v-116h-127v116z
M131 850h347v-75h-347v75z" />
    <glyph glyph-name="uni0232" unicode="&#x232;" horiz-adv-x="667" 
d="M487 720h170l-240 -449v-271h-151v271l-249 449h177l150 -314zM164 863h347v-74h-347v74z" />
    <glyph glyph-name="uni0233" unicode="&#x233;" horiz-adv-x="556" 
d="M86 -102l18 -1q21 -1 39.5 1.5t30.5 11.5q13 8 23.5 34.5t8.5 32.5l-196 555h155l116 -392l110 392h148l-183 -523q-52 -152 -83 -188t-123 -36h-30q-11 0 -34 2v111zM105 695h348v-74h-348v74z" />
    <glyph glyph-name="uni0237" unicode="&#x237;" horiz-adv-x="278" 
d="M-19 -61q11 -4 31 -4q22 0 38.5 8.5t16.5 37.5v536h142v-543q0 -40 -8.5 -69t-29 -48.5t-55.5 -29t-89 -9.5q-11 0 -23 1t-23 3v117z" />
    <glyph glyph-name="uni0238" unicode="&#x238;" horiz-adv-x="961" 
d="M929 273q0 -124 -58.5 -205.5t-163.5 -81.5q-66 0 -106 26q-23 15 -51 53v-65h-137v70q-29 -45 -66 -65q-38 -22 -95 -22q-93 0 -156.5 75.5t-63.5 193.5q0 137 62.5 215t167.5 78q49 0 86.5 -21.5t60.5 -58.5v254h143v-256q26 37 58 57q37 24 96 24q105 0 164 -75.5
t59 -195.5zM413 258q0 98 -49 140q-31 25 -71 25q-61 0 -89.5 -46t-28.5 -114q0 -74 29 -118t88 -44q60 0 90 44q30 41 31 106v7zM783 258q0 57 -14 94q-28 70 -103 70q-76 0 -104 -68q-8 -21 -12 -47v-89q7 -42 28 -72q30 -45 92 -45q54 0 83.5 43t29.5 114z" />
    <glyph glyph-name="uni0239" unicode="&#x239;" horiz-adv-x="963" 
d="M930 273q0 -141 -63 -214.5t-163 -73.5q-63 0 -105 32q-23 17 -45 51v-277h-5v-2h-138v277q-15 -32 -53 -57.5t-104 -25.5q-92 0 -157 74t-65 197q0 133 65.5 212.5t160.5 79.5q67 0 108 -33q24 -18 49 -61v79h1v1h133v-78q23 34 48 54q47 36 111 36q93 0 157.5 -69
t64.5 -202zM396 164q19 41 19 103q0 48 -17 87q-29 69 -104 69q-53 0 -85 -40.5t-32 -122.5q0 -55 15 -91q27 -66 101 -66q72 0 103 61zM667 422q-75 0 -104 -71q-14 -39 -14 -97q0 -93 49 -130q29 -22 69 -22q59 0 89.5 44.5t30.5 119.5q0 62 -28.5 109t-91.5 47z" />
    <glyph glyph-name="uni023A" unicode="&#x23a;" horiz-adv-x="722" 
d="M273 272h183l-90 283zM282 720h170l255 -720h-163l-46 148h-266l-49 -148h-158zM517 847h116l-280 -952h-115z" />
    <glyph glyph-name="uni023B" unicode="&#x23b;" horiz-adv-x="722" 
d="M468 844h116l-43 -147q57 -30 94 -83q47 -67 50 -134h-150q-14 50 -36 76l-132 -446h9q79 0 121 52q23 27 38 83h149q-20 -118 -100.5 -191.5t-205.5 -73.5q-25 0 -49 2l-25 -85h-115l34 115q-51 24 -89 68q-89 100 -89 274q0 188 101 291q88 88 224 88q34 0 64 -4z
M375 605q-82 0 -129 -66t-47 -187q0 -122 50 -182q7 -9 16 -17l132 451q-10 1 -22 1z" />
    <glyph glyph-name="uni023C" unicode="&#x23c;" horiz-adv-x="556" 
d="M371 644h115l-50 -135q7 -4 14 -9q64 -45 75 -159h-142q-2 10 -4 19l-99 -262h8q48 0 68.5 26.5t25.5 68.5h142q-5 -64 -46 -120q-65 -92 -194 -92q-25 0 -47 3l-30 -82h-115l44 118q-23 15 -41 38q-60 76 -60 197q0 138 66.5 214t184.5 76q24 0 46 -3zM194 357
q-14 -37 -14 -98q0 -55 12 -90l97 258q-70 0 -95 -70z" />
    <glyph glyph-name="uni023D" unicode="&#x23d;" 
d="M583 0h-507v325l-83 -2v95h83v302h151v-302h148v-91l-148 -1v-197h356v-129z" />
    <glyph glyph-name="uni023E" unicode="&#x23e;" 
d="M483 844h116l-60 -124h60v-128h-120l-95 -199v-393h-152v75l-84 -178h-115l199 420v275h-216v128h408z" />
    <glyph glyph-name="uni0241" unicode="&#x241;" 
d="M157 690q58 37 142 37q110 0 183 -52.5t73 -156.5q0 -63 -32 -107q-18 -26 -71 -67l-35 -27q-28 -22 -37 -51q-6 -19 -6 -266h-132q3 291 15.5 322.5t65.5 72.5l35 27q18 14 29 29q19 27 19 59q0 37 -21.5 67.5t-79.5 30.5q-56 0 -80 -37.5t-24 -77.5h-141q6 139 97 197z
" />
    <glyph glyph-name="uni0242" unicode="&#x242;" 
d="M157 512q58 37 142 37q110 0 183 -52.5t73 -156.5q0 -63 -32 -107q-18 -26 -71 -67l-35 -27q-28 -22 -37 -51q-6 30 -6 -88h-132q3 113 15.5 144.5t65.5 72.5l35 28q18 13 29 28q19 27 19 60q0 37 -21.5 67.5t-79.5 30.5q-56 0 -80 -38t-24 -78h-141q6 139 97 197z" />
    <glyph glyph-name="uni0243" unicode="&#x243;" horiz-adv-x="763" 
d="M668 643q33 -46 33 -110q0 -66 -33 -106q-19 -22 -55 -41q55 -20 83.5 -63.5t28.5 -105.5q0 -64 -33 -114q-20 -34 -51 -57q-35 -26 -82 -36t-102 -10h-326v170h-103v99h103v451h349q133 -2 188 -77zM375 269v-99h-101v-45h177q48 0 74 13q48 23 48 90q0 56 -47 77
q-26 11 -72 12h-180v-48h101zM274 595v-159h177q48 0 77.5 18t29.5 63q0 50 -39 66q-34 12 -86 12h-159z" />
    <glyph glyph-name="uni0244" unicode="&#x244;" horiz-adv-x="832" 
d="M804 513v-98h-97v-138q0 -114 -36 -178q-67 -118 -254 -118t-253 118q-36 64 -36 178v138h-100v98h100v207h153v-207h273v207h153v-207h97zM298 169q28 -61 119 -61q92 0 119 61q18 34 18 108v138h-273v-138q0 -74 17 -108z" />
    <glyph glyph-name="uni0245" unicode="&#x245;" horiz-adv-x="667" 
d="M340 546l-156 -546h-161l243 720h142l246 -720h-156z" />
    <glyph glyph-name="uni0246" unicode="&#x246;" horiz-adv-x="667" 
d="M419 844h116l-37 -124h110v-128h-148l-44 -153h161v-125h-199l-54 -185h302v-129h-340l-31 -103h-114l30 103h-90v720h302zM228 439h72l45 153h-117v-153zM228 192l35 122h-35v-122z" />
    <glyph glyph-name="uni0247" unicode="&#x247;" horiz-adv-x="556" 
d="M356 644h116l-52 -137q37 -24 62 -64q32 -47 41 -110q5 -37 4 -105h-213l-49 -132q8 -1 18 -1q43 0 70 25q14 13 25 36h143q-6 -47 -50 -96q-68 -78 -191 -78q-29 0 -56 6l-32 -86h-115l48 127q-13 9 -24 19q-78 65 -78 213q0 138 70 211.5t182 73.5q22 0 43 -3zM167 319
h67l42 113h-1q-48 0 -75 -30.5t-33 -82.5zM175 163l24 65h-36q2 -38 12 -65zM383 319q-2 32 -13 55l-21 -55h34z" />
    <glyph glyph-name="uni0248" unicode="&#x248;" horiz-adv-x="556" 
d="M558 527v-98h-75v-210q0 -92 -31 -146q-54 -91 -194 -91t-188 73.5t-48 200.5v17h142v-17q2 -83 18.5 -117t69.5 -34q54 0 71 37q10 22 10 74v213h-83v98h83v193h150v-193h75z" />
    <glyph glyph-name="uni0249" unicode="&#x249;" horiz-adv-x="278" 
d="M301 283v-98h-91v-242q0 -81 -31.5 -119.5t-124.5 -38.5q-6 0 -18.5 0.5t-31.5 1.5v111q12 -1 17 -1.5t9 -0.5q20 0 30.5 10.5t10.5 38.5v240h-77v98h77v247h139v-247h91zM210 596h-139v128h139v-128z" />
    <glyph glyph-name="uni024A" unicode="&#x24a;" horiz-adv-x="824" 
d="M806 -110q0 -34 -1 -61q0 -12 -0.5 -23t-1 -19.5t-1 -13.5t-1.5 -5q-140 0 -194 90q-32 54 -32 146v25q-75 -49 -194 -49q-154 0 -236 84q-109 103 -109 297q0 198 109 297q82 84 236 84q119 0 194 -50v28h151v-719q0 -52 10 -74q17 -37 70 -37zM187 361
q0 -122 52.5 -188t141.5 -66t142 66q45 56 52 150v76q-7 94 -52 149q-53 66 -142 66t-141.5 -66t-52.5 -187z" />
    <glyph glyph-name="uni024B" unicode="&#x24b;" horiz-adv-x="659" 
d="M642 -213q-19 -1 -31.5 -1.5t-18.5 -0.5q-93 0 -124.5 38.5t-31.5 119.5v62q-54 -24 -128 -24q-138 0 -205 83.5t-67 200.5q0 115 67 199.5t205 84.5q74 0 128 -25v6h139v-585q0 -28 10.5 -38.5t30.5 -10.5q4 0 9 0.5t17 1.5v-111zM182 265q0 -80 32.5 -123.5t93.5 -43.5
t94 43.5t33 123.5t-33 123.5t-94 43.5t-93.5 -43.5t-32.5 -123.5z" />
    <glyph glyph-name="uni024C" unicode="&#x24c;" horiz-adv-x="772" 
d="M671 651q23 -27 37 -60.5t14 -75.5q0 -52 -26 -101.5t-86 -69.5q50 -20 71 -57t21 -113v-48q0 -49 4 -67q5 -28 27 -41v-18h-166q-6 24 -9 39q-6 30 -7 62l-1 66q-1 69 -25 92t-90 23h-156v-282h-147v282h-103v119h103v319h353q76 -2 117 -19t69 -50zM279 595v-194h171
q50 0 76 12q45 21 45 81q0 66 -44 88q-24 13 -73 13h-175z" />
    <glyph glyph-name="uni024D" unicode="&#x24d;" horiz-adv-x="439" 
d="M368 269v-99h-119v-170h-141v170h-87v99h87v263h133v-93q32 54 56 73q39 33 102 33q4 0 6.5 -0.5t11.5 -0.5v-143q-13 2 -23 2.5t-17 0.5q-84 0 -112 -55q-15 -27 -16 -80h119z" />
    <glyph glyph-name="uni024E" unicode="&#x24e;" horiz-adv-x="767" 
d="M750 620v-98h-157l-135 -251v-271h-150v271l-140 251h-150v98h96l-55 100h177l47 -100h200l45 100h171l-54 -100h105zM385 406l53 116h-108z" />
    <glyph glyph-name="uni024F" unicode="&#x24f;" horiz-adv-x="661" 
d="M649 376v-98h-146l-94 -269q-53 -152 -83.5 -188t-122.5 -36h-30q-11 0 -34 2v111l18 -1q20 -1 38.5 1.5t31.5 11.5q12 8 22.5 34.5t8.5 32.5l-106 301h-123v98h89l-55 156h155l46 -156h136l44 156h148l-55 -156h112zM334 140l39 138h-80z" />
    <glyph glyph-name="uni0250" unicode="&#x250;" horiz-adv-x="556" 
d="M197 270q13 8 26.5 13t37.5 9l31 6q44 8 63 19q32 19 32 59q0 36 -19.5 52t-48.5 16q-45 0 -82.5 -26.5t-39.5 -96.5v-51zM282 205q-39 -5 -55 -13q-30 -12 -30 -39q0 -33 22.5 -45.5t66.5 -12.5q49 0 70 25q15 18 19 48h135q-5 -69 -39 -114q-55 -71 -190 -71
q-87 0 -155 35t-68 131v244q0 25 -1 62q-1 27 -8 36.5t-21 16.5v20h152q6 -16 8.5 -30t3.5 -32q29 31 67 53q45 26 101 26q73 0 120 -41.5t47 -116.5q0 -98 -76 -142q-41 -24 -122 -35z" />
    <glyph glyph-name="uni0251" unicode="&#x251;" horiz-adv-x="592" 
d="M385 468v57h140v-525h-144v64q-31 -39 -69 -57.5t-87 -18.5q-87 0 -141.5 87t-54.5 189q0 105 59.5 187t152.5 82q44 0 78 -15.5t66 -49.5zM281 424q-53 0 -82.5 -48t-29.5 -114t29 -114t83 -48q49 0 76 48t27 114t-26.5 114t-76.5 48z" />
    <glyph glyph-name="uni0252" unicode="&#x252;" horiz-adv-x="592" 
d="M169 53v-57h-140v525h144v-64q31 39 69 57.5t87 18.5q87 0 141.5 -87.5t54.5 -189.5q0 -105 -59.5 -187t-153.5 -82q-43 0 -77 16t-66 50zM273 97q53 0 82.5 47.5t29.5 113.5q0 67 -29 114.5t-83 47.5q-49 0 -76 -47.5t-27 -114.5q0 -66 26.5 -113.5t76.5 -47.5z" />
    <glyph glyph-name="uni0253" unicode="&#x253;" 
d="M264 622q-12 1 -16 1h-9q-21 0 -31.5 -10t-10.5 -39v-31h2v-80q26 37 58 57q37 24 96 24q105 0 164 -75.5t59 -195.5q0 -124 -58.5 -205.5t-163.5 -81.5q-66 0 -106 26q-24 16 -52 55v-67h-136v405h-2v172q0 80 32 118.5t124 38.5q7 0 19.5 -0.5t30.5 -0.5v-111zM430 258
q0 57 -14 94q-28 70 -103 70q-76 0 -104 -68q-15 -37 -15 -95q0 -69 30.5 -113.5t92.5 -44.5q54 0 83.5 43t29.5 114z" />
    <glyph glyph-name="uni0254" unicode="&#x254;" horiz-adv-x="556" 
d="M177 185q4 -30 20 -54q23 -32 73 -32q70 0 96 70q13 37 13 99q0 58 -13 94q-25 66 -94 66q-49 0 -69.5 -26.5t-24.5 -68.5h-142q5 64 46 121q65 91 193 91q129 0 189.5 -76t60.5 -198q0 -137 -67 -213.5t-185 -76.5q-100 0 -163.5 45t-75.5 159h143z" />
    <glyph glyph-name="uni0256" unicode="&#x256;" horiz-adv-x="646" 
d="M616 -213q-19 -1 -31.5 -1.5t-18.5 -0.5q-93 0 -124.5 38.5t-31.5 119.5v124q-29 -43 -64 -62q-38 -22 -95 -22q-93 0 -156.5 75.5t-63.5 193.5q0 137 62.5 215t167.5 78q49 0 86.5 -21.5t60.5 -58.5v254h141v-719v-55q0 -28 10.5 -38.5t30.5 -10.5q4 0 9 0.5t17 1.5
v-111zM412 258q0 98 -49 140q-30 25 -71 25q-61 0 -89.5 -46t-28.5 -114q0 -74 29 -118t89 -44q59 0 89.5 43.5t30.5 113.5z" />
    <glyph glyph-name="uni0257" unicode="&#x257;" 
d="M615 627q-11 1 -16 1h-9q-21 0 -31.5 -10t-10.5 -38v-37h1v-543h-135v74q-30 -48 -68 -69.5t-95 -21.5q-93 0 -156.5 75.5t-63.5 193.5q0 137 62.5 215t167.5 78q49 0 86.5 -21.5t60.5 -58.5v78h1v39q0 81 32 119.5t124 38.5q7 0 19.5 -0.5t30.5 -1.5v-111zM412 258
q0 98 -49 140q-30 25 -71 25q-61 0 -89.5 -46t-28.5 -114q0 -74 29 -118t89 -44q59 0 89.5 43.5t30.5 113.5z" />
    <glyph glyph-name="uni0258" unicode="&#x258;" horiz-adv-x="556" 
d="M385 319q-7 52 -33.5 82.5t-74.5 30.5q-45 0 -75 -28.5t-33 -84.5h216zM69 443q35 54 88 78.5t120 24.5q112 0 182 -73.5t70 -211.5q0 -148 -77.5 -213.5t-179.5 -65.5q-123 0 -191 78q-44 49 -50 96h142q12 -23 26 -36q27 -25 70 -25q41 0 69 20q48 32 51 113h-365
q-1 68 5 105q9 63 40 110z" />
    <glyph glyph-name="uni0259" unicode="&#x259;" horiz-adv-x="574" 
d="M281 -13q-66 0 -115 25.5t-80.5 68.5t-45.5 98t-10 115h373q-3 69 -35 100t-92 31q-43 0 -74 -21.5t-38 -45.5h-125q30 93 92 133t150 40q61 0 110 -19.5t83 -55.5t52.5 -86t18.5 -110q0 -58 -19 -108t-54 -86.5t-83.5 -57.5t-107.5 -21zM285 94q34 0 56.5 11.5t36 28.5
t19 36t6.5 34h-231q10 -54 35.5 -82t77.5 -28z" />
    <glyph glyph-name="uni025A" unicode="&#x25a;" horiz-adv-x="882" 
d="M746 247q13 -4 24 -0.5t20 12t16.5 20t13.5 23.5q6 -6 13 -11l14 -9l15 -9q7 -4 13 -10q-8 -18 -19 -33.5t-25 -28t-31.5 -20t-38.5 -8.5q-28 -3 -51.5 5.5t-40.5 26.5t-27 42.5t-10 54.5q-20 -5 -38.5 -10.5t-37.5 -10.5q15 -100 -24 -171q-48 -89 -157 -118
q-63 -17 -121 -7t-106 53q-42 38 -67 96q-15 33 -32 100l352 95q-24 76 -77 95q-33 12 -73 1q-41 -10 -61 -41q-10 -17 -15 -42l-137 -37q-8 47 22 106q46 92 165 124q98 27 190 -17q78 -37 117 -145l63 19q59 17 115 35q4 -15 4.5 -33t0 -36.5l-1 -36.5t2 -33.5t9.5 -26
t21 -14.5zM422 239l-209 -56q17 -52 53.5 -72t79.5 -8q47 12 64.5 48t11.5 88z" />
    <glyph glyph-name="uni025B" unicode="&#x25b;" horiz-adv-x="505" 
d="M260 432q-42 0 -69.5 -13t-27.5 -47v-9q2 -24 31.5 -37.5t60.5 -13.5h47v-92h-46q-35 0 -68.5 -18.5t-33.5 -47.5q0 -39 28.5 -54.5t67.5 -15.5q49 0 74.5 21t31.5 55h115l-6 -44q-15 -51 -63 -89.5t-146 -38.5q-88 0 -155 35t-67 100q0 50 21.5 87t54.5 56
q-34 17 -51 41.5t-17 68.5q0 16 4.5 50.5t67 71t140.5 36.5q99 0 143 -34t67 -119h-120q-12 28 -26 39.5t-58 11.5z" />
    <glyph glyph-name="uni025C" unicode="&#x25c;" horiz-adv-x="505" 
d="M246 432q-44 0 -58 -11.5t-26 -39.5h-120q23 85 67 119t143 34q78 0 140.5 -36.5t67 -71t4.5 -50.5q0 -44 -17 -68.5t-51 -41.5q33 -19 54.5 -56t21.5 -87q0 -65 -67 -100t-155 -35q-98 0 -146 38.5t-63 89.5l-6 44h115q6 -34 31.5 -55t74.5 -21q39 0 67.5 15.5
t28.5 54.5q0 29 -33.5 47.5t-68.5 18.5h-46v92h47q31 0 60.5 13.5t31.5 37.5v9q0 34 -27.5 47t-69.5 13z" />
    <glyph glyph-name="uni025D" unicode="&#x25d;" horiz-adv-x="798" 
d="M659 359q13 -4 24 -0.5t20 12t16.5 20t13.5 23.5q6 -6 13 -11l14 -9l15 -9q7 -4 13 -10q-8 -18 -19 -33.5t-25 -27.5t-31.5 -19.5t-38.5 -9.5q-28 -3 -51.5 6t-40.5 26.5t-27 42.5t-10 54q-20 -4 -38.5 -10t-37.5 -11q-4 -1 -7 -2v-15q0 -44 -17 -68.5t-50 -41.5
q32 -19 53.5 -56t21.5 -87q0 -65 -67 -100t-154 -35q-99 0 -147 38.5t-62 89.5q-3 22 -7 44h115q6 -34 32 -55t74 -21q39 0 68 15.5t29 54.5q0 29 -34 47.5t-68 18.5h-46v92h47q30 0 59.5 13.5t31.5 37.5v9q0 34 -27 47t-69 13q-45 0 -59 -11.5t-26 -39.5h-119q22 85 66 119
t143 34q79 0 141 -36l30 -20l87 26l116 35q3 -15 3.5 -32.5t-0.5 -36.5l-1 -37q0 -18 2.5 -33t9.5 -26t21 -15z" />
    <glyph glyph-name="uni025E" unicode="&#x25e;" horiz-adv-x="537" 
d="M424 498q62 -37 66.5 -71.5t4.5 -50.5q0 -44 -17 -68.5t-51 -41.5q33 -19 54.5 -56t21.5 -87q0 -65 -67 -100t-155 -35q-128 -7 -188.5 69.5t-60.5 197.5q0 138 67 214t184 65q78 0 141 -36zM287 427q-70 0 -96 -70q-14 -37 -14 -98q0 -59 14 -94q25 -67 93 -81h3
q39 0 67.5 15.5t28.5 54.5q0 29 -33.5 47.5t-68.5 18.5l1 92q31 0 60.5 13.5t31.5 37.5v9q0 34 -27 47q-25 12 -60 8z" />
    <glyph glyph-name="uni025F" unicode="&#x25f;" horiz-adv-x="333" 
d="M14 -194v113q11 -2 39 -2.5t38.5 12.5t10.5 29v44h-92v99h92v429h138v-429h78v-99h-76v-34q0 -85 -29 -117q-30 -48 -146 -48q-13 0 -24 0.5t-29 2.5z" />
    <glyph glyph-name="uni0260" unicode="&#x260;" 
d="M614 573q-12 1 -17 1.5t-9 0.5q-20 0 -30.5 -10t-10.5 -39v-170h-1v-329q0 -103 -35 -155q-59 -90 -228 -90q-102 0 -166.5 40t-71.5 120h151q6 -25 19 -35q23 -19 76 -19q75 0 101 50q16 32 16 108v35q-20 -35 -43 -52q-41 -31 -108 -31q-102 0 -163.5 72t-61.5 195
q0 118 59 199t168 81q40 0 70 -12q48 -20 79 -73v68q0 81 31.5 119.5t124.5 38.5q6 0 18.5 -0.5t31.5 -0.5v-112zM410 269q0 75 -32 114.5t-86 39.5q-73 0 -101 -69q-15 -36 -15 -90q0 -46 16 -82q28 -68 101 -68q49 0 83 37t34 118z" />
    <glyph glyph-name="uni0261" unicode="&#x261;" 
d="M410 269q0 75 -32 114.5t-86 39.5q-73 0 -101 -69q-15 -36 -15 -90q0 -46 16 -82q28 -68 101 -68q49 0 83 37t34 118zM329 533q50 -21 82 -77v76h135v-505q0 -103 -35 -155q-59 -90 -228 -90q-102 0 -166.5 40t-71.5 120h151q6 -25 19 -35q23 -19 76 -19q75 0 101 50
q16 32 16 108v35q-20 -35 -43 -52q-41 -31 -108 -31q-102 0 -163.5 72t-61.5 195q0 118 59 199t168 81q40 0 70 -12z" />
    <glyph glyph-name="uni0265" unicode="&#x265;" 
d="M97 53q-22 30 -27 61.5t-5 102.5v313h143v-324q0 -43 14 -69q19 -37 72 -37q56 0 84.5 36.5t28.5 105.5v288h138v-718h-138v255q-31 -46 -70.5 -64.5t-83.5 -18.5q-49 0 -89.5 17t-66.5 52z" />
    <glyph glyph-name="uni0266" unicode="&#x266;" 
d="M272 660q-12 1 -17 1.5t-8 0.5q-21 0 -31.5 -10t-10.5 -39v-150q30 46 69.5 64.5t83.5 18.5q50 0 90 -17t66 -52q22 -30 27 -61.5t5 -103.5v-312h-142v324q0 43 -15 69q-19 37 -72 37q-55 0 -83.5 -37t-28.5 -105v-288h-139v615q0 81 31.5 119.5t124.5 38.5q7 0 19 -0.5
t31 -1.5v-111z" />
    <glyph glyph-name="uni0267" unicode="&#x267;" horiz-adv-x="659" 
d="M612 -213q-19 -1 -31.5 -1.5t-18.5 -0.5q-93 0 -124.5 38.5t-31.5 119.5v57h-2v324q0 43 -15 69q-19 37 -72 37q-55 0 -83.5 -37t-28.5 -105v-288h-139v615q0 81 31.5 119.5t124.5 38.5q7 0 19 -0.5t31 -1.5v-111q-12 1 -17 1.5t-8 0.5q-21 0 -31.5 -10t-10.5 -39v-150
q30 46 69.5 64.5t83.5 18.5q50 0 90 -17t66 -52q22 -30 27 -61.5t5 -103.5v-312h-1v-55q0 -28 10.5 -38.5t30.5 -10.5q4 0 9 0.5t17 1.5v-111z" />
    <glyph glyph-name="uni0268" unicode="&#x268;" horiz-adv-x="378" 
d="M11 402h100v130h141v-130h106v-74h-106v-328h-141v328h-100v74zM252 596h-141v128h141v-128z" />
    <glyph glyph-name="uni0269" unicode="&#x269;" horiz-adv-x="278" 
d="M67 525h140v-525h-140v525z" />
    <glyph glyph-name="uni026A" unicode="&#x26a;" horiz-adv-x="334" 
d="M23 131h68v269h-68v132h68h141h71v-132h-71v-269h71v-131h-280v131z" />
    <glyph glyph-name="uni026B" unicode="&#x26b;" horiz-adv-x="392" 
d="M261 0h-139v359h-2q-19 0 -31 -10q-11 -12 -16 -31h-64q11 50 28 76q29 43 85 46v280h139v-317h3q24 0 33.5 12.5t13.5 29.5h65q-9 -51 -35 -85.5t-76 -34.5h-4v-325z" />
    <glyph glyph-name="uni026D" unicode="&#x26d;" horiz-adv-x="305" 
d="M274 -213q-19 -1 -31.5 -1.5t-18.5 -0.5q-93 0 -124.5 38.5t-31.5 119.5v777h139v-775q0 -28 10.5 -38.5t31.5 -10.5q3 0 8 0.5t17 1.5v-111z" />
    <glyph glyph-name="uni026F" unicode="&#x26f;" horiz-adv-x="889" 
d="M98 62q-23 27 -31 68q-5 27 -5 78l1 336h143v-339q0 -30 10 -50q18 -37 68 -37q58 0 80 48q11 25 11 61v317h140v-317q0 -47 10 -69q17 -38 69 -38q59 0 80 38q11 22 11 66v320h141v-531h-135v77q-26 -41 -49 -59q-40 -31 -105 -31q-61 0 -99 27q-30 25 -45 64
q-28 -47 -68 -69q-43 -22 -96 -22q-35 0 -69.5 13.5t-61.5 48.5z" />
    <glyph glyph-name="uni0270" unicode="&#x270;" horiz-adv-x="889" 
d="M98 62q-23 27 -31 68q-5 27 -5 78l1 336h143v-339q0 -30 10 -50q18 -37 68 -37q58 0 80 48q11 25 11 61v317h140v-317q0 -47 10 -69q17 -38 69 -38q59 0 80 38q11 22 11 66v320h141v-732h-135v278q-26 -41 -49 -59q-40 -31 -105 -31q-61 0 -99 27q-30 25 -45 64
q-28 -47 -68 -69q-43 -22 -96 -22q-35 0 -69.5 13.5t-61.5 48.5z" />
    <glyph glyph-name="uni0271" unicode="&#x271;" horiz-adv-x="889" 
d="M615 -102q11 -1 16 -2h9q21 0 31.5 10.5t10.5 38.5v316h1v78q0 30 -10 50q-19 37 -69 37q-57 0 -79 -48q-11 -25 -11 -61v-317h-140v317q0 47 -10 69q-18 38 -69 38q-60 0 -80 -38q-11 -22 -11 -66v-320h-142v531h136v-77q26 41 49 59q40 31 105 31q61 0 98 -27
q30 -25 46 -64q27 47 68 69q43 22 96 22q35 0 69 -13.5t62 -48.5q22 -27 30 -68q5 -27 5 -79l-1 -335l-4 -57q0 -81 -32 -119.5t-124 -38.5q-7 0 -19.5 0.5t-30.5 1.5v111z" />
    <glyph glyph-name="uni0272" unicode="&#x272;" 
d="M0 -102q11 -1 16 -1.5t9 -0.5q20 0 30.5 10.5t10.5 38.5v55v531h134v-1h6v-68q23 35 45 51q43 32 109 32q82 0 134.5 -43.5t52.5 -143.5v-358h-142v324q0 42 -11 64q-21 41 -79 41q-70 0 -97 -60q-10 -23 -12 -56v-370q0 -81 -32 -119.5t-125 -38.5q-6 0 -18.5 0.5
t-30.5 1.5v111z" />
    <glyph glyph-name="uni0273" unicode="&#x273;" horiz-adv-x="648" 
d="M611 -213q-19 -1 -31.5 -1.5t-18.5 -0.5q-93 0 -124.5 38.5t-31.5 119.5v381q0 42 -11 64q-21 41 -79 41q-70 0 -97 -60q-13 -32 -13 -81v-288h-139v531h134v-77q27 41 51 59q43 32 109 32q82 0 134.5 -43.5t52.5 -143.5v-358h-3v-55q0 -28 10.5 -38.5t30.5 -10.5
q4 0 9 0.5t17 1.5v-111z" />
    <glyph glyph-name="uni0274" unicode="&#x274;" horiz-adv-x="529" 
d="M45 531h158l141 -314v314h140v-531h-150l-149 323v-323h-140v531z" />
    <glyph glyph-name="uni0275" unicode="&#x275;" 
d="M304 -19q-137 0 -204.5 83.5t-67.5 200.5q0 115 67.5 199.5t204.5 84.5t204.5 -84.5t67.5 -199.5q0 -117 -67.5 -200.5t-204.5 -83.5zM209 142q34 -44 95 -44t93 44q25 32 31 87h-249q6 -55 30 -87zM397 388q-32 44 -93 44t-95 -44q-24 -32 -30 -85h249q-6 53 -31 85z
" />
    <glyph glyph-name="uni0276" unicode="&#x276;" horiz-adv-x="944" 
d="M420 262q0 79 -28 124.5t-98 45.5q-76 0 -105 -71q-15 -37 -15 -96q0 -84 30 -127.5t88 -43.5q70 0 99 47.5t29 120.5zM486 466q39 38 67 54q47 24 114 24q62 0 112 -25t85 -72q28 -37 38 -97q8 -39 8 -119h-364q3 -62 31 -99t80 -37q43 0 70 14t37 48h138
q-9 -69 -71 -121.5t-178 -52.5q-66 0 -114 27q-29 16 -62 50q-27 -31 -57 -48q-53 -30 -131 -30q-119 0 -188.5 78t-69.5 202q0 133 72.5 207.5t191.5 74.5q70 0 115.5 -21.5t75.5 -56.5zM752 388q-27 48 -98 48q-32 0 -57 -14q-47 -28 -50 -101h221q-1 41 -16 67z" />
    <glyph glyph-name="uni0278" unicode="&#x278;" horiz-adv-x="722" 
d="M297 0q-119 8 -191 74q-73 66 -74 189q0 126 71 201q69 74 194 75v167h128v-167q127 -1 196 -75q68 -75 69 -201q-1 -123 -73 -189t-192 -74v-209h-128v209zM297 423q-71 -6 -101 -49q-31 -44 -30 -111q1 -127 131 -147v307zM425 116q130 20 131 147q0 67 -29 111
q-31 43 -102 49v-307z" />
    <glyph glyph-name="uni0279" unicode="&#x279;" horiz-adv-x="389" 
d="M63 1v143q13 -2 23.5 -2.5t16.5 -0.5q84 0 113 55q16 31 16 95v254h140v-532h-133v92q-32 -53 -56 -72q-39 -33 -101 -33h-7q-3 0 -12 1z" />
    <glyph glyph-name="uni027A" unicode="&#x27a;" horiz-adv-x="389" 
d="M63 1v143q13 -2 23.5 -2.5t16.5 -0.5q84 0 113 55q16 31 16 95v429h140v-707h-133v92q-32 -53 -56 -72q-39 -33 -101 -33h-7q-3 0 -12 1z" />
    <glyph glyph-name="uni027B" unicode="&#x27b;" horiz-adv-x="472" 
d="M440 -213q-19 -1 -31.5 -1.5t-18.5 -0.5q-93 0 -124.5 38.5t-31.5 119.5v153q-29 -46 -51 -63q-39 -33 -101 -33h-7q-3 0 -12 1v143q13 -2 23.5 -2.5t16.5 -0.5q84 0 113 55q16 31 16 95v254h140v-430h1v-170q0 -28 10.5 -38.5t31.5 -10.5q3 0 8 0.5t17 1.5v-111z" />
    <glyph glyph-name="uni027C" unicode="&#x27c;" horiz-adv-x="389" 
d="M373 544v-143q-14 2 -24 2.5t-16 0.5q-84 0 -113 -55q-16 -31 -16 -95v-442h-141v720h133v-93q33 54 56 73q40 33 102 33q4 0 6.5 -0.5t12.5 -0.5z" />
    <glyph glyph-name="uni027D" unicode="&#x27d;" horiz-adv-x="389" 
d="M269 -213q-19 -1 -31 -1.5t-19 -0.5q-93 0 -124.5 38.5t-31.5 119.5v172v417h133v-93q33 54 56 73q40 33 102 33q4 0 6.5 -0.5t12.5 -0.5v-143q-14 2 -24 2.5t-16 0.5q-84 0 -113 -55q-16 -31 -16 -95v-254h-2v-55q0 -28 10.5 -38.5t31.5 -10.5q4 0 8.5 0.5t16.5 1.5
v-111z" />
    <glyph glyph-name="uni027E" unicode="&#x27e;" horiz-adv-x="278" 
d="M240 407q-12 1 -17 1.5t-9 0.5q-49 9 -59.5 -1t-10.5 -38v-370h-140v372q0 81 32 119.5t125 38.5q6 0 33 -5.5t46 -5.5v-112z" />
    <glyph glyph-name="uni027F" unicode="&#x27f;" horiz-adv-x="278" 
d="M4 519q19 0 46 5.5t33 5.5q93 0 125 -38.5t32 -119.5v-372h-139v370q0 28 -10.5 38t-60.5 1q-4 0 -9 -0.5t-17 -1.5v112z" />
    <glyph glyph-name="uni0280" unicode="&#x280;" horiz-adv-x="533" 
d="M208 439v-123h44q38 0 57 9q33 15 33 40q0 48 -32 65q-18 9 -54 9h-48zM456 480q18 -20 28 -44.5t10 -55.5q0 -38 -19 -64.5t-63 -61.5q36 -15 51.5 -42t15.5 -83v-36q0 -36 3 -50q4 -20 20 -30v-13h-163q-5 18 -7 28q-4 23 -4 46l-1 50q-1 29 -18.5 46t-67.5 17h-33
v-187h-149v531h260q56 -1 86.5 -13.5t50.5 -37.5z" />
    <glyph glyph-name="uni0281" unicode="&#x281;" horiz-adv-x="533" 
d="M256 92q36 0 54 10q32 16 32 65q0 24 -33 40q-19 8 -57 8h-44v-123h48zM456 51q-20 -25 -50.5 -37.5t-86.5 -13.5h-260v531h149v-187h33q50 0 67.5 17t18.5 47l1 49q0 23 4 46q2 11 7 28h163v-13q-16 -10 -20 -30q-3 -13 -3 -50v-36q0 -55 -15.5 -82.5t-51.5 -42.5
q44 -35 63 -61.5t19 -64.5q0 -31 -10 -55.5t-28 -44.5z" />
    <glyph glyph-name="uni0283" unicode="&#x283;" horiz-adv-x="380" 
d="M222 -121q-39 -90 -139 -90q-21 0 -48.5 5.5t-54.5 15.5l12 111q19 -10 30.5 -14.5t25.5 -4.5q35 0 48 39q8 25 10 105l19 449q5 121 28 173q38 87 139 87q31 0 70 -9q39 -10 34 -10l-10 -111q-18 8 -31 12.5t-28 4.5q-37 0 -51 -39q-9 -25 -12 -108l-17 -474
q-4 -93 -25 -142z" />
    <glyph glyph-name="uni0284" unicode="&#x284;" horiz-adv-x="380" 
d="M-8 75h115l18 420q5 121 28 173q38 87 139 87q31 0 70 -9q39 -10 34 -10l-10 -111q-18 8 -31 12.5t-28 4.5q-37 0 -51 -39q-9 -25 -12 -108l-15 -420h90v-75h-93q-6 -77 -24 -121q-39 -90 -139 -90q-21 0 -48.5 5.5t-54.5 15.5l12 111q19 -10 30.5 -14.5t25.5 -4.5
q35 0 48 39q5 17 8 59h-112v75z" />
    <glyph glyph-name="uni0285" unicode="&#x285;" horiz-adv-x="428" 
d="M174 41q-21 27 -25 78l-17 261q-3 45 -12 59q-14 21 -51 21q-15 0 -28 -2t-31 -7l-10 61q-5 0 34 6q39 4 70 4q101 0 139 -47q23 -29 28 -95l19 -247q2 -44 10 -58q12 -22 48 -22q14 0 25.5 2.5t30.5 8.5l12 -61q-27 -5 -55 -8.5t-49 -3.5q-99 0 -138 50z" />
    <glyph glyph-name="uni0287" unicode="&#x287;" horiz-adv-x="333" 
d="M309 237v-99h-75v-149h-137v149h-87v99h87v281q0 33 -8.5 41t-50.5 8q-7 0 -14 -0.5t-14 -0.5v104l66 2q99 4 135 -34q23 -24 23 -74v-327h75z" />
    <glyph glyph-name="uni0288" unicode="&#x288;" horiz-adv-x="333" 
d="M10 428v99h74v149h138v-149h87v-99h-87v-491q0 -33 8.5 -41t50.5 -8h14q7 0 14 1v-104l-66 -3q-99 -3 -135 34q-24 24 -24 74v538h-74z" />
    <glyph glyph-name="uni0289" unicode="&#x289;" horiz-adv-x="749" 
d="M26 283v98h99v151h143v-151h197v151h141v-151h118v-98h-118v-283h-135v75q-2 -2 -10 -14.5t-19 -21.5q-32 -29 -62.5 -40t-71.5 -11q-119 0 -160 85q-23 47 -23 138v72h-99zM279 143q19 -40 75 -40q71 0 97 57q14 31 14 83v40h-197v-72q0 -45 11 -68z" />
    <glyph glyph-name="uni028A" unicode="&#x28a;" horiz-adv-x="577" 
d="M286 109q61 0 87.5 38.5t26.5 101.5q0 62 -12.5 100t-56.5 78v105h212v-98h-111q92 -69 92 -189q0 -105 -62 -175t-172 -70q-106 0 -172 70.5t-66 174.5q0 64 21.5 107t71.5 82h-112v98h213v-105q-45 -40 -57.5 -77.5t-12.5 -100.5q0 -64 25.5 -102t84.5 -38z" />
    <glyph glyph-name="uni028C" unicode="&#x28c;" horiz-adv-x="556" 
d="M162 0h-150l192 532h147l191 -532h-156l-111 393z" />
    <glyph glyph-name="uni028D" unicode="&#x28d;" horiz-adv-x="778" 
d="M457 0h-142l-81 383l-83 -383h-145l155 532h143l83 -387l85 387h144l150 -532h-150l-83 382z" />
    <glyph glyph-name="uni028E" unicode="&#x28e;" horiz-adv-x="556" 
d="M462 634l-17 1q-21 1 -39.5 -1.5t-30.5 -10.5q-13 -9 -23.5 -35t-8.5 -32l196 -556h-155l-116 393l-110 -393h-148l182 523q53 152 84 188.5t123 36.5h29l34 -2v-112z" />
    <glyph glyph-name="uni028F" unicode="&#x28f;" horiz-adv-x="499" 
d="M309 532h170l-150 -331v-201h-151v201l-159 331h177l60 -232z" />
    <glyph glyph-name="uni0292" unicode="&#x292;" horiz-adv-x="551" 
d="M321 400h-283v130h483v-110l-147 -154q44 -19 76 -56q67 -44 67 -181q0 -122 -70.5 -183t-198.5 -61q-129 0 -175 91q-41 57 -46 121h142q5 -42 18 -68.5t62 -26.5q69 0 95.5 36t26.5 94q0 62 -14 106q-22 23 -80 30l-1 -1l-133 1z" />
    <glyph glyph-name="uni0294" unicode="&#x294;" 
d="M157 690q58 37 142 37q110 0 183 -52.5t73 -156.5q0 -63 -32 -107q-18 -26 -71 -67l-35 -27q-28 -22 -37 -51q-6 -19 -6 -266h-132q3 291 15.5 322.5t65.5 72.5l35 27q18 14 29 29q19 27 19 59q0 37 -21.5 67.5t-79.5 30.5q-56 0 -80 -37.5t-24 -77.5h-141q6 139 97 197z
" />
    <glyph glyph-name="uni0295" unicode="&#x295;" 
d="M458 690q91 -58 97 -197h-141q0 40 -23.5 77.5t-80.5 37.5q-58 0 -79.5 -30.5t-21.5 -67.5q0 -32 20 -59q10 -15 28 -29l35 -27q53 -41 66 -72.5t16 -322.5h-132q-1 247 -7 266q-9 29 -37 51l-35 27q-53 41 -71 67q-32 44 -32 107q0 104 73 156.5t183 52.5q84 0 142 -37z
" />
    <glyph glyph-name="uni0296" unicode="&#x296;" 
d="M157 37q-91 58 -97 197h141q0 -41 24 -78.5t80 -37.5q58 0 79.5 30.5t21.5 67.5q0 33 -19 59q-11 16 -29 29l-35 28q-53 41 -65.5 72.5t-15.5 322.5h132q0 -248 6 -266q9 -29 37 -51l35 -27q53 -41 71 -68q32 -43 32 -107q0 -103 -73 -155.5t-183 -52.5q-84 0 -142 37z
" />
    <glyph glyph-name="uni0297" unicode="&#x297;" horiz-adv-x="520" 
d="M351 341q-4 30 -20 54q-24 32 -73 32q-71 0 -90.5 -109.5t-19.5 -171.5q0 -58 19.5 -165t87.5 -107q49 0 69.5 26t25.5 68h142q-5 -63 -46 -120q-66 -91 -194 -91t-174 108t-46 278q0 186 52 294t170 108q100 0 163.5 -45t75.5 -159h-142z" />
    <glyph glyph-name="uni0298" unicode="&#x298;" horiz-adv-x="778" 
d="M589 361q0 121 -52.5 187t-141.5 66q-90 0 -143 -66t-53 -187q0 -122 53 -188t143 -66q89 0 141.5 66t52.5 188zM630 64q-81 -84 -235 -84q-155 0 -236 84q-110 103 -110 297q0 198 110 297q81 84 236 84q154 0 235 -84q109 -99 109 -297q0 -194 -109 -297zM318 438h148
v-146h-148v146z" />
    <glyph glyph-name="uni029A" unicode="&#x29a;" horiz-adv-x="537" 
d="M111 498q62 36 140 36q118 11 185 -65t67 -214q0 -121 -60.5 -197.5t-189.5 -69.5q-87 0 -154 35t-67 100q0 50 21.5 87t53.5 56q-33 17 -50 41.5t-17 68.5q0 16 4 50.5t67 71.5zM248 427q-36 4 -60 -8q-27 -13 -27 -47v-9q2 -24 31.5 -37.5t59.5 -13.5l1 -92
q-34 0 -68 -18.5t-34 -47.5q0 -39 28.5 -54.5t68.5 -15.5h2q69 14 94 81q13 35 13 94q0 61 -13 98q-26 70 -96 70z" />
    <glyph glyph-name="uni029C" unicode="&#x29c;" horiz-adv-x="646" 
d="M75 0v525h149v-185h213v185h149v-525h-149v234h-213v-234h-149z" />
    <glyph glyph-name="uni029E" unicode="&#x29e;" horiz-adv-x="556" 
d="M553 -188h-137v388l-173 -200h-173l186 203l-193 326h168l127 -227l58 60v167h137v-717z" />
    <glyph glyph-name="uni029F" unicode="&#x29f;" horiz-adv-x="531" 
d="M76 531h151v-402h258v-129h-409v531z" />
    <glyph glyph-name="uni02A0" unicode="&#x2a0;" 
d="M613 591q-12 1 -17 1h-9q-20 0 -30.5 -10t-10.5 -39v-754h-138v277q-15 -32 -53 -57.5t-104 -25.5q-92 0 -157 74t-65 197q0 133 65.5 212.5t160.5 79.5q67 0 108 -33q21 -16 44 -53v86q0 80 31.5 119t124.5 39q6 0 18.5 -0.5t31.5 -1.5v-111zM393 164q19 41 19 103
q0 48 -16 87q-30 69 -105 69q-53 0 -85 -40.5t-32 -122.5q0 -55 15 -91q27 -66 102 -66q71 0 102 61z" />
    <glyph glyph-name="uni02A1" unicode="&#x2a1;" 
d="M133 182h112q5 120 12 140q13 32 66 73l35 27q18 14 29 29q19 27 19 59q0 37 -21.5 67.5t-79.5 30.5q-56 0 -80 -37.5t-24 -77.5h-141q6 139 97 197q58 37 142 37q110 0 183 -52.5t73 -156.5q0 -63 -32 -107q-18 -26 -71 -67l-35 -27q-28 -22 -37 -51q-4 -10 -5 -84h105
v-74h-106v-108h-132q0 59 1 108h-110v74z" />
    <glyph glyph-name="uni02A2" unicode="&#x2a2;" 
d="M482 108h-110q1 -49 2 -108h-132q0 61 -1 108h-106v74h105q-1 74 -5 84q-9 29 -37 51l-35 27q-53 41 -71 67q-32 44 -32 107q0 104 73 156.5t183 52.5q84 0 142 -37q91 -58 97 -197h-141q0 40 -23.5 77.5t-80.5 37.5q-58 0 -79.5 -30.5t-21.5 -67.5q0 -32 20 -59
q10 -15 28 -29l35 -27q53 -41 66 -73q8 -20 12 -140h112v-74z" />
    <glyph glyph-name="uni02A3" unicode="&#x2a3;" horiz-adv-x="1000" 
d="M408 465v254h141v-187h416v-115l-270 -303h279v-114h-560v74q-30 -48 -68 -69.5t-95 -21.5q-93 0 -156.5 75.5t-63.5 193.5q0 137 62.5 215t167.5 78q49 0 86.5 -21.5t60.5 -58.5zM412 258q0 98 -49 140q-30 25 -71 25q-61 0 -89.5 -46t-28.5 -114q0 -74 29 -118t89 -44
q59 0 89.5 43.5t30.5 113.5zM788 419h-239v-271z" />
    <glyph glyph-name="uni02A4" unicode="&#x2a4;" horiz-adv-x="1016" 
d="M794 400h-262v-400h-136v74q-29 -48 -67 -69.5t-95 -21.5q-93 0 -157 75.5t-64 193.5q0 137 63 215t168 78q48 0 85.5 -21.5t61.5 -58.5v254h141v-189h463v-110l-148 -154q44 -19 76 -56q67 -44 67 -181q0 -122 -70.5 -183t-198.5 -61q-129 0 -175 91q-41 57 -46 121h143
q4 -42 17 -68.5t62 -26.5q69 0 95.5 36t26.5 94q0 62 -13 106q-23 23 -81 30v-1l-134 1zM395 258q0 98 -50 140q-30 25 -70 25q-61 0 -89.5 -46t-28.5 -114q0 -74 29 -118t88 -44t90 43.5t31 113.5z" />
    <glyph glyph-name="uni02A6" unicode="&#x2a6;" horiz-adv-x="787" 
d="M10 428v99h74v149h138v-149h87v-58q10 13 23 25q58 53 163 53q99 0 162 -39.5t72 -137.5h-139q-3 27 -15 43q-23 28 -78 28q-46 0 -65 -14t-19 -33q0 -24 20 -35q21 -11 145 -39q83 -19 125 -59q41 -40 41 -100q0 -79 -59 -129t-182 -50q-126 0 -186 53l-8 8v-48l-66 -2
q-99 -4 -135 34q-24 24 -24 74v327h-74zM399 170q4 -37 19 -53q26 -28 96 -28q41 0 65 12.5t24 36.5t-20 36q-19 12 -145 42q-90 22 -127 56q-37 33 -37 96q0 32 11 60h-63v-281q0 -33 8 -41q8 -7 41 -8q-13 33 -13 72h141z" />
    <glyph glyph-name="uni02A7" unicode="&#x2a7;" horiz-adv-x="607" 
d="M412 -121q-39 -90 -138 -90q-21 0 -49 5.5t-54 15.5l12 111q18 -10 30 -14.5t25 -4.5q36 0 48 39q5 16 8 54l-51 -2q-99 -4 -135 34q-24 24 -24 74v327h-74v99h74v149h138v-149h95q6 97 27 141q37 87 139 87q30 0 69 -9q39 -10 34 -10l-10 -111q-17 8 -30 12.5t-29 4.5
q-37 0 -51 -39q-8 -25 -11 -108l-18 -474q-4 -93 -25 -142zM222 147q0 -33 8.5 -41t50.5 -8h13h5l13 330h-90v-281z" />
    <glyph glyph-name="uni02A9" unicode="&#x2a9;" horiz-adv-x="836" 
d="M582 -102q11 -1 16 -1.5t9 -0.5q20 0 30.5 10.5t10.5 38.5v55h-3v324q0 42 -11 64q-21 41 -78 41q-71 0 -98 -60q-13 -32 -13 -81v-288h-139v429h-79v-429h-139v429h-78v98h76v35q0 85 29 117q31 48 146 48q13 0 24 -0.5t29 -2.5v-113q-11 1 -38.5 2t-38 -12t-10.5 -29
v-45h79v4h134v-77q27 41 51 59q43 32 109 32q83 0 135.5 -43.5t52.5 -143.5v-415q0 -81 -32 -119.5t-125 -38.5q-6 0 -18.5 0.5t-30.5 1.5v111z" />
    <glyph glyph-name="uni02AA" unicode="&#x2aa;" horiz-adv-x="687" 
d="M207 0h-139v720h139v-261q12 19 30 35q58 53 163 53q100 0 162.5 -39.5t72.5 -137.5h-139q-3 27 -16 43q-22 28 -78 28q-45 0 -64.5 -14t-19.5 -33q0 -24 21 -35q20 -11 145 -39q83 -19 124 -59t41 -100q0 -79 -58.5 -129t-181.5 -50q-126 0 -186 53q-9 7 -16 16v-51z
M305 170q4 -37 19 -53q26 -28 95 -28q41 0 65.5 12.5t24.5 36.5t-20 36q-19 12 -145 42q-90 22 -127 56q-6 4 -10 10v-112h98z" />
    <glyph glyph-name="uni02AB" unicode="&#x2ab;" horiz-adv-x="667" 
d="M68 720h139v-188h415v-115l-270 -303h279v-114h-563v720zM445 419h-238v-271z" />
    <glyph glyph-name="uni02AC" unicode="&#x2ac;" horiz-adv-x="443" 
d="M180 303h81l46 -218l47 218h83l-88 -303h-82l-47 221l-49 -221h-82l-85 303h85l47 -217zM180 720h81l46 -219l47 219h83l-88 -303h-82l-47 221l-49 -221h-82l-85 303h85l47 -218z" />
    <glyph glyph-name="uni02AD" unicode="&#x2ad;" horiz-adv-x="588" 
d="M557 270v-270h-77v171h-368v-171h-76v270h521zM557 675v-269h-77v170h-368v-170h-76v269h521z" />
    <glyph glyph-name="uni02AE" unicode="&#x2ae;" 
d="M-1 695q19 0 31 0.5t19 0.5q93 0 124.5 -38.5t31.5 -118.5v-9h3v-324q0 -43 14 -69q19 -37 72 -37q56 0 84.5 36.5t28.5 105.5v288h138v-718h-138v255q-31 -46 -70.5 -64.5t-83.5 -18.5q-49 0 -89.5 17t-66.5 52q-22 30 -27 61.5t-5 102.5v313h1v6q0 29 -10.5 39
t-31.5 10q-3 0 -8 -0.5t-17 -1.5v112z" />
    <glyph glyph-name="uni02AF" unicode="&#x2af;" 
d="M614 -213q-18 -1 -30.5 -1.5t-19.5 -0.5q-92 0 -124 38.5t-32 119.5v16h-1v108q-31 -46 -70.5 -64.5t-83.5 -18.5q-49 0 -89.5 17t-66.5 52q-22 30 -27 61.5t-5 102.5v313h1v6q0 29 -10.5 39t-31.5 10q-3 0 -8 -0.5t-17 -1.5v112q19 0 31 0.5t19 0.5q93 0 124.5 -38.5
t31.5 -118.5v-9h3v-324q0 -43 14 -69q19 -37 72 -37q56 0 84.5 36.5t28.5 105.5v288h138v-415h2v-170q0 -28 10.5 -38.5t31.5 -10.5q4 0 9 0.5t16 1.5v-111z" />
    <glyph glyph-name="uni02B0" unicode="&#x2b0;" horiz-adv-x="306" 
d="M257 595q11 -15 13.5 -31t2.5 -51v-157h-71v163q0 21 -7 34q-10 19 -36 19q-28 0 -42 -18.5t-14 -53.5v-144h-70v359h70v-127q15 23 34.5 32t41.5 9q25 0 45 -8.5t33 -25.5z" />
    <glyph glyph-name="uni02B1" unicode="&#x2b1;" horiz-adv-x="306" 
d="M136 687h-9h-3q-11 0 -16 -5t-5 -19v-75q15 23 34.5 32t41.5 9q25 0 45 -8.5t33 -25.5q11 -15 13.5 -31t2.5 -51v-157h-71v163q0 21 -7 34q-10 19 -36 19q-28 0 -42 -18.5t-14 -53.5v-144h-70v308q0 41 16 60t62 19h9q7 0 16 -1v-55z" />
    <glyph glyph-name="uni02B2" unicode="&#x2b2;" horiz-adv-x="139" 
d="M105 654h-69v65h69v-65zM2 305h8h5q10 0 15.5 4.5t5.5 19.5v293h69v-294q0 -40 -15.5 -59.5t-62.5 -19.5q-3 0 -9 0.5t-16 0.5v55z" />
    <glyph glyph-name="uni02B3" unicode="&#x2b3;" horiz-adv-x="195" 
d="M187 628v-71q-7 1 -12.5 1.5t-7.5 0.5q-42 0 -57 -28q-8 -15 -8 -47v-128h-70v267h66v-47q16 27 28 37q20 16 51 16h3q2 0 7 -1z" />
    <glyph glyph-name="uni02B4" unicode="&#x2b4;" horiz-adv-x="195" 
d="M32 357v71q6 0 11 -0.5t9 -0.5q42 0 56 28q8 15 8 47v127h70v-266h-66v46q-16 -26 -28 -36q-20 -17 -51 -17q-2 0 -3.5 0.5t-5.5 0.5z" />
    <glyph glyph-name="uni02B5" unicode="&#x2b5;" horiz-adv-x="236" 
d="M220 250q-9 0 -15.5 -0.5t-9.5 -0.5q-46 0 -62 19.5t-16 59.5v77q-14 -23 -25 -32q-20 -17 -51 -17q-2 0 -3.5 0.5t-5.5 0.5v71q6 0 11 -0.5t9 -0.5q42 0 56 28q8 15 8 47v127h70v-215h1v-85q0 -15 5 -19.5t16 -4.5h4h8v-55z" />
    <glyph glyph-name="uni02B6" unicode="&#x2b6;" horiz-adv-x="378" 
d="M182 408q26 0 38 7q23 12 23 46q0 18 -24 28q-13 6 -40 6h-32v-87h35zM324 379q-15 -18 -36.5 -27t-60.5 -9h-185v377h105v-133h24q35 0 47.5 12t13.5 33v35q0 17 4 33q1 8 5 20h115v-10q-11 -6 -14 -21q-2 -9 -2 -35v-26q0 -39 -11 -58.5t-37 -29.5q31 -25 45 -44
t14 -46q0 -22 -7.5 -39.5t-19.5 -31.5z" />
    <glyph glyph-name="uni02B7" unicode="&#x2b7;" horiz-adv-x="389" 
d="M158 623h71l40 -192l42 192h72l-77 -267h-72l-41 194l-43 -194h-72l-75 267h75l42 -191z" />
    <glyph glyph-name="uni02B8" unicode="&#x2b8;" horiz-adv-x="278" 
d="M43 305h9q10 -1 19.5 0.5t15.5 5.5t11.5 17.5t4.5 16.5l-98 278h78l58 -197l55 197h74l-92 -262q-26 -76 -41.5 -94t-61.5 -18h-15q-5 0 -17 1v55z" />
    <glyph glyph-name="uni02B9" unicode="&#x2b9;" horiz-adv-x="333" 
d="M334 719l-148 -292h-101l94 292h155z" />
    <glyph glyph-name="uni02BA" unicode="&#x2ba;" horiz-adv-x="610" 
d="M334 719l-148 -292h-101l94 292h155zM583 719l-148 -292h-101l94 292h155z" />
    <glyph glyph-name="uni02BB" unicode="&#x2bb;" horiz-adv-x="278" 
d="M67 555q0 75 35.5 116.5t101.5 55.5v-51q-51 -15 -67 -55q-10 -21 -8 -40h77v-129h-139v103z" />
    <glyph glyph-name="uni02BC" unicode="&#x2bc;" horiz-adv-x="278" 
d="M67 494q48 15 66 51q10 22 8 44h-77v128h140v-103q0 -73 -36 -115.5t-101 -55.5v51z" />
    <glyph glyph-name="uni02BD" unicode="&#x2bd;" horiz-adv-x="278" 
d="M201 443q-65 13 -101 55.5t-36 115.5v103h140v-128h-77q-2 -22 8 -44q18 -36 66 -51v-51z" />
    <glyph glyph-name="uni02BE" unicode="&#x2be;" horiz-adv-x="205" 
d="M54 647q24 0 41 17t17 41t-17 41t-41 17v48q44 0 75.5 -31t31.5 -75t-31.5 -75.5t-75.5 -32.5l1 50h-1z" />
    <glyph glyph-name="uni02BF" unicode="&#x2bf;" horiz-adv-x="205" 
d="M160 647l1 -50q-44 1 -75.5 32.5t-31.5 75.5t31.5 75t75.5 31v-48q-24 0 -41 -17t-17 -41t17 -41t41 -17h-1z" />
    <glyph glyph-name="uni02C0" unicode="&#x2c0;" horiz-adv-x="306" 
d="M79 702q28 18 70 18q56 0 92.5 -26.5t36.5 -77.5q0 -32 -16 -54q-10 -13 -36 -34l-17 -13q-14 -11 -19 -26q-3 -9 -3 -133h-66q2 146 8 161.5t33 36.5l17 14q9 6 14 14q10 14 10 30q0 18 -10.5 33.5t-39.5 15.5q-28 0 -40 -19t-12 -39h-71q3 69 49 99z" />
    <glyph glyph-name="uni02C1" unicode="&#x2c1;" horiz-adv-x="306" 
d="M229 702q46 -30 49 -99h-71q0 20 -11.5 39t-40.5 19t-40 -15.5t-11 -33.5q0 -16 10 -30q6 -8 14 -14l18 -14q27 -21 33.5 -36.5t7.5 -161.5h-66q0 124 -3 133q-5 15 -19 26l-17 13q-27 21 -36 34q-16 22 -16 54q0 51 36.5 77.5t91.5 26.5q42 0 71 -18z" />
    <glyph glyph-name="uni02C2" unicode="&#x2c2;" horiz-adv-x="292" 
d="M6 520l287 109v-67l-205 -73l205 -73v-68l-287 110v62z" />
    <glyph glyph-name="uni02C3" unicode="&#x2c3;" horiz-adv-x="292" 
d="M293 458l-287 -110v68l205 73l-205 73v67l287 -109v-62z" />
    <glyph glyph-name="uni02C4" unicode="&#x2c4;" horiz-adv-x="292" 
d="M181 633l110 -288h-68l-73 206l-73 -206h-68l110 288h62z" />
    <glyph glyph-name="uni02C5" unicode="&#x2c5;" horiz-adv-x="292" 
d="M119 345l-110 288h68l73 -206l73 206h68l-110 -288h-62z" />
    <glyph glyph-name="circumflex" unicode="&#x2c6;" horiz-adv-x="259" 
d="M65 723l-110 -142h107l64 81l62 -81h117l-110 142h-130z" />
    <glyph glyph-name="caron" unicode="&#x2c7;" horiz-adv-x="259" 
d="M195 581l110 142h-110l-65 -81l-64 81h-111l110 -142h130z" />
    <glyph glyph-name="uni02C8" unicode="&#x2c8;" horiz-adv-x="333" 
d="M206 712v-152h-75v152h75z" />
    <glyph glyph-name="uni02C9" unicode="&#x2c9;" horiz-adv-x="259" 
d="M-47 694h353v-75h-353v75z" />
    <glyph glyph-name="uni02CA" unicode="&#x2ca;" horiz-adv-x="333" 
d="M334 750l-148 -146h-101l94 146h155z" />
    <glyph glyph-name="uni02CB" unicode="&#x2cb;" horiz-adv-x="333" 
d="M252 604h-101l-148 146h155z" />
    <glyph glyph-name="uni02CC" unicode="&#x2cc;" horiz-adv-x="333" 
d="M206 -69v-152h-75v152h75z" />
    <glyph glyph-name="uni02CD" unicode="&#x2cd;" horiz-adv-x="333" 
d="M-5 -72h347v-74h-347v74z" />
    <glyph glyph-name="uni02CE" unicode="&#x2ce;" horiz-adv-x="333" 
d="M252 -177h-101l-148 146h155z" />
    <glyph glyph-name="uni02CF" unicode="&#x2cf;" horiz-adv-x="333" 
d="M334 -31l-148 -146h-101l94 146h155z" />
    <glyph glyph-name="uni02D0" unicode="&#x2d0;" horiz-adv-x="208" 
d="M13 0v45l70 142h46l71 -142v-45h-187zM200 529v-46l-71 -141h-45l-71 141v46h187z" />
    <glyph glyph-name="uni02D1" unicode="&#x2d1;" horiz-adv-x="208" 
d="M200 431v-45l-71 -142h-45l-71 142v45h187z" />
    <glyph glyph-name="uni02D2" unicode="&#x2d2;" horiz-adv-x="205" 
d="M54 256q24 0 41 17t17 41t-17 41t-41 17v48q44 0 75.5 -31t31.5 -75t-31.5 -75t-75.5 -32l1 49h-1z" />
    <glyph glyph-name="uni02D3" unicode="&#x2d3;" horiz-adv-x="205" 
d="M160 256l1 -49q-44 1 -75.5 32t-31.5 75t31.5 75t75.5 31v-48q-24 0 -41 -17t-17 -41t17 -41t41 -17h-1z" />
    <glyph glyph-name="uni02D4" unicode="&#x2d4;" horiz-adv-x="292" 
d="M18 1v63h100v200h64v-200h100v-63h-100v-1h-64v1h-100z" />
    <glyph glyph-name="uni02D5" unicode="&#x2d5;" horiz-adv-x="292" 
d="M282 263v-63h-100v-200h-64v200h-100v63h100v1h64v-1h100z" />
    <glyph glyph-name="uni02D6" unicode="&#x2d6;" horiz-adv-x="292" 
d="M18 101v63h100v100h64v-100h100v-63h-100v-101h-64v101h-100z" />
    <glyph glyph-name="uni02D7" unicode="&#x2d7;" horiz-adv-x="333" 
d="M23 270h280v-66h-280v66z" />
    <glyph glyph-name="breve" unicode="&#x2d8;" horiz-adv-x="259" 
d="M26 727h-64q12 -146 158 -146q75 0 121.5 34t56.5 112h-63q-9 -38 -37 -54.5t-73 -16.5q-15 0 -31 3.5t-30.5 12t-24.5 22t-13 33.5z" />
    <glyph glyph-name="dotaccent" unicode="&#x2d9;" horiz-adv-x="259" 
d="M62 714v-117h135v117h-135z" />
    <glyph glyph-name="ring" unicode="&#x2da;" horiz-adv-x="259" 
d="M7 656q0 -25 9.5 -47.5t26 -39t39 -26t47.5 -9.5q26 0 48 9.5t39 26t26.5 39t9.5 47.5q0 26 -9.5 48t-26.5 38.5t-39 26t-48 9.5q-25 0 -47.5 -9.5t-39 -26t-26 -38.5t-9.5 -48zM66 656q0 29 17 49.5t46 20.5t46.5 -20.5t17.5 -49.5t-17.5 -49.5t-46.5 -20.5t-46 20.5
t-17 49.5z" />
    <glyph glyph-name="ogonek" unicode="&#x2db;" horiz-adv-x="259" 
d="M250 -149l-48 22q-14 -19 -28 -24.5t-30 -5.5q-15 0 -27 9.5t-12 24.5q0 26 17.5 54.5t65.5 71.5h-65q-42 -24 -65 -45t-34 -37.5t-13 -28.5t-2 -19q0 -32 13 -50t31 -27t36 -11t27 -2q34 0 69 15t65 53z" />
    <glyph glyph-name="tilde" unicode="&#x2dc;" horiz-adv-x="259" 
d="M313 714h-69q1 -14 -9 -24.5t-33 -10.5q-17 0 -33.5 5.5t-32.5 12.5l-32 12q-15 5 -32 5q-33 0 -54.5 -11t-35.5 -28.5t-22 -39t-13 -43.5h60q5 19 13.5 30.5t28.5 11.5q17 0 34 -5t36 -12q19 -6 39 -11.5t43 -5.5q30 0 49.5 11.5t32 28.5t19 37t11.5 37z" />
    <glyph glyph-name="hungarumlaut" unicode="&#x2dd;" horiz-adv-x="259" 
d="M151 581l91 142h157l-149 -142h-99zM-55 581l90 142h157l-149 -142h-98z" />
    <glyph glyph-name="uni02DE" unicode="&#x2de;" horiz-adv-x="414" 
d="M274 247q14 -4 25 -0.5t20 12t16.5 20t13.5 23.5q5 -6 12 -10l15 -10l14 -8q7 -5 13 -11q-7 -18 -18 -33.5t-25 -28t-31.5 -20t-38.5 -8.5q-28 -3 -51.5 5.5t-40.5 26.5t-27 42.5t-10 54.5l-39 -10l-36 -12q-19 -5 -38 -9.5t-39 -7.5v93l115 36l115 35q4 -15 4.5 -33
t-0.5 -36l-1 -37q0 -18 2.5 -33.5t9.5 -26t20 -14.5z" />
    <glyph glyph-name="uni02DF" unicode="&#x2df;" horiz-adv-x="292" 
d="M234 618l45 -45l-84 -84l84 -84l-45 -46l-84 84l-84 -84l-45 46l84 84l-84 84l45 45l84 -84z" />
    <glyph glyph-name="uni02E0" unicode="&#x2e0;" horiz-adv-x="278" 
d="M103 356l-94 261h77l52 -162h1l53 162h77l-94 -261v-98h-72v98z" />
    <glyph glyph-name="uni02E1" unicode="&#x2e1;" horiz-adv-x="139" 
d="M104 356h-70v360h70v-360z" />
    <glyph glyph-name="uni02E2" unicode="&#x2e2;" horiz-adv-x="278" 
d="M86 441q3 -18 10 -26q13 -14 48 -14q21 0 32.5 6.5t11.5 18.5q0 11 -9 17q-10 7 -73 21q-45 12 -64 29q-18 16 -18 48q0 36 29 62.5t81 26.5q50 0 81.5 -20t35.5 -68h-69q-1 13 -8 21q-11 14 -39 14q-22 0 -32 -7t-10 -17q0 -11 11 -17q10 -6 72 -19q42 -10 62 -30
q21 -20 21 -50q0 -40 -29.5 -64.5t-90.5 -24.5q-63 0 -93 26t-30 67h70z" />
    <glyph glyph-name="uni02E3" unicode="&#x2e3;" horiz-adv-x="278" 
d="M6 356l91 135l-87 131h85l45 -77l43 77h83l-87 -129l91 -137h-87l-46 81l-46 -81h-85z" />
    <glyph glyph-name="uni02E4" unicode="&#x2e4;" horiz-adv-x="306" 
d="M229 702q46 -30 49 -99h-71q0 20 -11.5 39t-40.5 19t-40 -15.5t-11 -33.5q0 -16 10 -30q6 -8 14 -14l18 -14q27 -21 33.5 -36.5t7.5 -161.5h-66q0 124 -3 133q-5 15 -19 26l-17 13q-27 21 -36 34q-16 22 -16 54q0 51 36.5 77.5t91.5 26.5q42 0 71 -18z" />
    <glyph glyph-name="uni02E5" unicode="&#x2e5;" horiz-adv-x="475" 
d="M313 0v588h-309v132h441v-720h-132z" />
    <glyph glyph-name="uni02E6" unicode="&#x2e6;" horiz-adv-x="470" 
d="M309 0v441h-309v132h309v147h131v-720h-131z" />
    <glyph glyph-name="uni02E7" unicode="&#x2e7;" horiz-adv-x="470" 
d="M309 0v294h-309v132h309v294h131v-720h-131z" />
    <glyph glyph-name="uni02E8" unicode="&#x2e8;" horiz-adv-x="470" 
d="M440 720v-720h-131v146h-309v132h309v442h131z" />
    <glyph glyph-name="uni02E9" unicode="&#x2e9;" horiz-adv-x="475" 
d="M445 720v-720h-441v132h309v588h132z" />
    <glyph glyph-name="uni02EA" unicode="&#x2ea;" horiz-adv-x="296" 
d="M30 531h66v-480h199v-51h-265v531z" />
    <glyph glyph-name="uni02EB" unicode="&#x2eb;" horiz-adv-x="295" 
d="M30 531h66v-240h199v-51h-199v-240h-66v531z" />
    <glyph glyph-name="uni02EC" unicode="&#x2ec;" horiz-adv-x="333" 
d="M106 -177l-114 146h113l64 -83l63 83h114l-115 -146h-125z" />
    <glyph glyph-name="uni02ED" unicode="&#x2ed;" horiz-adv-x="333" 
d="M-5 709h347v-74h-347v74zM-5 563h347v-74h-347v74z" />
    <glyph glyph-name="uni02EE" unicode="&#x2ee;" horiz-adv-x="500" 
d="M307 494q50 15 67 56q6 16 6 39h-76v128h139v-103q0 -70 -34 -114t-102 -57v51zM76 494q49 16 67 54q9 20 7 41h-76v128h139v-103q0 -72 -35 -115t-102 -56v51z" />
    <glyph glyph-name="uni02EF" unicode="&#x2ef;" horiz-adv-x="292" 
d="M119 -241l-110 288h68l73 -206l73 206h68l-110 -288h-62z" />
    <glyph glyph-name="uni02F0" unicode="&#x2f0;" horiz-adv-x="292" 
d="M181 47l110 -288h-68l-73 206l-73 -206h-68l110 288h62z" />
    </font>
</defs>
</svg>
